<?xml version="1.0" encoding="utf-8"?>
<!-- Generator: Adobe Illustrator 24.2.1, SVG Export Plug-In . SVG Version: 6.00 Build 0)  -->
<svg version="1.1" id="MAPA" xmlns="http://www.w3.org/2000/svg" xmlns:xlink="http://www.w3.org/1999/xlink" x="0px" y="0px"
	 viewBox="0 0 454.62 596.16" style="enable-background:new 0 0 454.62 596.16;" xml:space="preserve">
<style type="text/css">
	.st0{fill:#D1D1D1;stroke:#FFFFFF;stroke-width:1.7;stroke-miterlimit:10;}
	.st1{fill:#D1D1D1;stroke:#FFFFFF;stroke-width:1.5;stroke-miterlimit:10;}
	.st2{fill:#D1D1D1;stroke:#FFFFFF;stroke-width:2;stroke-miterlimit:10;}
	.st3{fill:#F3E2BA;}
</style>
<g id="DISTRITOS">
	<path id="Santa_Rosa" class="st0" d="M85.83,162.07c-3.6,0.51-7.18,0.96-10.26,3.25c-1.39,1.03-3.07,0.43-4.43-0.43
		c-0.83-0.52-1.69-0.47-2.55-0.03c-2.53,1.28-1.74,1.49-4.69,0.37c0.93-0.84,0.96-2.19,1.29-3.36c0.17-0.59,0.63-0.95,1.28-1.16
		c1.75-0.57,2.24-1.63,1.44-3.31c-0.76-1.61-1.97-3.06-1.11-5.04c0.13-0.3-0.06-1.02-0.32-1.16c-1.59-0.9-1.49-2.38-1.72-3.9
		c-0.24-1.59-0.94-3.13-2.73-3.77c-0.82-0.29-1.46-0.93-1.9-1.62c-0.83-1.3-1.87-1.73-3.22-0.99c-0.83,0.46-1.06-0.12-1.43-0.57
		c-0.74-0.89,0.28-0.92,0.62-1.27c1.58-0.09,3.16-0.04,4.73,0.02c5.22,0.22,10.41-0.45,15.63-0.41c2.53,0.02,4.48,0.75,5.64,3.15
		c0.48,0.98,1.25,1.81,2.15,2.44c2.4,1.66,4.36,3.84,6.63,5.65c2.65,2.12,2.57,4.14-0.18,5.97c-1.43,0.95-2.45,2.11-3.03,3.72
		C87.31,160.6,86.73,161.48,85.83,162.07z"/>
	<path id="Ancon"  class="st0" d="M62.26,76.16c2.89-2.17,6.78-2.92,8.71-6.49c0.77-1.44,2.71-1.44,4.12-2.03
		c1.53-0.64,3.13-1.25,4.56-2c2.61-1.37,4.63-0.04,6.82,0.8c0.34,0.13,0.64,0.34,0.96,0.52c2.39,1.39,3.06,1.27,4.87-0.88
		c0.78-0.93,3.63-1.38,4.86-0.61c1.32,0.82,2.55,0.73,3.36-0.45c0.87-1.27-0.02-2.28-1.09-3.03c-0.79-0.55-1.51-1.2-2.26-1.79
		c-1.4-1.09-2.83-2.22-2.34-4.49c0.23-1.06-0.49-2.02-1.56-2.66c-1.92-1.14-2.07-2.99-0.41-4.45c1.05-0.92,2.27-1.63,3.1-2.78
		c0.38-0.52,0.78-0.46,1.25-0.2c0.53,0.29,1.09,0.54,1.58,0.89c4.89,3.44,11.09,1.51,13.28-4.13c0.72-1.84,1.95-3.12,3.69-4.24
		c2.05-1.31,3.98-2.89,5.91-4.41c0.79-0.63,1.28-1.68,1-2.94c-0.25-1.13,0.18-2.38,0.84-3.15c1.78-2.08,2.34-4.75,3.71-7.01
		c0.5-0.83,0.24-1.79,0.18-2.68c-0.07-1.15,0.3-1.9,1.49-2.07c1.06-0.15,2-0.6,2.81-1.22c1.33-1.03,2.24-0.64,3.12,0.6
		c1.38,1.94,2.35,2.1,4.41,0.87c2.37-1.42,2.36-1.41,4.49,0.63c0.26,0.25,0.55,0.5,0.88,0.65c2.33,1.07,3.96,2.93,5.53,4.86
		c1.61,2,4.08,2.6,6.24,3.61c1.53,0.72,2.88,1.38,3.64,2.99c1,2.12,2.27,3.98,4.77,4.63c2.07,0.54,3.07,2.64,4.9,3.59
		c0.59,0.3,0.5,0.98,0.15,1.61c-0.55,1-1.37,1.7-2.31,2.26c-1.71,1.03-2.41,2.49-2.56,4.48c-0.18,2.46-1.61,4.46-3.45,5.94
		c-1.4,1.13-2.64,2.27-3.5,3.84c-0.65,1.19-1.54,2.19-2.76,2.81c-1.16,0.58-1.76,1.67-2.38,2.67c-0.74,1.19,0.01,2.21,0.99,2.74
		c1.42,0.77,1.71,1.9,1.65,3.33c-0.05,1.15,0.04,2.31,0,3.46c-0.05,1.52,0.51,2.73,1.72,3.61c0.93,0.68,1.52,1.54,1.58,2.71
		c0.12,3.46-0.55,6.87-0.81,10.3c-0.22,2.92-1.82,5.72-3.85,7.88c-1.27,1.36-3.47,1.58-5.14,2.58c-1.94,1.15-2.33,1.51-0.91,3.31
		c2.76,3.51,3.61,7.92,5.89,11.64c0.69,1.13,0.62,2.3-0.24,3.39c-1.83,2.31-3.11,5.09-5.94,6.5c-0.74,0.37-1.08,1.16-1.19,1.96
		c-0.18,1.3-0.91,2.06-2.11,2.47c-1.11,0.38-1.84,1.14-2.13,2.3c-0.18,0.71-0.52,1.35-0.93,1.97c-1.02,1.52-1.22,3.18-0.55,4.86
		c0.7,1.78,0.32,3.04-0.92,4.6c-1.93,2.43-4.14,3.56-7.17,3.44c-1.84-0.07-3.13,0.94-3.74,2.66c-0.56,1.58-1.67,2.27-3.18,2.91
		c-2.9,1.22-5.69,2.67-8.81,3.3c-0.84,0.17-1.5,0.79-2.03,1.47c-1.15,1.48-2.59,2.55-4.42,3.03c-2.11,0.56-3.18,1.89-3.07,4.1
		c0.08,1.61-0.7,2.56-2.26,2.76c-1.47,0.18-3.13,2.31-4.7,1.63c-1.38-2.25-3.23-3.78-5.66-3.64c-2.58,0.15-5.13,0.13-7.72,0.1
		c0.42-2.03,1.2-3.86,2.86-5.2c0.23-0.19,0.51-0.33,0.76-0.5c2.85-1.91,3.11-4.27,0.47-6.48c-1.94-1.63-3.67-3.51-5.74-5
		c-1.44-1.03-2.58-2.32-3.49-3.88c-1.26-2.15-3.33-2.75-5.73-2.75c-3.87,0-7.7,0.42-11.55,0.66c-2.35,0.15-4.69-0.45-7.05-0.38
		c-0.36,0.01-0.72-0.12-0.94-0.45c0.06-0.96-0.21-1.78-0.97-2.43c-1.14-0.97-1.4-2.9-0.53-3.72c1.5-1.42,2.61-1.37,3.93,0.31
		c0.8,1.02,1.92,1.51,3.03,1.92c1.27,0.47,2.64,0.55,3.78,1.5c0.76,0.63,1.52-0.14,1.86-0.87c0.52-1.13,1.33-1.98,2.17-2.86
		c1.89-1.96,1.29-4.47,1.15-6.76c-0.11-1.75,0.36-3.32,0.6-4.97c0.7-4.82,1.31-9.9-2.51-13.71c-2.69-2.68-3.7-6.19-5.77-9.12
		c-1.58-2.25-3.19-4.51-5.25-6.37c-1.47-1.33-1.95-3.33-3.35-4.71c-0.33-0.32-0.45-0.95-0.03-1.33c0.39-0.35,0.57,0.24,0.85,0.39
		c1,0.51,1.84,0.24,2.38-0.61c0.75-1.2,1.15-2.55,0.68-3.98c-1.13-3.46-1.04-3.62,2.58-4.34C61.68,76.36,61.97,76.25,62.26,76.16z"
		/>
	<path id="Carabayllo" class="st0" d="M208.82,186.22c-3.78,0.01-7.01,1.07-8.84,4.73c-0.33,0.66-0.76,1.31-1.41,1.63
		c-3.11,1.55-5.52,4.03-7.61,6.6c-3.21,3.96-7.85,8.01-11.33,11.59c-0.56,0.58-1.11,0.72-1.94,0.41c-2.47-0.92-4.75-0.67-6.54,1.51
		c-1.25,1.52-2.98,1.29-4.56,1.02c-2.97-0.5-5.12,0.8-7.01,2.79c-1.45,1.53-4.65,0.51-5.63-1.33c-1.01-1.87-1.91-3.76-2.64-5.76
		c-0.55-1.49-2.09-1.92-3.4-1.02c-1.16,0.8-1.92,0.88-1.96-0.82c-0.03-1.47-0.89-3.54-1.47-4.78c-0.35-0.74-1.56,1.24-2.41,1.45
		c-0.64,0.16-0.88-1.71-1.34-2.57c-0.49-0.92-0.99-1.86-0.45-2.91c0.22-0.42,0.56-0.79,0.88-1.15c1.66-1.86,1.37-3.04-1.02-3.69
		c-0.83-0.23-1.11-0.68-1.07-1.41c0.06-1.03,0.1-2.06,0.29-3.07c0.45-2.41-0.44-4.13-1.83-6.19c-2.06-3.04-5.52-3.52-7.96-5.66
		c-0.31-0.27-0.77-0.46-0.96-0.79c-1.63-2.89-4.33-4.66-6.78-6.71c-0.77-0.64-1.17-1.7-1.34-2.72c-0.33-2.08-0.69-4.14,0.35-6.21
		c0.82-1.62,0.18-3.56-1.36-4.63c-1.31-0.9-0.48-2.13-0.61-3.17c-0.1-0.79,0.88-0.55,1.42-0.72c0.75-0.23,1.51-0.45,2.22-0.78
		c0.77-0.36,1.43-1,2.22-1.22c2.67-0.73,4.8-1.85,5.6-4.87c0.32-1.22,1.91-1.36,3.16-1.3c1.68,0.08,3.33-0.08,4.7-1.07
		c1.76-1.26,2.99-3.06,4.05-4.91c0.46-0.8,0.13-1.78-0.33-2.61c-0.96-1.73-0.82-3.35,0.43-4.9c0.3-0.37,0.65-0.83,0.67-1.26
		c0.06-1.48,1-2.08,2.21-2.54c1.4-0.53,2.43-1.41,2.29-3.1c-0.06-0.66,0.28-1.06,0.82-1.26c2.65-0.97,3.72-3.44,5.26-5.48
		c0.22-0.29,0.38-0.64,0.63-0.89c1.41-1.36,1.39-3.01,0.57-4.51c-2.18-3.99-3.19-8.59-6.23-12.13c-0.78-0.91-0.43-1.25,0.53-1.61
		c1.67-0.62,3.03-1.9,4.94-2.13c1.03-0.12,1.41-1.4,1.92-2.29c2.01-3.48,3.8-6.99,3.26-11.25c-0.15-1.22,0.29-2.51,0.46-3.77
		c0.92,0.53,1.89,0.58,2.76,0.01c1.63-1.07,2.91-0.37,4,0.8c1.16,1.25,2.53,1.9,4.19,1.77c1.84-0.14,3.25,0.88,4.73,1.65
		c1.22,0.62,2.18,0.46,3.14-0.42c0.49-0.44,1.08-0.78,1.59-1.2c1.29-1.06,2.48-1.92,3.83,0.02c0.42,0.61,1.4,0.45,2.05,0.13
		c0.96-0.47,1.62-0.25,2.18,0.56c0.6,0.87,0.76,1.78,0.11,2.7c-0.25,0.35-0.57,0.64-0.79,1c-1.02,1.75-2.15,3.63-0.25,5.4
		c2.76,2.58,1.97,5.33,0.73,8.19c-0.51,1.17-1.02,2.32-1.85,3.32c-0.8,0.96-1.16,2.05-0.15,3.11c0.98,1.02,2.3,0.92,3.12,0.09
		c1.62-1.63,2.94-0.69,4.07,0.33c0.82,0.74,1.68,1.34,2.61,1.9c0.93,0.56,1.89,1.13,2.09,2.37c0.05,0.28,0.22,0.74,0.41,0.78
		c2.84,0.6,2.22,3.64,3.69,5.18c1.62,1.7,2.55,4.22,5.74,4.01c1.89-0.12,3.63,1,4.87,2.64c0.89,1.17,1.84,1.09,2.91,0.08
		c1.35-1.28,3.32-1.27,4.9-2.13c0.88-0.48,1.73-0.86,2.16-1.8c0.21-0.46,0.5-0.79,0.94-1.06c2.42-1.53,3.05-3.56,1.95-6.35
		c-0.25-0.64-0.73-1.39,0.2-1.65c2.53-0.71,4.73-2.37,7.57-2.28c2.1,0.07,3.93,0.43,5.46,1.9c1.76,1.69,3.86,1.67,5.94,1.01
		c1-0.32,1.21-0.08,1.46,0.77c0.53,1.81,1.94,3.18,2.61,4.96c0.35,0.92,1.49,0.72,2.28,0.67c1.18-0.07,2.15,0.05,2.78,1.2
		c0.13,0.25,0.42,0.53,0.68,0.57c3.03,0.49,6.09,1.16,9.06-0.21c0.52-0.24,1-0.44,1.54-0.4c2.94,0.21,5.78-0.33,8.56-1.23
		c0.69-0.22,1.26-0.13,1.91,0.16c2.44,1.07,4.94,1.94,7.66,1.97c0.3,0,0.69-0.05,0.89,0.11c1.71,1.35,3.96,1.75,5.58,3.25
		c0.76,0.7,1.1,1.14-0.01,2.03c-2.07,1.67-3.83,3.68-5.1,6.07c-1.54,2.91-4.28,4.6-7.14,5.5c-4.65,1.46-8.4,3.73-10.75,8.06
		c-0.55,1.01-1.38,1.79-1.89,2.85c-0.44,0.92-1.35,1.46-2.54,1.45c-3.09-0.04-6.19,0-9.28,0.03c-2.11,0.02-3.86-0.73-5.36-2.22
		c-1.36-1.35-2.29-1.3-3.66,0.11c-0.91,0.94-1.84,1.08-2.9,0.33c-3.24-2.28-6.38-1.66-9.49,0.29c-1.11,0.7-1.8,1.74-1.87,2.98
		c-0.11,2.14-0.73,4.33,0.47,6.41c0.27,0.47,0.19,1.19,0.17,1.79c-0.05,1.53,0.49,2.75,1.82,3.52c1.11,0.64,0.88,1.22,0.06,1.88
		c-1.47,1.18-3.11,1.9-4.94,2.47c-2.97,0.93-6.17,1.26-8.7,3.58c-0.81,0.74-2.54,1.65-4.11,0.59c-0.6-0.41-1.31-0.38-1.82,0.22
		c-0.67,0.8-1,1.84-0.41,2.7c1.7,2.51,0.69,4.67-0.54,6.92C210.54,182.15,208.92,183.84,208.82,186.22z"/>
	<path id="Comas" class="st0" d="M143.18,203.76c0.65,1.5,1.45,2.65,1.56,4.19c0.13,1.79,1.93,2.47,3.56,1.39
		c0.98-0.65,1.54-0.56,1.93,0.5c0.71,1.94,1.67,3.75,2.61,5.58c1.34,2.61,5.96,3.16,8.08,1.09c1.44-1.4,3.12-2.73,5.45-2.44
		c2.6,0.33,4.99,0.21,6.86-2.2c1.01-1.3,4.59-0.9,5.73,0.34c0.52,0.56,0.84,1.46,0.47,2.02c-1.21,1.79-0.86,3.55-0.19,5.33
		c0.44,1.17-0.02,1.5-1.11,1.43c-2.78-0.19-4.13,1.59-5.19,3.77c-0.23,0.48-0.33,1.22-0.71,1.41c-3.18,1.61-4.99,5.18-8.66,6.08
		c-1.08,0.27-1.55,0.72-1.2,2.04c0.51,1.88,0.16,3.86,0.21,5.8c0.02,0.72-0.41,1.18-0.99,1.37c-2.4,0.81-3.76,2.72-5.12,4.67
		c-0.22,0.31-0.31,0.82-0.93,0.58c-1.92-0.72-3.15,0.51-4.15,1.76c-0.86,1.08-1.78,1.54-3.1,1.44c-2.82-0.21-5.21,0.39-6.28,3.42
		c-0.08,0.22-0.25,0.41-0.41,0.59c-0.8,0.96-1.92,2.03-3,1.73c-1.21-0.34-0.92-1.92-0.94-3.06c-0.05-3.03-1.38-5.78-1.87-8.72
		c-0.12-0.73-0.8-0.81-1.39-0.97c-1.33-0.37-1.67-1.24-1.94-2.62c-0.76-3.87-0.52-7.78-0.86-11.65c-0.25-2.85-0.35-5.71-0.12-8.53
		c0.16-2.03,1.63-3.6,2.92-5.13c0.56-0.66,1.14-1.27,0.86-2.25c-0.06-0.2-0.02-0.55,0.12-0.66c1.61-1.39,2.66-3.31,4.21-4.7
		C140.81,206.28,142,205.21,143.18,203.76z"/>
	<path id="Independencia" class="st0" d="M145.35,279.31c-0.84-0.59-1.61-3.91-3.74-4.84c-0.73-0.32-1.41,0.15-2.11,0.26
		c-1.94,0.3-2.02,0.02-2.19-1.88c-0.28-3.14-0.43-6.33-1.68-9.3c-0.67-1.59-0.16-3.24-0.22-4.85c-0.03-0.86,0.83-0.67,1.38-0.81
		c2.78-0.72,5.14-2.22,6.47-4.72c1-1.87,2.37-2.54,4.22-2.44c2.14,0.12,3.87-0.23,5.19-2.19c0.77-1.14,2.01-1.75,3.32-0.38
		c0.72,0.74,0.95,1.33,0.35,2.34c-1.25,2.07-2.26,4.24-0.32,6.51c0.31,0.36,0.32,0.83,0.2,1.22c-0.73,2.4-0.71,4.92-0.87,7.36
		c-0.17,2.71-1.54,4.08-3.37,5.85C149.68,273.65,147.63,275.66,145.35,279.31z"/>
	<path id="Puente_Piedra" class="st0" d="M102.44,166.32c1.16-0.33,1.81-0.68,2.98-0.96c2.43-0.59,3.09-1.11,2.99-3.53
		c-0.08-2.05,0.8-3.02,2.6-3.47c1.96-0.49,3.47-1.62,4.67-3.22c0.39-0.52,1.39-1.94,2.05-1.73c0.67,0.22,0.28,1.06,0.27,1.62
		c-0.01,1.09,0.21,1.91,1.28,2.56c1.16,0.71,1.23,1.97,0.7,3.2c-1.43,3.35-0.77,6.55,0.91,9.54c0.67,1.2,1.99,2.16,3.1,2.88
		c1.43,0.93,2.49,1.97,3.31,3.4c0.87,1.52,2.36,2.54,3.79,3.2c2.4,1.11,4.5,2.31,6.12,4.51c1.04,1.4,1.7,2.64,1.37,4.37
		c-0.2,1.07-0.36,2.16-0.42,3.24c-0.09,1.63,0.47,2.92,2.26,3.19c1.24,0.19,0.33,1.37-0.12,1.97c-2.25,3.06-2.26,3.66,0.31,6.85
		c0.57,0.71-0.06,0.95-0.34,1.1c-2.39,1.36-3.38,4.06-5.48,5.68c-0.32,0.25-0.78,0.68-0.74,0.98c0.24,2.04-1.42,3.06-2.27,4.51
		c-0.88,1.51-1.84,2.97-1.82,4.86c0.01,1.2-1.05,1.85-1.87,2.54c-0.84,0.7-1.12,1.58-1.47,2.59c-1.48,4.32-3.92,8.06-7.46,11.01
		c-0.88,0.74-1.94,0.88-2.96,0.55c0.04-1.93,0.47-3.97-1.51-4.89c-0.95-0.44-1.93-1.52-1.66-2.53c0.16-0.58-0.03-1.31-0.09-1.89
		c-0.08-0.86,0.15-1.33,1.05-1.54c1-0.24,1.84-1.06,1.97-1.97c0.34-2.25,1.57-3.65,2.41-5.62c0.35-0.82,0.38-1.66,0.28-2.5
		c-0.23-1.85,0.39-3.48,1.36-4.95c0.59-0.9,0.54-1.65,0.1-2.53c-0.81-1.6-0.93-3.52-2.27-4.89c-0.14-0.14-0.25-0.53-0.16-0.65
		c1.91-2.59-0.9-4.44-0.01-7.05c0.2-0.59-0.44-1.37-1.1-1.77c-2.19-1.31-2.59-3.74-2.52-6.11c0.06-2.06,0.02-3.23-2.42-4.23
		c-2.39-0.98-5.17-2.92-4.52-6.6c0.22-1.23-1.08-2.16-1.99-2.91c-0.78-0.64-0.95-1.6-0.43-2.34c1.37-1.94,2.16-2.77,0.17-4.07
		C103.82,168,103.62,166.85,102.44,166.32z"/>
	<path id="SJL" class="st0" d="M215.19,234.88c-2.14,2.65-4.62,4.75-8.13,5.33c-0.7,0.12-1.35,0.53-2.01,0.83
		c-2.71,1.27-3.37,2.43-2.84,5.31c0.2,1.08-0.04,1.93-0.42,2.94c-1.14,2.95-2.86,5.59-4.12,8.47c-0.24,0.54-0.62,1.07-1.05,1.46
		c-1.07,0.97-1.77,2.1-2.11,3.51c-0.33,1.39-1.17,2.45-2.27,3.41c-2.4,2.09-2.28,3.97,0.16,6c1.17,0.97,2.42,1.84,3.79,2.48
		c2.83,1.31,3.87,4.07,5.27,6.48c0.76,1.31-0.75,3.15-2.26,2.91c-1.2-0.2-2.24,0.07-3.36,0.44c-3.29,1.09-6.62,2.03-9.97,0.12
		c-0.59-0.33-1.29-0.46-1.92-0.07c-3.11,1.92-6.65,1.54-10.05,1.9c-1.73,0.18-3.19,1.08-4.77,1.5c-2.58,0.69-3.69,3.06-4.21,5.11
		c-0.9-0.57-1.11-1.36-1.37-2.08c-0.24-0.65-0.53-1.2-1.16-1.55c-1.76-1-2.03-3.38-0.49-4.68c0.49-0.42,1.06-0.85,0.86-1.46
		c-0.6-1.77-0.29-3.75-1.54-5.35c-0.88-1.13-1.5-2.76-2.35-3.84c-1.39-1.76-0.97-4.25-2.82-5.68c-0.47-0.36-0.35-0.99-0.01-1.48
		c0.77-1.09,0.91-2.35,0.9-3.62c0-1.22,0.03-2.41,0.36-3.6c0.41-1.45,0.36-2.75-0.65-4.1c-1.09-1.44-0.15-2.99,0.7-4.18
		c0.83-1.17,0.98-2.27,0.27-3.35c-0.57-0.87-0.3-1.42,0.2-2.06c1.16-1.46,2.15-3.02,4.09-3.7c1.42-0.5,1.66-2.62,1.4-4.29
		c-0.07-0.47,0.04-0.98-0.02-1.45c-0.35-2.84,0.01-4.86,3.27-6.22c2.2-0.92,4.48-2.28,6.65-3.72c0.23-0.16,0.44-0.45,0.52-0.72
		c0.82-3.1,1.93-4.27,5.01-4.32c2.14-0.03,1.94-0.11,1.16-2.08c-0.6-1.5-0.73-3.14,0.65-4.92c0.31-0.4,0.39-1.28,0.16-1.74
		c-0.98-2.01,0.36-3.07,1.64-3.98c2.22-1.58,3.99-3.7,6.37-5.1c1.23-0.73,1.59-2.28,2.62-3.22c2.62-2.39,4.87-5.21,8.08-6.93
		c0.51-0.27,1.01-0.77,1.24-1.29c1.58-3.57,4.68-4.59,8.17-4.98c0.02,2.37,1.82,3.48,3.46,4.52c2.32,1.48,4.55,1.73,7.22,0.02
		c4.76-3.03,10.22-3.34,15.73-2.72c1.04,0.12,1.45,0.71,0.66,1.58c-1.83,2.02-1.72,4.15-0.47,6.35c0.46,0.82,0.3,1.22-0.53,1.7
		c-1.61,0.93-3.26,1.82-4.47,3.32c-0.53,0.66-1.3,0.53-2.02,0.56c-2.06,0.09-2.98,0.88-2.93,2.87c0.07,2.83-1.06,5.34-1.92,7.91
		c-0.35,1.03-0.52,1.96,0,2.96c0.68,1.32,0.7,2.58-0.55,3.6c-1.05,0.86-0.76,1.47,0.12,2.31c2.8,2.67,2.77,2.73-0.49,4.83
		c-1.22,0.79-2.48,1.5-3.73,2.23C216.8,230.63,215.6,232.49,215.19,234.88z"/>
	<path id="Cieneguilla" class="st0" d="M342.02,272.27c0.73,1.37-0.08,2.38-0.34,3.44c-0.74,3.01-0.51,6.16-1.32,9.08
		c-0.86,3.12-1.48,6.19-1.41,9.4c0.02,0.82-0.23,1.79,0.79,2.23c1.06,0.46,1.86-0.16,2.6-0.83c0.27-0.24,0.51-0.53,0.71-0.83
		c0.66-1.01,1.24-1.42,2.58-0.68c2.12,1.16,4.19,0.15,5.07-2.11c0.7-1.82,1.32-2.07,2.66-0.65c1.87,2,4.11,3.55,6.07,5.43
		c1.85,1.77,4.07,3.12,5.66,5.23c0.72,0.96,2.17,1.26,3.23,1.78c2.67,1.29,4.42,3.38,6.32,5.46c1.14,1.25,2.06,2.4,2.28,4.23
		c0.29,2.43,2.63,3.6,4.07,5.31c0.27,0.32,0.9,0.38,1.01,0.93c0.65,3.29,2.84,5.49,5.3,7.5c0.45,0.36,0.84,0.78,0.41,1.38
		c-0.58,0.83-0.83-0.09-1.25-0.24c-1.96-0.72-3.25-2.21-4.52-3.74c-0.41-0.5-1.02-0.95-1.55-0.83c-2.14,0.48-4.02-0.48-5.9-1.08
		c-1.78-0.57-3.72-1.2-4.52-3.33c-0.73-1.94-2.61-2.34-3.98-0.81c-1.28,1.43-2.95,2.53-3.7,4.41c-0.19,0.47-0.43,0.46-0.96,0.22
		c-1.39-0.63-2.86-0.99-4.1,0.4c-0.33,0.37-0.99,0.44-1.14,0.2c-0.82-1.28-2.47-0.79-3.44-1.74c-0.55-0.55-1.39-0.44-1.78,0.15
		c-0.65,0.99-1.66,1.58-2.39,2.45c-0.53,0.63-0.96,1.23-1.89,1.13c-0.16-0.02-0.41,0.05-0.5,0.17c-0.8,1.06-1.84,2.04-2.27,3.24
		c-0.44,1.24-0.23,2.48,0.85,3.77c1.02,1.23,1.16,3.19,1.69,4.84c-1.36,1.73-2.82,3.38-4.16,5.13c-0.45,0.58-1.26,0.7-2,0.76
		c-2.07,0.16-3.84,0.88-5.37,2.37c-1.48,1.45-3.65,1.55-5.46,2.38c-1.54,0.71-3.15,1.28-4.56,2.25c-0.51,0.35-1.06,0.64-1.68,0.63
		c-2.41-0.05-4.79,0.47-7.25,0.04c-2.39-0.42-4.85-0.34-6.88,1.43c-0.23,0.2-0.51,0.42-0.79,0.44c-2.43,0.13-4.59,1.61-7.06,1.42
		c-3.63-0.28-7.25,0.75-10.88,0.05c-0.29-0.06-0.64-0.06-0.9,0.09c-2.9,1.69-6.41,1.24-9.38,2.73c-1.34,0.67-2.82,0.63-4.28,0.24
		c-0.93-0.24-1.73-0.7-2.09-1.6c-0.69-1.75-1.95-3.08-3.18-4.4c-2.66-2.84-4.21-6.35-6.02-9.7c-0.44-0.8-0.74-1.72-1.51-2.23
		c-2.05-1.36-3.36-3.36-4.43-5.45c-0.88-1.73-1.91-3.35-2.86-5.02c-0.45-0.8-0.91-1.56-1.58-2.2c-0.88-0.85-1.66-1.8-2.19-2.89
		c-1.27-2.57-2.58-5.09-4.79-7.01c-0.23-0.2-0.44-0.46-0.51-0.74c-0.79-3.03-2.99-5.22-4.59-7.77c-1.81-2.88-1.5-4.24,1.59-5.74
		c3.27-1.59,6.48-3.32,9.89-4.63c1.03-0.4,1.95-0.95,2.77-1.71c3.54-3.28,7.68-4.17,12.32-3.02c3.01,0.75,6.12,0.87,9.18,1.34
		c1.32,0.2,2.66,0.29,3.93,0.72c2.01,0.67,3.87,0.26,5.59-0.76c1.77-1.05,3.56-2.08,5.13-3.44c1.2-1.04,2.61-1.77,4.02-2.48
		c2.13-1.06,4.18-2.23,5.95-3.84c0.5-0.45,1.07-0.87,1.75-0.92c4.2-0.36,8.09-2.17,12.29-2.53c0.66-0.06,1.32-0.16,1.99-0.18
		c2.41-0.09,4.45-1.55,5.19-3.82c0.79-2.44,2.51-3.97,4.77-4.91c1.4-0.58,2.84-1.04,4.17-1.8c1.02-0.58,2.16-0.74,3.34-0.76
		C336.95,270.22,340.29,269.06,342.02,272.27z"/>
	<path id="Lurigancho_-Chosica" class="st1" d="M347,265.6c-0.09-0.09-0.17-0.18-0.27-0.24c-3.07-1.83-5.18-4.12-5.73-8
		c-0.33-2.35-1.63-4.66-2.43-7.02c-0.2-0.58-0.5-1.11-0.92-1.56c-2.02-2.16-2.75-2.94-5.03-0.32c-1.44,1.66-3.52,1.84-5.51,1.94
		c-1.6,0.09-3.11,0.39-4.59,0.99c-1.74,0.71-3.53,1.26-5.46,1.31c-1.43,0.04-2.68,0.64-3.82,1.53c-1.38,1.07-2.9,1.52-4.73,1.5
		c-2.61-0.04-5.14,0.68-7.6,1.63c-3.16,1.23-6.46,1.9-9.85,2.24c-2.99,0.3-6.09,0.03-8.92,1.39c-0.77,0.37-1.66,0.35-2.5,0.48
		c-1.59,0.24-3.07,0.7-4.2,1.96c-0.67,0.75-1.55,1.09-2.54,1.29c-2.18,0.45-3.09,1.35-3.24,3.55c-0.13,1.98-1.13,2.97-2.94,3.38
		c-0.83,0.19-1.6,0.55-2.38,0.89c-3.88,1.69-7.99,1.91-12.12,1.72c-1.78-0.08-3.37,0.37-4.95,0.95c-2.22,0.82-4.44,1.61-6.77,2.11
		c-2.38,0.51-4.21,2.13-6.23,3.32c-1.74,1.02-3.45,1.64-5.49,1.53c-3.1-0.17-6.07,0.18-9.06,1.4c-2.5,1.02-5.43,0.69-8.09,0.14
		c-2.61-0.54-5.16-0.62-7.74-0.17c-1.04,0.18-1.51,0.13-1.62-1.14c-0.29-3.49-2.31-6.03-4.97-8.07c-1.34-1.03-2.97-1.66-4.26-2.79
		c-1.88-1.65-1.99-2.99-0.24-4.74c1.27-1.28,2.24-2.7,2.71-4.45c0.16-0.59,0.44-1.14,0.84-1.6c3.04-3.5,4.62-7.79,6.49-11.92
		c0.43-0.96,0.3-2.05,0.11-3.06c-0.33-1.71,0.4-2.8,1.8-3.61c0.95-0.55,1.96-1,3.01-1.27c2.78-0.73,5.18-2.04,7.09-4.22
		c0.27-0.31,0.57-0.65,1.07-0.58c1.74,1.03,3.14,2.28,3.82,4.35c0.56,1.7,2.28,2.86,2.09,5.02c-0.09,1.04,1.86,1.31,2.53,0.2
		c0.81-1.33,2.3-1.51,3.31-2.45c0.12-0.11,0.43-0.24,0.49-0.18c1.45,1.38,3.66,0.55,5.14,1.8c0.85,0.72,1.87,0.68,2.72,0.17
		s1.72-0.63,2.61-0.55c1.15,0.11,2.01-0.35,2.75-1.12c1.84-1.91,4.04-2.9,6.71-3.23c1.49-0.18,2.86-1.17,4.34-1.63
		c2.1-0.66,3.77-2.24,6.05-2.53c1.39-0.17,2.29-1.26,3.18-2.27c1.96-2.2,4.25-2.34,6.4-0.25c1.35,1.31,2.54,2.76,4.68,2.73
		c0.63-0.01,0.93,0.71,1.34,1.15c1.12,1.19,2.24,0.99,2.64-0.6c0.27-1.07,0.78-1.87,1.55-2.58c0.4-0.38,0.83-0.86,0.71-1.42
		c-0.41-1.93,1.08-2.73,1.97-4.05c2.41-3.56,5.48-1.73,8.28-1.36c1.35,0.18,2.7,0.5,4.08,0.56c3.28,0.16,5.75-1.6,7.59-3.93
		c2.09-2.65,4.71-4.33,7.79-5.17c1.75-0.48,2.64-1.84,3.85-2.78c1.41-1.09,3.01-1.92,4.32-3.19c0.92-0.9,2.43-1.19,3.69-1.74
		c0.57-0.25,1.21-0.52,1.33-1.15c0.38-1.99,2.05-2.37,3.51-2.49c1.84-0.16,3.53-0.34,5.16-1.35c0.76-0.47,1.2-0.95,1.66-1.71
		c1.38-2.32,1.43-5.28,3.56-7.22c0.57-0.52,0.99-1.21,1.98-1.47c0.16,2.45,0.97,4.7,3.25,5.68c2.19,0.94,3.85,2.42,5.6,3.9
		c0.61,0.51,1.53,0.2,2.31,0.2c5.08-0.03,7.44,1.41,9.34,6.06c0.7,1.71,1.55,2.98,3.36,3.73c2.06,0.85,3.34,2.53,3.7,4.82
		c0.14,0.89,0.76,1.02,1.56,1.42c1.79,0.9,3.76,0.93,5.45,1.7c1.26,0.58,0.78,2.23,0.22,3.42c-0.4,0.84-1.38,1.51-0.71,2.64
		c0.68,1.09,1.61,1.96,2.66,2.67c2.78,1.87,4.99,4.32,6.95,7c0.66,0.9,1.38,1.67,2.39,2.16c1.57,0.75,1.8,2.65,3.1,3.67
		c0.32,0.25-0.31,0.83-0.62,1.18c-1.24,1.36-2.04,2.75-0.61,4.48c0.36,0.44,0.25,0.81-0.3,0.94c-2.99,0.71-4.76,3.13-7.05,4.84
		c-1.92,1.43-4.06,2.96-6.83,2.56c-1.4-0.2-2.46,0.75-3.26,1.7c-1.55,1.84-3.9,2.07-5.81,3.16c-0.52,0.29-0.95-0.09-1.35-0.28
		c-2.89-1.42-5.71-1.59-8.63,0C350.82,264.17,347.13,265.61,347,265.6z"/>
	<path id="Chaclacayo" class="st0" d="M303.46,282.85c0,0,1.28,1.28,5.19,0.43s3.91-0.94,4.17-1.11c0.26-0.17,3.57,0.17,6.3-0.68
		c2.72-0.85,3.4-1.62,4.09-3.23c0.68-1.62,0.68-3.74,3.4-4.77c2.72-1.02,4.68-2.21,6.98-2.98c2.3-0.77,7.74,0.26,7.74,0.26
		s-0.43-1.96,0.6-2.89c1.02-0.94,3.7-2.04,4.6-2.33c0.57-0.18-4.09-1.82-5.45-5.33c-1.59-4.1-2.3-7.91-2.3-7.91
		s-0.68-3.15-1.96-3.66c-1.28-0.51-1.19-1.87-2.13-1.62c-0.94,0.26-1.7,3.32-3.74,3.57c-2.04,0.26-3.74-0.17-6.04,0.68
		c-2.3,0.85-0.68,0.61-4.26,1.02c-3.57,0.42-3.66-0.09-5.02,0.6s-3.06,2.47-4.43,2.81c-1.37,0.34-4.26,0.17-6.55,0.85
		s-6.04,2.81-8.26,2.89s-3.57,1.02-7.23,0.51c-3.66-0.51-5.11,0.85-6.72,1.45c-1.62,0.6-3.49-0.17-4.34,0.34s-2.81,3.06-3.57,2.98
		c-0.77-0.09-2.04,0.51-2.04,0.51s0.93,2.73,2.81,3.06s3.66-0.6,4.51,0.85s1.36,2.47,2.13,2.55s1.96-0.17,4.34,0.51
		c2.38,0.68,0.53-3.81,4.09-2.55c3.55,1.25,0.26,4.43,5.7,4.26c2.13-0.07,3.66-1.28,4.94,0.17
		C302.27,275.53,303.46,282.85,303.46,282.85z"/>
	<path id="Ate" class="st0" d="M207.33,283.85c3.37,0.56,6.73,1.4,10.21,1.06c0.78-0.08,1.64,0.06,2.32-0.34
		c2.87-1.73,6.04-1.82,9.17-1.51c3.4,0.34,5.86-1.6,8.21-3.3c2.12-1.53,4.58-1.39,6.72-2.45c1.02-0.51,2.19-0.71,3.22-1.2
		c2.88-1.37,5.94-0.9,8.95-0.95c3.26-0.06,6.34-0.75,9.27-2.17c0.22-0.11,0.44-0.26,0.67-0.29c3.06-0.34,4.78-1.82,4.52-5.13
		c-0.06-0.76,0.59-1.31,1.22-1.7c0.26-0.16,0.68-0.48,0.84,0.1c0.71,2.47,2.78,3.13,4.9,3.67c1.24,0.32,2.32,0.63,3.15,1.83
		c0.81,1.19,2.38,0.98,3.7,1.1c1.4,0.13,2.55,0.06,3.09-1.72c0.31-1.01,1.67-1.39,2.72-1.55c0.97-0.15,0.95,0.98,1.21,1.56
		c0.68,1.51,1.68,2.32,3.39,2.09c0.24-0.03,0.49-0.01,0.73,0.03c1.6,0.24,3.75-0.71,4.72,0.57c1.42,1.88,2.34,4.19,2.7,6.66
		c0.35,2.42-0.27,4.23-2.49,5.42c-0.74,0.4-1.34,1.09-2.1,1.43c-4.02,1.78-7.42,4.55-11.09,6.88c-1.76,1.12-3.58,1.58-5.7,0.88
		c-2.83-0.93-5.85-1.06-8.78-1.33c-2.95-0.27-5.74-1.4-8.78-1.13c-3.02,0.27-5.66,1.23-7.83,3.3c-0.9,0.86-1.88,1.45-3.01,1.95
		c-3.48,1.54-6.93,3.17-10.37,4.81c-0.64,0.31-1.21,0.81-1.75,1.29c-0.85,0.75-1.41,2.1-2.88,0.65c-0.54-0.53-1.49,0.15-2.22,0.42
		c-1.56,0.57-3.11,1.56-4.71,0.04c-0.15-0.14-0.5-0.23-0.68-0.16c-3.1,1.17-6.98,0.38-9.26,3.66c-0.64,0.92-1.62,0.99-2.65,1.25
		c-2.39,0.61-4.41,0.7-6.03-1.56c-0.5-0.7-1.45,0.41-2.21-0.17c-0.91-0.7-1.87-1.32-2.33-2.45c-0.53-1.3-1.52-1.48-2.67-0.91
		c-0.86,0.43-1.68,0.96-2.5,1.46c-0.85,0.52-1.81,0.92-2.75,0.79c-2.04-0.29-3.63,0.67-5.29,1.53c-0.27,0.14-0.5,0.41-0.77,0.46
		c-4.14,0.76-5.03,4.09-5.76,7.43c-0.27,1.25-1.31,1.5-2,2.15c-2.22,2.09-2.61,2.24-4.52-0.26c-1.26-1.65-1.67-3.11-0.98-5.15
		c0.88-2.63,0.72-3.74-1.98-4.4c-0.06-0.01-0.12-0.02-0.18-0.05c-0.96-0.42-2.63-0.88-2.82-2.06c-0.12-0.73,3.61-1.88,4.4-1.43
		c1.22,0.7,2.73,0.91,3.48,2.42c0.51,1.02,1.61,0.82,2.41,0.33c3.5-2.16,7.77-2.44,11.21-4.73c3.43-2.28,7.49-2.96,11.26-4.39
		c2.71-1.03,3.24-2.44,1.77-4.89c-0.69-1.14-0.6-2.31-0.61-3.51c-0.02-3.06-1.92-4.55-4.85-3.77c-0.58,0.16-1.16,0.35-1.74,0.53
		c-0.78,0.24-1.88-0.97-2.08-1.62c-0.2-0.67,0.05-0.97,0.74-1.13C203.41,283.81,205.55,283.4,207.33,283.85z"/>
	<path id="Pachacamac" class="st0" d="M347.08,339.04c0.87,0.85,1.91,0.92,3.04,0.77c4.15-0.54,6.17-0.26,8.16,5.04
		c0.38,1.01,1.21,0.93,1.89,1.12c1.94,0.55,2.9,2.69,5.05,3.02c-2.81,0.73-4.22,3.12-6.06,4.95c-1.22,1.21-1.07,2.35,0.21,3.6
		c0.38,0.37,0.9,0.65,0.84,1.31c-0.29,3.14,1.63,5.08,3.45,7.31c1.21,1.48,3.4,1.66,4.04,3.63c0.07,0.22,0.73,0.37,0.71,0.48
		c-0.35,2.14,1.48,2.52,2.64,3.52c0.87,0.75,1.67,0.95,2.63,0.51c0.65-0.29,1.17-0.27,1.86-0.06c1.07,0.33,1.45,0.51,0.61,1.62
		c-1.02,1.33,0.59,2.29,0.8,3.48c-0.43,0.38-0.94,0.31-1.37,0.09c-1.89-0.97-3.93-1.62-5.71-2.78c-2.64-1.71-5.69-1.69-8,0.43
		c-1.25,1.14-2.34,1.42-4.06,1.08c-1.9-0.38-3.75-0.97-5.65-1.29c-1.43-0.24-2.52-0.87-3.17-2.15c-1.12-2.22-2.96-3.05-5.38-3.46
		c-2.53-0.42-5.13-0.58-7.56-1.76c-2.73-1.32-6.95,0.81-7.8,3.77c-0.55,1.94-1.34,3.26-3.61,3.39c-1.39,0.08-2.35,1.21-3.24,2.21
		c-1.15,1.28-2.43,2.13-4.25,2.04c-1.04-0.05-2.09,0.35-2.9,0.96c-1.94,1.45-4.2,2.38-6.1,3.92c-3.17,2.57-7,2.71-10.75,2.07
		c-3.09-0.52-6-0.6-8.92,0.58c-1.24,0.5-2.53,0.86-3.85,1.1c-1.19,0.22-1.8,0.9-1.92,2.08c-0.3,2.9-1.88,4.76-4.58,5.78
		c-1.14,0.43-2.21,1-3.2,1.71c-0.81,0.58-1.71,1.03-2.69,0.99c-1.97-0.09-3.46,0.95-5,1.92c-1.15,0.73-1.44,1.65-0.5,2.71
		c0.83,0.94,0.97,1.89,0.43,3.01c-0.45,0.95-0.21,1.87,0.15,2.81c0.53,1.39,0.1,2.03-1.46,2.78c-1.27,0.61-1.87,0.06-2.41-1.03
		c-0.99-2.03-1.54-2.15-3.47-0.93c-2.55,1.6-3.54,1.33-4.6-1.5c-0.55-1.46-1.3-2.5-2.78-3.13c-1.3-0.55-1.96-1.61-1.46-3.11
		c0.2-0.61,0.06-1.13-0.58-1.32c-2.72-0.8-4.06-3.38-6.25-4.86c-0.65-0.44-1.24-0.96-1.98-1.26c-2.94-1.21-4.45-4.75-3.08-7.62
		c1.53-3.22,2.75-6.59,4.73-9.59c0.62-0.94,0.61-1.82-0.1-2.68c-1.12-1.33-1.14-2.66-0.3-4.19c1.12-2.04,0.33-4.19-0.16-6.18
		c-0.51-2.09-1.74-3.79-3.95-4.68c-1.69-0.69-2.74-2.09-3.3-3.89c-0.71-2.27-1.92-4.32-3.23-6.29c-0.82-1.24-1.95-2.12-3.38-2.65
		c-1.52-0.57-2.75-1.55-3.41-3.1c-0.43-1.01-0.18-1.74,0.98-1.77c1.48-0.05,2.32-0.87,2.96-2.06c0.92-1.72,2.16-2.89,4.3-2.79
		c1.06,0.05,1.72-0.62,1.87-1.63c0.25-1.7,1.05-3.03,2.26-4.24c1.16-1.15,1.46-2.54,0.78-4.18c-0.73-1.76-0.27-2.36,1.69-2.65
		c2.93-0.43,3.39-1.97,2.4-4.77c-0.85-2.42-1.52-4.74-3.19-6.82c-0.87-1.09-0.43-2.94-0.15-4.44c0.09-0.48,0.33-0.95,0.87-1.07
		c0.6-0.14,0.83,0.36,1.11,0.75c1.57,2.2,3.54,4.16,4.18,6.92c0.05,0.23,0.2,0.46,0.39,0.61c3.71,3.05,4.77,7.95,8.02,11.4
		c2.07,2.19,3.11,5.28,4.71,7.91c0.28,0.47,0.52,1,0.94,1.33c3.65,2.82,5.1,7.13,7.35,10.89c0.63,1.06,1.49,1.91,2.24,2.85
		c1.24,1.55,2.7,2.93,3.52,4.83c0.7,1.63,3.39,2.72,5.4,1.81c3.36-1.52,7.22-1.11,10.42-3.05c0.37-0.22,0.82-0.28,1.24-0.17
		c3.73,0.92,7.49-0.19,11.22,0.15c0.86,0.08,1.7-0.13,2.46-0.56c1.03-0.58,2.11-0.91,3.29-0.9c0.69,0.01,1.36-0.16,1.87-0.62
		c1.85-1.7,4.09-1.77,6.34-1.43c2.3,0.35,4.6,0.19,6.9,0.23c0.61,0.01,1.24-0.06,1.75-0.42c2.78-1.94,6.22-2.5,9.05-4.15
		c2.74-1.6,5.38-3.06,8.5-3.73c1.22-0.26,1.72-1.63,2.39-2.64C344.91,339.88,345.62,338.88,347.08,339.04z"/>
	<path id="Lurín" class="st0" d="M266.61,455.1c-2.16-1.01-3.35-3.2-5.48-4.34c-2.12-1.13-4.08-2.57-6.44-3.21
		c-1.17-0.32-1.79-1.44-2.88-1.81c-3.02-1-5.81-2.55-8.82-3.63c-2.13-0.77-4.28-2.24-6.03-4.14c-1.57-1.72-3.24-3.52-5.39-4.67
		c-3.24-1.73-6.09-3.99-8.87-6.41c-1.61-1.4-3.8-2.07-5.59-3.32c-0.7-0.49-1.38-0.88-1.8-1.69c-0.5-0.97,2.48-1.14,2.01-0.5
		c1.21-0.5,2.5-0.77,3.69-1.3c3.11-1.39,4.95-3.92,6.1-6.99c0.64-1.71,1.43-3.21,3.28-3.87c1.02-0.36,1.51-1.17,1.74-2.17
		c0.18-0.77,0.29-1.56,0.55-2.3c0.8-2.34,1.71-4.51,4.52-5.2c1.26-0.31,2.51-0.98,3.28-2.17c0.76-1.18,1.74-1.09,2.62-0.33
		c1.37,1.19,2.96,2.13,4.09,3.58c0.19,0.24,0.35,0.51,0.62,0.66c1.56,0.88,2.94,1.78,2.78,3.97c-0.06,0.82,0.85,1.48,1.67,1.76
		c1.61,0.55,2.34,1.77,2.88,3.27c1,2.83,2.15,3.18,4.75,1.56c1.8-1.12,2.22-1.01,3.24,0.81c0.55,0.98,1,1.95,2.49,1.2
		c2.2-1.1,2.72-1.82,2.01-3.5c-0.38-0.89-0.49-1.75-0.13-2.64c0.45-1.1,0.42-2.09-0.38-3.05c-0.8-0.96-0.5-1.74,0.5-2.42
		c1.62-1.1,3.22-2.2,5.33-1.99c0.12,0.01,0.26,0.02,0.36-0.04c2.84-1.68,6.21-2.47,8.51-5.05c0.76-0.86,1.05-1.92,1.17-3.01
		c0.16-1.47,0.85-2.31,2.38-2.49c1.51-0.17,2.93-0.75,4.38-1.2c2.55-0.8,5.09-0.51,7.71-0.2c3.85,0.45,7.79,0.42,11.03-2.31
		c1.96-1.65,4.44-2.46,6.43-4.05c0.32-0.26,0.77-0.43,1.19-0.43c2.56,0.05,4.49-1.12,6.18-2.94c0.82-0.89,1.89-1.52,3.17-1.67
		c1.6-0.18,2.55-1.14,2.83-2.66c0.52-2.75,2.65-3.74,4.88-4.65c0.7-0.28,1.44-0.22,2.14,0.07c3.1,1.3,6.46,1.52,9.68,2.28
		c1.24,0.29,2.45,0.69,2.94,1.89c1.36,3.34,4.39,3.64,7.29,4.23c0.24,0.05-0.06-0.01,0.18,0.01c2.32,0.2,5.57-0.54,7.81-1.49
		c2.09-0.89,4.21-1.49,6.29,0.31c1.39,1.2,3.3,1.5,4.87,2.44c0.47,0.28,1.04,0.54,1.06,1.15c0.02,0.65-0.58,0.99-1.07,1.08
		c-2.69,0.47-4.51,2.54-6.86,3.62c-0.55,0.25-1.07,0.59-1.67,0.71c-1.36,0.27-2.29,1.04-2.87,2.28c-0.84,1.79-2.58,2.71-3.94,3.98
		c-1.68,1.57-2.74,3.33-2.81,5.68c-0.06,1.84-1.39,2.89-2.92,3.36c-2.68,0.83-4.95,2.5-7.41,3.71c-2.81,1.39-4.99,4-4.94,7.69
		c0.05,3.39-0.3,3.74-3.67,3.96c-1.22,0.08-2.07,0.55-2.61,1.65c-0.38,0.76-0.81,1.5-1.37,2.15c-1.13,1.32-2.45,2.04-4.3,1.8
		c-2.41-0.31-4.85-0.07-7.27-0.12c-0.92-0.02-1.78-0.1-2.61-0.62c-1.39-0.88-2.41-0.69-3.5,0.51c-0.29,0.32-0.56,0.67-0.69,1.06
		c-1.41,4.09-4.85,4.87-8.53,5.24c-1.38,0.14-2.77,0.24-4.17,0.29c-3.01,0.12-5.18,1.85-6.99,4.08c-0.76,0.94-1.41,1.97-2.1,2.97
		c-1.14,1.65-2.74,2.33-4.64,2.45c-3.32,0.21-5.83,1.49-8.39,3.9C275.54,446.23,271.64,451.26,266.61,455.1z"/>
	<path id="Punta_Hermosa" class="st0" d="M266.97,455.44c0.59,0.2,0.86-0.28,1.22-0.58c3.67-3.1,6.83-6.7,10.06-10.23
		c0.43-0.47,0.89-0.78,1.49-0.99c0.57-0.2,1.27-0.43,1.45-1.02c0.98-3.04,3.72-3.52,6.12-3.59c3.66-0.11,6.04-1.69,7.8-4.69
		c2.08-3.53,5.06-5.4,9.29-5.12c2.58,0.17,5.01-0.73,7.47-1.35c1.34-0.34,2.13-1.35,2.75-2.49c0.47-0.85,0.84-1.75,1.32-2.59
		c0.79-1.37,1.73-1.56,2.82-0.52c0.65,0.62,1.38,0.68,2.18,0.69c3.07,0.05,6.13-0.52,9.24,0.15c1.32,0.28,2.65-0.73,3.57-1.86
		c0.38-0.47,0.77-0.96,1.01-1.51c0.73-1.62,1.72-2.39,3.7-2.43c2.9-0.07,3.69-0.94,3.38-3.86c-0.35-3.32,1.62-5.27,3.46-7.41
		c0.15-0.18,0.38-0.4,0.59-0.41c2.92-0.21,4.75-2.69,7.42-3.47c2.23-0.65,3.74-2.01,3.72-4.7c-0.03-2.87,2.27-4.39,4.12-6.11
		c0.44-0.41,1.21-0.64,1.39-1.12c1.2-3.12,4.4-3.43,6.67-5.04c2.16-1.54,4.54-2.43,6.9-3.44c0.78-0.33,1.21-0.98,1.57-1.69
		c0.64,0.44,1.55,0.82,1.34,1.74c-0.45,1.92,0.82,2.9,1.95,3.94c1.28,1.17,2.09,2.55,1.85,4.29c-0.29,2.16,1.32,3.79,1.42,5.85
		c0.04,0.8,1.08,0.83,1.74,1.07l-0.01,0.11c-1.35,0.86-3.21,0.95-4.07,2.51c-1.46,2.66-2.75,5.39-5.23,7.38
		c-0.77,0.62-0.61,1.92-0.29,2.95c0.47,1.52,0.13,2.83-0.88,4.07c-1.03,1.27-1.85,2.7-3.06,3.83c-0.27,0.25-0.54,0.56-0.59,0.91
		c-0.47,3.12-2.91,4.49-5.27,5.86c-2.34,1.35-4.37,3.04-6.26,4.94c-1.49,1.49-3.12,2.69-5.34,2.8c-0.73,0.04-1.42,0.34-2.04,0.72
		c-4.29,2.66-8.18,5.82-11.71,9.42c-0.17,0.17-0.34,0.35-0.45,0.57c-1.87,3.66-5.04,5.14-8.92,4.8c-4.7-0.41-6.56,2.84-8.56,6.04
		c-0.42,0.67-0.68,1.43-1.36,1.89c-0.93,0.63-1.78,0.43-2.7-0.13c-1.71-1.03-2.56-0.86-3.64,0.81c-0.97,1.49-2.19,2.38-4.02,2.38
		c-1.23,0-2.19,0.69-3.05,1.46c-1.04,0.93-2.17,1.78-3.13,2.77c-1.53,1.58-3.25,2.48-5.42,3.01c-2.14,0.53-4.04,1.97-5.46,3.73
		c-1.87,2.33-3.81,4.55-6.34,6.19c-0.67,0.44-1.14,1.08-1.68,1.66c-0.63,0.67-1.34,1.08-2.2,0.32c-0.08-0.35-0.1-0.73-0.24-1.05
		c-1.72-4.05-2.98-4.27-5.71-0.9c-0.74-1.66-1.09-3.5-2.64-4.66c-0.25-0.19-0.28-0.49-0.19-0.82c0.07-0.28,0.13-0.79,0.01-0.85
		c-1.73-0.96-1.74-3.13-3.06-4.32c-0.65-0.59-0.88-0.89-0.4-1.76c1.02-1.85,0.02-4.81-2.05-5.21
		C268.09,458.02,267.54,456.87,266.97,455.44z"/>
	<path id="Punta_Negra" class="st0" d="M385.99,396.96c1.38,0.61,2.42,1.69,3.3,2.82c1.02,1.31,1.79,2.56,3.8,2.6
		c0.98,0.02,1.96,1.03,2.91,1.64c0.78,0.5,1.69,0.69,2.51,1.13c2.64,1.4,1.94,3.91,2.5,5.97c0.33,1.23-0.22,2.25-1.28,3.14
		c-1.81,1.52-2.02,3.38-0.84,5.4c0.23,0.4,0.13,0.57-0.04,0.94c-0.88,1.86-1.58,4.08-2.83,5.43c-1.82,1.95-1.58,4.04-2.14,6.18
		c-0.78,2.95-2.67,5.56-5.48,6.87c-1.17,0.55-2.36,1.5-3.89,1.46c-1.63-0.04-2.37,1.05-2.43,2.58c-0.08,2.24-0.18,4.49-0.09,6.72
		c0.04,1.18-0.34,2.02-1.22,2.64c-1.57,1.1-2.72,2.72-5.04,2.79c-1.42,0.04-1.22,2.02-1.73,3.09c-0.9,1.91-1.81,3.58-4.16,3.85
		c-0.69,0.08-1.12,0.56-1.21,1.19c-0.13,0.9-0.8,1.77-0.83,2.41c-0.08,1.91-1.59,2.88-2.24,4.36c-3.88,2-7.43,4.91-12.24,4.32
		c-3.03-0.37-5.89,0.46-8.74,1.35c-1.26,0.39-2.48,0.42-3.74-0.03c-1.99-0.71-3.94-0.55-5.79,0.52c-0.21,0.12-0.43,0.27-0.66,0.3
		c-2.48,0.38-4.3,1.72-5.69,3.78c-0.47,0.7-1.22,1.21-2.1,1.36c-3.91,0.68-6.99,2.8-9.36,5.83c-2.49,3.18-5.64,5.5-9.1,7.41
		c-2.76,1.52-4.48,4.02-6.5,6.26c-0.9-0.65-0.81-1.75-1.07-2.63c-0.55-1.88-1.48-3.33-3.07-4.52c-1.32-0.99-2.34-2.25-2.64-4.12
		c-0.3-1.86-1.03-3.58-3.1-4.55c-2.2-1.04-4.36-2.15-6.63-3.04c-1.43-0.57-1.4-1.91-1.27-3.2c2.12,0.07,3-1.81,4.46-2.79
		c2.06-1.37,3.84-3.05,5.29-4.95c1.37-1.79,3.07-3.06,4.86-4.29c0.45-0.31,0.91-0.7,1.45-0.73c3.08-0.15,5.03-2.23,7.01-4.18
		c1.82-1.79,3.71-3.29,6.42-3.35c1.18-0.02,1.72-0.99,2.3-1.86c1.2-1.79,1.73-1.91,3.54-0.83c1.55,0.92,2.91,0.64,3.81-1.03
		c0.99-1.83,2.26-3.43,3.5-5.07c0.87-1.14,1.87-1.65,3.22-1.69c0.49-0.01,0.99-0.09,1.45,0c3.39,0.65,5.89-1.36,8.56-2.84
		c0.21-0.12,0.45-0.27,0.53-0.49c1.09-3.26,4.02-4.92,6.32-7.07c1.97-1.85,4.35-3.26,6.67-4.69c0.26-0.16,0.55-0.32,0.85-0.32
		c3.05-0.05,5.2-1.84,7.2-3.82c2.35-2.33,5.11-4.07,7.88-5.83c1.45-0.92,2.39-2.15,2.86-3.83c0.59-2.12,2.49-3.38,3.67-5.13
		c1.06-1.57,1.69-2.97,1.06-4.88c-0.58-1.75,0.29-3.09,1.77-3.98c1.16-0.7,1.97-1.63,2.25-2.94c0.47-2.22,1.86-3.61,3.86-4.51
		c0.38-0.17,0.8-0.31,1.02-0.72C385.76,397.2,385.86,397.07,385.99,396.96z"/>
	<path id="San_Bartolo" class="st0" d="M366.49,471.26c1.05,0.65,1.68,1.27,0.22,2.23c-1.56,1.03-2.34,2.49-2.2,4.44
		c0.09,1.21,0.01,2.43-0.01,3.64c-0.02,0.87,0.37,1.5,1.23,1.48c1.04-0.02,1.36,0.65,1.67,1.37c0.47,1.1,1.19,1.81,2.45,1.81
		c1.03,0,1.47,1.16,2.51,1.28c0.37,0.04,0.16,0.62-0.09,0.9c-0.4,0.45-0.77,0.98-1.26,1.29c-1.03,0.66-1.39,1.5-1.35,2.74
		c0.06,2.32-3.27,5.86-5.49,5.8c-0.77-0.02-1.56-0.33-2.39-0.42c-2.42-0.27-4.51,1.3-6.88,1.01c-0.17-0.02-0.41,0.01-0.52,0.12
		c-1.93,1.92-4.5,2.79-6.75,4.19c-1.93,1.19-3.67,2.63-5.92,3.29c-3.22,0.94-6.43,1.87-9.83,1.79c-0.49-0.01-0.92,0.19-1.37,0.42
		c-1.16,0.59-2.3,0.81-3.56,0.03c-1.44-0.9-5.29-0.51-6.27,0.47c-0.8,0-1.14-0.65-1.5-1.17c-0.75-1.09-1.87-1.7-2.94-2.39
		c-0.49-0.32-1.07-0.48-1.52-0.06c-2.04,1.91-4.47,2.73-7.26,2.64c-1.59-0.2-2.21,0.92-2.27,0.69c-0.21-0.77-1.11-3.31-1.04-5.49
		c0.04-1.06-0.4-1.72-1.37-2.08c-0.31-0.9,0.47-1.27,0.88-1.81c2.3-3.04,5.73-4.63,8.76-6.72c1.57-1.08,2.91-2.36,4.12-3.81
		c2.69-3.22,5.66-6,10.05-6.72c1.52-0.25,2.59-1.29,3.42-2.54c0.81-1.23,1.89-1.99,3.34-2.31c1-0.22,1.98-0.57,2.89-1.09
		c1.24-0.71,2.63-0.83,3.87-0.31c2.21,0.92,4.33,0.47,6.4-0.21c1.65-0.55,3.28-0.93,4.99-0.75c4.24,0.45,8.02-0.73,11.58-2.95
		C364.08,471.42,365.18,470.81,366.49,471.26z"/>
	<path id="Santa_María_del_Mar" class="st0" d="M305.51,508.13c0,0-0.43,1.53,0.09,1.87c0.51,0.34,2.55,1.96,2.55,2.98
		c0,1.02-0.51,2.64-1.53,3.15s-2.13,1.79-1.96,2.47s1.28,1.87,1.53,2.89c0.26,1.02-0.09,3.4,0.51,5.11c0.6,1.7,0.85,1.96,0.85,1.96
		s1.96-0.85,2.81-2.81s0.68-3.06,2.38-3.23s1.7-0.17,1.7-0.17s2.04,0.85,2.72,1.53s3.74,2.38,3.74,2.38s1.35-2.25-0.04-6.3
		c-0.47-1.36-1.78-4.22-1.77-4.41c0.08-1.28,0.36-5.16,0.79-5.49c0.51-0.4-2.95-5-4.17-5.08c-1.21-0.08-2.21,1.62-4.68,2.47
		C308.57,508.3,305.51,508.13,305.51,508.13z"/>
	<path id="Pucusana" class="st0" d="M321.14,526.78c1.78,2.68-0.37,4.75-1.21,6.94c-0.85,2.22-1.1,4.16,0.1,6.39
		c2.45,4.55,3.4,9.36,1.44,14.4c-0.13,0.33-0.37,0.63-0.62,0.88c-4.25,4.24-8.43,8.55-12.9,12.56c-0.36,0.32-0.67,0.74-1.21,0.73
		c-2.62-0.06-4.12,1.7-5.62,3.46c-0.12,0.14-0.2,0.31-0.34,0.42c-2.05,1.59-1.96,1.52-0.46,3.47c1.23,1.6,2.84,3.12,2.61,5.62
		c-2.37-3.9-6.73-4.19-9.97-6.54c0.35-0.88,0.31-2.22,1.1-3.39c0.68-1,0.06-1.94-0.95-2.57c-0.74-0.46-1.66-0.7-2.32-1.97
		c1.25,0.62,2.44,1.07,2.94-0.1c0.54-1.27,1.97-2.39,0.83-4.13c-0.75-1.13-1.14-2.5-1.7-3.76c-0.38-0.87-0.07-1.19,0.79-0.9
		c1.74,0.6,3.21-0.64,4.86-0.73c0.76-0.04,1.01-1.08,0.6-1.96c-0.19-0.41-0.74-0.87-0.28-1.31c1.09-1.03,1.48-2.05,0.32-3.27
		c-0.06-0.06-0.07-0.29-0.02-0.34c1.58-1.45,1.27-3.41,1.48-5.24c0.09-0.76,0.69-0.98,1.44-1.11c2.16-0.38,2.41-1.06,1.56-3.15
		c-0.47-1.15-1.61-2.07-1.35-3.48c0.17-0.92,0.1-2.28,1.67-1.04c0.26,0.2,0.76,0.4,0.99,0.28c1.32-0.65,2.49-1.56,3.81-2.26
		c1.92-1.03,0.27-2.67-0.02-4.02c-0.12-0.57-0.51-1.09-0.78-1.63c0.23-0.66,0.71-1.13,1.22-1.55c0.92-0.75,1.51-1.66,1.94-2.78
		c0.92-2.4,3.91-2.92,5.56-0.97c0.8,0.94,1.91,1.24,2.86,1.87C320.09,525.98,320.73,526.23,321.14,526.78z"/>
	<path id="VMT" class="st0" d="M213.17,344.59c2.64-0.07,5,0.01,7.43-1.59c1.24-0.82,3.9-0.66,4.53,0.77
		c1.13,2.53,2.4,5.1,5.12,5.85c1.13,0.31,1.73,1.36,2.24,2.27c1.12,1.99,2.45,3.87,3.03,6.14c0.51,2.02,1.98,3.33,3.84,4.1
		c2.52,1.04,3.15,3.15,3.53,5.53c0.33,2.05,0.4,3.98-0.76,5.87c-0.62,1.01,0.07,2.02,0.76,2.8c0.82,0.91,0.73,1.58,0.14,2.69
		c-1.12,2.1-2.78,3.98-3.14,6.46c-0.05,0.35-0.21,0.72-0.43,0.99c-2.47,2.95-1.94,5.96-0.09,8.9c0.85,1.36,0.6,2.02-0.83,2.59
		c-1.11,0.45-2.18,1-3.31,1.44c-2.02,0.79-2.47,2.86-3.23,4.6c-0.41,0.92-0.46,2-0.72,3c-0.43,1.64-1.35,1.99-2.74,1.01
		c-0.51-0.36-1.03-0.26-1.57-0.27c-2.1-0.04-3.34-1.17-4.16-3.08c-1.58-3.69-2.54-7.64-4.75-11.05c-0.43-0.67-0.92-1.27-1.45-1.85
		c-0.61-0.66-1.44-1.31-1.68-2.11c-0.89-2.97-3.56-5.01-4.09-8.15c-0.18-1.07-1.09-1.58-2.06-1.27c-1.79,0.56-4.23-0.02-5.99,0.55
		c-0.82,0.26-0.91-0.34-0.95-0.91c-0.06-1.09-0.13-2.18-0.14-3.27c-0.01-1.46-0.05-2.86-1-4.14c-1.02-1.39-1.6-2.93-1.83-4.53
		c-0.32-2.31-0.31-4.54,0.04-7.11c0.24-1.76,0.72-3.28,1.61-4.71c1.27-2.03,2.31-4.29,4.74-5.28c1.33-0.54,1.77-1.72,2.13-2.98
		c0.87-3.1,0.88-3.1,4.14-3.2C212.08,344.64,212.62,344.61,213.17,344.59z"/>
	<path id="VES" class="st0" d="M215.97,422.17c0,0,0.43,0.43,2.04-0.51c1.62-0.94,3.57-1.28,4.94-2.81
		c1.36-1.53,2.47-2.55,3.66-5.45c1.19-2.89,3.4-4.85,3.4-4.85s-1.72-0.43-2.89-0.81s-2.21,1.06-3.06-0.21
		c-1.6-2.41-2.81-6.47-3.91-8.68c-1.11-2.21-1.87-5.45-4.51-7.06c-2.64-1.62-1.05-2.9-2.81-5.19s-1.79-4.68-2.55-5.53
		c-0.77-0.85-7.23,0.2-8.09,0.17s0.34,2.47-1.53,3.49s-2.3,1.45-4.77,1.45s-3.15-0.77-4.6-0.6c-1.45,0.17-1.45,3.91-1.45,3.91
		s-0.51,3.66-0.26,4.68c0.26,1.02,0.51,0.6,0.09,1.62c-0.43,1.02-1.54,0.41-2.13,1.39s-0.76,1.67-0.33,2.35s1.19,1.45,1.19,2.04
		s0,2.21,0.43,2.55s1.19,1.7,1.36,2.72s0.89,2.13,0.89,2.13l22.43,12c0,0,0.43,0.17,1.02,0.34
		C215.12,421.49,215.97,422.17,215.97,422.17z"/>
	<path id="SJM" class="st0" d="M187.54,397.18c-0.46-3.24-2.3-5.8-3.03-8.75c-0.07-0.29-0.15-0.67-0.37-0.82
		c-3.86-2.67-3.06-6.38-2.39-9.9c0.2-1.07,0.39-2.08,1.11-2.98c0.56-0.7,0.5-1.76,0.05-2.43c-0.87-1.3-0.57-2.67-0.6-4.03
		c-0.06-2.48,0.17-4.99-0.32-7.44c-0.67-3.36,1.95-5.66,3.28-8.31c0.47-0.92,0.91-1.82,1.17-2.84c0.42-1.66,1.88-2.13,3.33-1.14
		c1.97,1.35,2.94,1.25,4.17-0.71c1.02-1.61,2.72-2.52,3.78-4.07c0.23-0.35,0.9-1.93,0.97-2.28c0.6-2.89,3.45-1.65,5.28-2.01
		c0.66-0.13,0.78,0.41,1.1,0.73c1,1,1.61,3.81,3.51,4.02c-1.35,1.19-2.28,2.03-2.52,3.41c-0.19,1.09-0.94,1.68-1.83,2.31
		c-4.6,3.25-7.65,7.77-6.41,13.35c0.79,3.55,0.7,7.5,2.84,10.74c0.4,0.6,0.27,1.29,0.3,1.95c0.1,1.74-0.12,3.49,0.35,5.23
		c0.46,1.69-1.54,4.01-3.25,4.11c-1.94,0.11-3.86,0.1-5.8-0.11c-1.98-0.22-2.83,0.58-2.9,2.58c-0.07,2.35-0.83,4.65-0.49,7.04
		C189.04,395.75,188.42,396.41,187.54,397.18z"/>
	<path id="Chorrillos" class="st0" d="M158.68,363.68c0.64-0.64,1.01,0.24,1.43,0.11c3.37-1.09,5.69,1.1,8.57,2.64
		c-2.25,1.18-1.83,2.57-0.68,4.07c0.66,0.86,1.22,1.81,1.88,2.67c1.14,1.49,2.16,1.51,3.4,0.11c0.32-0.36,0.68-0.69,0.96-1.08
		c0.76-1.06,1.41-0.77,2.15,0.05c1.55,1.69,2.32,1.76,4.42,0.67c0.4-0.21,0.78-1.05,1.33-0.41c0.44,0.51,0,1.08-0.25,1.65
		c-1.71,3.96-2.71,7.98-0.66,12.15c0.27,0.55,0.59,1.11,1.14,1.38c0.94,0.46,1.13,1.36,1.42,2.18c1.09,3.02,2.06,6.08,3.22,9.07
		c0.47,1.2,0.9,2.35,0.85,3.65c-0.05,1.39,0.96,2.32,1.55,3.42c0.47,0.87,0.9,1.71,1,2.69c-4.44-0.3-7.77-3.33-11.73-4.82
		c-4.36-1.64-8.86-3.05-12.98-5.17c-3.33-1.72-7.23-2.01-10.25-4.39c-0.79-0.62-1.9-0.17-2.84-0.32c-0.82-0.13-1.58-0.19-0.73-1.42
		c1.81-2.64,1.52-3.79-1.19-5.39c-0.89-0.53-1.34-0.95-0.39-1.86c0.68-0.66,0.83-1.48,0.08-2.25c-0.69-0.71-0.46-1.57-0.49-2.4
		c-0.03-1.01,0.31-1.58,1.33-2.04c2.68-1.23,2.94-2.29,1.46-4.69c-1.93-3.14-1.93-3.15,1.67-3.85c1.62-0.32,2.67-1.1,2.62-2.9
		C156.93,365.73,158.6,365.09,158.68,363.68z"/>
	<path id="Surco" class="st0" d="M181.45,363.49c0.03,2.3,0.23,4.59-0.01,6.91c-0.14,1.41-1.09,1.76-2.07,2.21
		c-0.91,0.42-1.49-0.07-1.96-0.8c-0.07-0.1-0.15-0.19-0.24-0.27c-1.87-1.82-1.87-1.82-3.64,0.07c-0.33,0.35-0.74,0.66-1,1.06
		c-0.65,1.01-1.48,1.05-2.04,0.17c-0.39-0.61-0.86-1.17-1.27-1.77c-0.71-1.04-2.29-2.06-0.61-3.17c0.88-0.58,0.8-1.78-0.09-2.3
		c-1.25-0.73-2.55-1.38-3.8-2.11c-2.19-1.28-1.81-3.51-0.11-5.43c2.48-2.79,2.48-3.55,0.06-6.43c-0.27-0.32-0.51-0.68-0.77-1.01
		c-0.31-0.4-0.62-0.8-0.15-1.27c0.34-0.34,0.69-0.7,1.26-0.48c1.49,0.56,2.85,0.21,4.15-0.59c0.1-0.06,0.21-0.18,0.31-0.18
		c4.61,0.34,4.87-4.01,6.89-6.44c0.49-0.59-0.5-2.21-0.1-2.89c0.76-1.32,1.71-2.28,3.46-2.08c1.76,0.2,4.51-0.01,6.26-0.19
		c1.37-0.14,2.05-1.8,1.49-3.17c-0.52-1.28-0.6-2.57-0.63-3.91c-0.05-2.41-2.26-5.11-2.26-7.6c0-1.04,0.12-1.66,0.79-2.29
		c0.4-0.37,2.13-1.49,2.53-1.86c0.94-0.88,1.15-1.03,1.47,0.83c0.28,1.64,2.76,2.97,4.28,1.65c0.82-0.71,1.52-1.57,2.31-2.32
		c0.39-0.37,0.82-0.74,1.29-0.98c0.78-0.39,1.68-0.27,2.16,0.36c0.41,0.53-0.26,1.11-0.66,1.53c-1.23,1.28-2.35,2.55-1.15,4.45
		c0.08,0.13,0.06,0.38-0.01,0.52c-1.67,3.52,0.85,5.43,2.85,7.57c1.84,1.97,2.31,4.61,3.29,7c0.22,0.55-0.15,0.81-0.62,0.86
		c-0.6,0.07-1.26,0.21-1.8,0.03c-1.58-0.52-2.46,0.33-3.09,1.51c-0.99,1.84-2.04,3.73-3.27,5.3c-1.56,2-2.6,3.04-5.34,1.61
		c-1.86-0.97-3.35,0.31-3.83,2.42c-0.39,1.71-1.86,2.57-2.83,3.88c-1.7,2.31-1.84,4.79-1.68,7.42
		C181.35,362.04,181.4,362.77,181.45,363.49z"/>
	<path id="La_Molina" class="st0" d="M199.99,307.96c1.81,0.11,3.31-0.61,4.69-1.67c1.12-0.86,1.92-0.93,2.82,0.57
		c0.86,1.45,2.11,2.78,4.22,2.48c0.88-0.12,1.59-0.15,2.11,0.4c0.99,1.07,2.05,1.47,3.36,0.55c0.2-0.14,0.45-0.34,0.64-0.3
		c2.65,0.48,4.05-0.17,5.61-1.95c0.72-0.83,1.73-1.69,2.83-1.54c0.68,0.1,1.35-0.04,1.93-0.38c1.24-0.73,2.31-0.86,3.69-0.01
		c1.41,0.87,3.02,0.07,4.31-0.64c1.72-0.94,2.57,0.33,3.6,1.1c0.51,0.39,0.04,1.57-0.21,2.05c-1.52,2.87-0.87,6.33,1.66,8.38
		c0.67,0.54,0.55,1.15,0.58,1.78c0.05,1.29-0.25,2.57,1.15,3.58c0.89,0.65-0.05,2.52-1.23,2.67c-0.66,0.08-1.34,0.06-1.98,0.23
		c-1.96,0.52-2.55,1.89-1.43,3.54c0.96,1.41,0.6,2.55-0.46,3.55c-1.31,1.24-2.47,2.49-2.35,4.48c0.05,0.78-0.56,1-1.25,0.93
		c-2.34-0.24-3.69,1.06-4.76,2.93c-1.29,2.25-2.43,2.73-4.76,1.7c-2.12-0.93-4.05-1.13-5.97,0.35c-0.19,0.14-0.44,0.27-0.67,0.28
		c-3.35,0.02-6.4,2.13-9.66,0.61c-1.61-0.75-2.91-3.07-3.37-4.9c-0.85-3.37-1.78-6.67-4.59-9.22c-1.4-1.26-2.83-2.81-2.44-5.41
		c0.32-2.14-0.75-2.69,0.45-4.4c0.86-1.23,1.58-3.32,0.12-3.82c-1.43-0.48-2.76-0.31-3.88,0.77c-0.87,0.85-1.68,1.76-2.56,2.58
		c-1.07,1-1.5,0.59-2.31-0.5c-2.19-2.92-0.02-4.95,1.11-7.23c0.08-0.16,0.99-0.67,1.12-0.7
		C194.88,310.23,197.01,307.88,199.99,307.96z"/>
	<path id="Barranco" class="st0" d="M155.87,351.24c0.46,0.26,1.41,0.4,1.98,0.57c-0.25,0.43,0.19,0.96,0.57,1.34
		c0.48,0.48,0.51-1.64,0.89-1.85c1.32-0.73,1.7-0.56,2.74-1.67c0.49-0.53,0.73-0.35,1.06,0.19c0.37,0.62,0.29,2.35,0.76,2.91
		c1.77,2.12,1.79,2.4-0.12,4.31c-1.02,1.02-0.74,2.83-0.67,4.16c0.11,2.1-0.99,2.45-2.67,2.27c-0.3-0.03-1.43,0.25-1.73,0.22
		c1.1-2.55-0.61-6.01-1.72-7.98C156.05,354.11,155.89,353.01,155.87,351.24z"/>
	<path id="Miraflores" class="st0" d="M140.25,336.66c2.26-0.15,4.56-0.86,6.67,0.67c0.28,0.21,0.9,0.22,1.23,0.06
		c2.28-1.16,5.12-1.15,6.91-3.34c0.84-1.03,1.25-0.99,1.89,0.36c0.84,1.76,0.66,3.52,0.71,5.31c0.09,3.08,0.33,3.3,3.3,3.16
		c0.6-0.03,1.25-0.1,1.8,0.08c1.42,0.47,2.47,0.06,3.37-1.05c0.95-1.17,1.74-1.48,2.65,0.18c0.76,1.38,1.22,2.88,2.1,4.34
		c-1.06,0.16-2,0.36-2.8,0.92c-0.57,0.4-1.36,0.65-1.89,0.44c-2.42-0.95-3.88,0.73-5.41,1.94c-1.29,1.02-2.62,1.91-4.06,2.67
		c-1.05,0.18-0.43-0.87-0.85-1.16c-0.66-1.04-1.44-1.94-2.74-2.18c-0.12-0.02-0.28-0.06-0.32-0.14c-1.32-2.68-4.2-3.85-5.9-6.14
		c-0.44-0.6-0.95-1.04-1.51-1.51C143.62,339.79,141.96,338.2,140.25,336.66z"/>
	<path id="Surquillo" class="st0" d="M176.93,337.54c-1.23,2.86-3.48,6.51-5.43,8.71c-1.04-1.43-1.39-2.75-2.44-4.2
		c-1.23-1.71-2.4-2.01-3.85-0.52c-1.03,1.06-1.94,1.09-3.42,0.43c-0.1-0.05-0.24-0.01-0.36-0.03c-0.89-0.15-2.04,0.68-2.58,0.01
		c-0.7-0.87-0.48-2.22-0.37-3.35c0.13-1.38-1.34-3.51-1.98-4.72c-0.64-1.2,0.02-2.46,1.64-2.36c0.3,0.02,1.86,0.91,2.14,0.83
		c1.5-0.43,2.51-0.39,2.78,1.62c0.18,1.29,1.5,0.59,2.94,0.18c0.88-0.25,1.35,0.05,1.76,1.07c0.55,1.38,1.71,2.19,3.03,2.52
		C172.61,338.19,174.96,338.52,176.93,337.54z"/>
	<path id="San_Borja" class="st0" d="M179.59,336.16c-1.14-0.29-2.83-0.32-4.51,1.09c-1.06,0.9-5.3-0.18-6.17-1.15
		c-1.14-1.28-1.62-6.54-0.6-7.97c1.1-1.54,1.78-3,0.42-4.75c-0.27-0.34-0.38-1.2,0.25-1.14c1.53,0.15,2.66-1.22,4.19-0.9
		c0.34,0.07,0.87,0.08,1.05-0.11c1.89-1.99,4.05-1.19,6.2-1.6c1.82-0.34,3.6,1.61,3.85,3.46c0.46,3.37,1.56,6.67,2.22,10.01
		c0.19,0.97-0.43,2.21-1.13,2.16C183.57,335.15,182.1,336.42,179.59,336.16z"/>
	<path id="San_Isidro" class="st0" d="M135.51,332.34c2.4-0.93,4.12-2.46,4.54-5.14c0.08-0.49,0.1-1.84,0.69-1.82
		c1.71,0.06,2.52-0.61,3.62-1.52c1.12,2.45,2.47,2.87,5.08,1.57c2.07-1.03,4.01-1.43,6,0.32c1.15,1.01,3.08-0.4,4.32-1.2
		c1.81-1.18,3.28-0.12,5.32,0.39c0.4,0.1,1.79-1.22,2.21-1.15c0.61,0.1,0.48,0.76,0.84,1.57c0.27,0.61-0.3,1.16-0.66,1.6
		c-1.46,1.8-1.27,3.83-0.91,5.89c0.1,0.57,0.52,1.18-0.56,1.3c-0.76,0.08-1.47,0.24-1.77-0.7c-0.13-0.4-0.12-0.84-0.25-1.24
		c-0.28-0.86-0.9-1.78-1.76-1.56c-3.01,0.76-6.17,0.56-8.89,2.97c-1.85,1.64-4.55,3.4-7.7,1.69c-1.53-0.83-3.34-0.08-5.02,0
		c-0.84,0.04-0.41,0.83-0.44,1.31C138.1,335.76,136.86,333.99,135.51,332.34z"/>
	<path id="Lince" class="st0" d="M144.84,323c-0.5-1.55,0.25-2.42,1.49-2.41c0.42,0,2.58-1.11,2.75-1.32
		c1.37-1.67,3.26-1.03,4.98-1.79c1.64-0.73,2.55,0.11,3.21,1.83c0.49,1.29,0.78,3.31,1.57,4.48c0.4,0.59,0.11,0.88-0.43,1.06
		c-0.91,0.29-1.7,1.36-2.44,0.64c-2.07-2.01-4.09-1.39-6.34-0.6c-0.45,0.16-2.37,0.51-2.83,0.65
		C145.12,326.09,144.5,324.56,144.84,323z"/>
	<path id="Jesús_María" class="st0" d="M147.36,309.86c2.1,2.05,2.61,4.75,3.72,7.13c0.15,0.33,0.29,0.93-0.3,1.06
		c-1.37,0.3-2.05,1.95-3.86,1.65c-0.96-0.16-2,1.45-2.42,3.06c-0.31,1.2-1.64,1.47-2.94,2.11c-0.48,0.24-1.35,0.42-1.59-0.6
		c-0.06-0.27-0.51-0.82-0.72-1.02c-1.82-1.82-1.72-2.72-0.11-4.69c2.25-2.76,4.49-4.53,7.05-7.01
		C146.66,311.09,146.96,310.46,147.36,309.86z"/>
	<path id="Magdalena" class="st0" d="M135.51,332.34c0,0-3.13-1.34-4.34-2.49c-1.21-1.15-1.21-1.15-1.21-1.15l-2.81-1.15
		c0,0,0.32-2.36,0.7-2.68c0.38-0.32,0.38-0.32,0.38-0.32s0.89-0.45,1.85-1.21s-0.09-3.3,0.32-3.51c0.4-0.21,1.49,1.6,3.53,1.79
		s3.11-1.09,3.11-1.09s0.96,1.91,1.72,2.68s0.89,2.23,1.4,2.23s-0.83,4.4-1.47,4.91s-2.36,1.6-2.36,1.6L135.51,332.34z"/>
	<path id="San_Miguel" class="st0" d="M127.15,327.55c0.19,0.53-2.15-1.3-7.94-3.34s-5.7-4.09-8.43-4.43s-3.83-0.43-3.74-2.13
		s1.45-2.72,2.89-4.34c1.45-1.62,1.03-4.33,1.29-4.71c0,0,2.07-0.29,3.26-0.46c1.19-0.17,0.19-1.11,1.98-1.28s1.47,0.57,2.49,0.23
		s1.42-1.74,1.42-1.74l6.32,2.51c0,0-0.26,1.28,0.34,1.87c0.6,0.6,0.94,2.04,0.94,2.04s-1.32,2.47-1.57,3.91
		c-0.26,1.45-0.77,2.3-0.17,2.38c0.6,0.09,2.85,0.55,3.36,1.32c0.51,0.77,1.02,2.09,0.43,3.36c-0.6,1.28-1.11,0.81-1.96,1.66
		C127.21,325.27,126.95,327.02,127.15,327.55z"/>
	<path id="Pueblo_Libre" class="st0" d="M130.64,311.87c1.16,0.13,1.75-0.41,3.06-0.64c1.52-0.26,3.04-0.37,4.55-0.84
		c1.7-0.53,3.77,0.64,4.39,2.26c0.26,0.68-0.01,1.53-0.37,1.89c-2.07,2.1-4.11,3.86-5.83,6.27c-0.77,1.08-2.91,0.92-3.94,0.37
		c-1.84-0.98-2.95-2.9-5.09-3.32c-1.66-0.33-1.15-0.86-0.77-1.59c0.27-0.52,0.09-1.29,0.22-1.88
		C127.46,311.72,127.73,311.86,130.64,311.87z"/>
	<path id="Breña" class="st0" d="M148.21,302.91c-0.28,2.56-1.67,6.71-3.13,8.87c-0.97,1.44-1.75,1.43-2.87,0.03
		c-0.79-0.98-2.37-2.24-3.66-1.98c-0.4,0.08-1,0.45-1.25-0.22c-0.15-0.42,0.09-0.83,0.44-1.12c0.92-0.77,1.91-3.05,2.18-4.11
		c0.41-1.59,0.9-3.15,1.55-4.67c0.22-0.51,0.62-0.57,1-0.18c1.13,1.18,3.16,2.4,4.93,2.24
		C148.06,301.71,148.28,302.28,148.21,302.91z"/>
	<path id="Cercado" class="st0" d="M121.66,292.79c4.92-0.39,10.53-3.47,16.23,0.13c2.02,0.83,4.18,0.6,6.22-0.22
		c0.87-0.35,1.57-0.43,2.16,0.53c0.82,1.31,2.34,1.54,3.64,1.82c2.27,0.48,4.39,1.36,6.58,2.02c2.38,0.72,4.82,0.37,7.21,0.16
		c1.12-0.1,2.05-5.77,2.57-6.75c0.76-1.44,2.62-1.15,3.26-1.6c1.23,1.26,0.08,3.87,0.72,5.17c0.54,1.11-0.48,1.79-1.1,2.46
		c-0.74,0.8-1.56,1.51-2.1,2.49c-1.54,2.79-1.07,4.83,1.61,6.6c0.38,0.25,0.75,0.55,0.67,0.98c-0.1,0.52-0.65,0.5-1.05,0.46
		c-1.34-0.15-2.57-0.42-3.41-1.72c-1.14-1.75-2.93-2.15-4.72-1.14c-1.52,0.86-3.19,0.53-4.79,0.67c-2.97,0.26-3.76,1.33-3.05,4.21
		c0.65,2.66,2.22,5.4,3.75,7.83c-0.87,0.38-3.27,0.51-4.15,0.89c-1.23-2.94-1.07-6.05-3.18-8.5c-0.56-0.65-0.59-1.35-0.34-2.2
		c0.37-1.27,0.6-2.6,0.76-3.92c0.18-1.49-0.66-2.57-2.12-2.54c-1.28,0.03-2.14-0.47-3.03-1.31c-1.63-1.55-2.8-1.36-3.48,0.81
		c-0.58,1.86-1.53,3.56-2.09,5.45c-0.57,1.92-1.29,4.82-4.66,4.65c-1.15-0.06-2.39,0.2-3.6,0.27c-1.39,0.07-2.62,0.06-2.65-1.86
		c-0.01-0.74-0.61-1.12-1.3-1.35c-1.72-0.57-4.13-1.34-5.84-1.93c0.07-0.9,0.14-1.8,0.2-2.7c0.05-0.75,0.5-1.18,1.19-1.05
		c1.83,0.32,2.35-0.7,3.85-1.44c1.35-0.66,1.55-2.03,0.2-2.55c-1.92-0.74-1.87-2.14-2.38-3.83
		C123.22,293.1,122.13,293.25,121.66,292.79z"/>
	<path id="La_Victoria" class="st0" d="M165.55,323.62c-1.5-0.18-3.01-0.42-4.52-0.06c-0.61,0.15-0.96-0.11-1.12-0.62
		c-1.65-5.07-5.9-9.22-6.97-14.58c-0.29-1.47,0.17-1.94,1.33-2.13c1.01-0.16,2.57-0.43,3.6-0.42c1.06,0.01,2.03-0.13,2.94-0.73
		c1.11-0.73,2.2-0.43,2.85,0.58c1.48,2.31,3.85,1.58,6.26,1.21c2.54-0.39,3.78,1.63,4.75,3.89c0.4,0.94-0.36,1.23-0.96,1.4
		c-1.7,0.48-3.25,1.21-4.65,2.3c-0.68,0.52,0.32,0.77-0.13,1.5c-0.59,0.94-0.53,1.73,0.69,2.11c0.34,0.11,0.27,0.19,0.5,0.42
		c0.53,0.53,0.46,0.99,0.32,1.84c-0.16,0.95-1.2,0.5-1.86,0.57c-0.9,0.09-1.39,0.62-1.32,1.43
		C167.36,323.75,166.54,323.74,165.55,323.62z"/>
	<path id="San_Luis" class="st2" d="M168.34,316.98c1.05-2.73,1.76-3.08,3.64-3.57c0.52-0.14,1.52-0.06,2.02-0.28
		c1.97-0.89,2.1-1.93,0.71-3.57c-0.36-0.43-0.66-1.95-0.26-2.43c0.46-0.54,1.28-0.35,1.6-0.19c0.85,0.43,1.56,2.79,2.63,2.83
		c1.46,0.05,1.96,0.94,1.44,2.22c-0.98,2.42-0.83,4.6,1.44,6.73c-1.53,0.07-2.66,0.25-3.76,0.14c-1.36-0.13-2.54-0.19-3.71,0.85
		c-0.63,0.56-1.85,1.16-2.64,0.12C170.65,318.79,169.62,318.21,168.34,316.98z"/>
	<path id="El_Agustino" class="st0" d="M166.88,301.57c0.25-1.39,1.13-2.63,2.31-3.74c2.38-2.23,2.46-3.28,0.65-5.89
		c-0.24-0.35,0.27-0.92,0-1.22c-0.82-0.88-0.25-1.44,0.45-1.86c0.93-0.55,2.12-1.34,3.24-1.48c3.69-0.45,7.56,0.06,10.95-2.03
		c0.44-0.27,0.94-0.12,1.39,0.13c3.46,1.96,6.92,1.02,10.32-0.13c1.19-0.4,2.33-0.57,3.55-0.43c0.44,0.05,1.58,1.1,1.71,1.64
		c0.14,0.57-0.21,0.75-0.65,0.89c-0.87,0.29-1.48,1.37-2.62,0.83c-0.12-0.06-0.44,0.03-0.49,0.14c-1.13,2.23-4.91,1.52-6.33,3.47
		c-0.98,1.35-2.6,2.1-4.19,2.75c-1.23,0.5-2.31,0.42-3.41-0.34c-0.77-0.53-1.73-0.97-2.48-0.16c-0.84,0.91-0.04,1.7,0.59,2.34
		c0.78,0.8,0.87,1.51-0.27,1.84c-0.76,0.26-0.99,0.81-0.59,1.4c0.79,1.14,1.62,2.06,2.71,2.95c1.06,0.87,2.08,1.1,3.45-0.04
		c0.39-0.33,0.87,0.13,1.28,0.78c0.41,0.66,0.81,1.29-0.01,1.64c-0.43,0.18-1.04,0.64-1.45,0.89c-0.9,0.57-1.86,1.98-2.94,0.64
		c-2.41-3-6.7-3.67-9.11-0.64c-1.27,1.58-3.5,1.46-4.45-0.28c-0.34-0.62-1.37-0.93-2-1.25C167.6,303.97,166.91,302.78,166.88,301.57
		z"/>
	<path id="Santa_Anita" class="st0" d="M181.89,294.68c1.02-1.53,4.72,2.77,10.52-1.92c1.66-1.56,3.87-2.1,5.57-3.45
		c2.39-1.9,5.36-0.65,7.91-1.73c1.35-0.57,2.39,0.5,2.47,1.89c0.12,1.94,0.04,3.84,1.25,5.57c0.51,0.73,0.24,1.66-0.82,2.03
		c-1.54,0.54-3.04,1.28-4.63,1.58c-3.04,0.59-5.58,2.25-8.31,3.51c-1.48,0.69-2.97,1.34-4.41,2.1c-0.95,0.5-1.33,0.35-1.6-0.73
		c-0.5-2-1.33-2.43-3.07-1.4c-1.21,0.71-2.28,0.76-2.94-0.27c-0.55-0.86-2.58-1.9-0.94-3.36
		C183.61,297.89,180.7,295.27,181.89,294.68z"/>
	<path id="Rimac" class="st0" d="M155.42,268.96c0.41,0.61,1.24,0.94,1.17,1.47c-0.06,0.44,0.27,2.21,0.62,2.42
		c2.3,1.44,1.66,4.54,3.59,6.33c0.66,0.61,0.47,2.36,1.36,3.35c0.16,0.18,0.03,0.48-0.21,0.61c-1.81,1-1.37,2.81-1.54,4.38
		c-0.07,0.66,0.02,1.58,0.66,1.78c2.2,0.68,2.14,3.09,3.57,4.36c0.76,0.68-0.66,2.86-2.14,2.93c-2.47,0.12-4.96,0.36-7.33-0.77
		c-1.48-0.71-3.07-1.08-4.68-1.42c-2.44-0.52-2.7-1.71-2.65-4.31c0.01-0.73-0.01-1.46,0.04-2.18c0.06-0.88-1.33-1.14-2.04-1.66
		c-1.72-1.26-2.64-3.24-2.81-5.45c-0.09-1.16-0.71-2.01,0.12-3.47c0.89,0.6,0.74,1.69,1.18,2.46c0.3,0.51,0.53,1.16,1.27,1.14
		c0.58-0.02,0.82-0.52,0.96-0.97c0.65-2.06,1.91-3.72,3.36-5.2C151.67,272.99,153.21,270.25,155.42,268.96z"/>
	<path id="SMP" class="st0" d="M142.61,279.69c0.98,0.97,0.15,2.55,1.19,3.5c0.16,0.64-0.36,1.82,0.35,2.12
		c0.44,0.39,0.46,1.12,1.07,1.37c2.01,0.85,1.24,2.54,1.21,4c0,0.15-0.18,0.42-0.25,0.41c-2.43-0.37-4.6,1.8-7.09,0.71
		c-1.27-0.7-2.5-1.49-4.04-1.37c-0.47-0.03-0.95-0.06-1.42-0.09c-1.33-0.2-2.65-0.19-3.98,0c-0.81,0.03-1.61,0.07-2.42,0.1
		c-1.11,0.37-2.11,0.32-3.23,0.67c-0.65,0.49-2.06,0.21-2.49,1.21c-0.97,0.02-1.75-0.38-2.72-0.42c-1.39-0.06-1.98-1.05-1.26-2.19
		c1.44-2.26,2.53-4.65,3.05-7.29c0.02-0.12,0.08-0.23,0.12-0.34c1.44-3.49,1.45-3.5-1.31-6.21c-0.44-0.43-0.84-0.86-1.04-1.46
		c-0.43-1.3-1.18-2.14-2.7-1.73c-0.9,0.24-1.05-0.49-1.23-0.99c-0.51-1.38-1.26-2.24-2.92-2.18c-1.35,0.05-1.83-1.21-2.49-2.12
		c-0.69-0.95-1.09-0.34-2.23,0.5c-0.39,0.29-1.48,0.67-2.21-0.17c-0.56-0.64-0.81-1.68-0.19-2.86c0.92-1.73,1.69-3.55,2.62-5.28
		c1.77-3.27,0.97-5.97-2.35-7.59c-0.55-0.27-0.9-0.57-0.84-1.23c0.03-0.42-0.06-0.86,0.01-1.27c0.96-5.28-3.44-10.45-6.57-14.22
		c-0.38-1.28,0.87-1.8,1.21-1.7c1.61,0.79,3.71,5.01,5.56,5.29s3.58,0.94,5.37,1.32c1.37,0.29,2.65,0.64,3.89,1.3
		c1.89,0.99,2.83,0.4,2.92-1.72c0.02-0.48,0.05-0.96,0.07-1.44c2.5,0.83,4.11-0.71,6.01-2.54c0,2.31,0,4.26,0,6.22
		c0.01,2.47-0.25,4.93,0.72,7.35c0.61,1.53,0.33,3.04-1.32,4.11c-1.8,1.17-1.74,1.88,0.03,3.06c0.64,0.43,2.72,0.51,1.83,1.39
		c-0.97,0.96-1.71,2.43-0.27,2.57c0.89,0.08,2.08-0.32,2.57,0.37c0.53,0.73-0.62,1.41-0.92,2.18c-0.61,1.54-1.13,3.11-2.49,4.3
		c-0.82,0.72-0.65,1.94-0.09,2.88c1.36,2.26,1.67,2.51,2.46,4.95c0.28,0.87,0.24,1.15-0.27,1.33c-0.41,0.15-0.83,0.34-0.65,1.1
		c0.16,0.65,0.43,0.44,1.02,0.23c0.88-0.32,0.87,0.25,1.62-0.48c0.78-0.75,1.92-0.69,3.06-0.43c1.26,0,2.45,0.78,3.4-0.68
		c2.44-0.66,3.44-4.33,7.06-0.77c0.45-0.05,1.6,0.12,1.87,0.34c0.34,0.79,0.25,1.63,0.07,2.41
		C141.84,278.91,142.07,279.33,142.61,279.69z"/>
	<path id="Los_Olivos" class="st0" d="M137.37,256.4c-3.24,0.5-3.29,0.6-3.37,4.01c-0.04,1.59-0.09,3.15,0.86,4.55
		c0.4,0.59,0.29,1.29,0.29,1.95c0,1.15,0.06,2.25,0.59,3.35c0.55,1.16,0.41,2.49,0.19,3.76c-0.18,1.04-1.09,1.13-1.87,1.41
		c-2.36,0.84-4.89,0.73-7.3,1.29c-0.85,0.2-1.14-0.08-1.24-0.79c-0.31-2.22-0.92-4.34-1.98-6.33c-0.26-0.49-0.38-1.18,0.06-1.54
		c2.03-1.67,2.23-4.36,3.64-6.38c0.81-1.16,0.24-2.09-1.19-2.31c-0.93-0.15-2.77,1.11-2.49,0.16c2.08-1.55,1.67-2.18-1.63-4.58
		c3.23-1.86,3.07-4.53,1.9-7.52c-0.56-1.43-0.35-3.01-0.27-4.52c0.11-2.25,0.25-4.49-0.02-6.73c-0.23-1.9,0.77-3.33,1.71-4.79
		c1.2-1.88,2.73-3.58,2.84-5.99c0.05-1.04,1.09-1.31,1.91-2.2c0.03,3.84,0.65,7.29,0.38,10.79c-0.2,2.53,1.23,4.87,0.92,7.47
		c-0.11,0.89,1.05,1.57,1.83,1.84c1.89,0.65,1.76,2.23,2.25,3.69C136.39,250.08,135.84,253.47,137.37,256.4z"/>
</g>
<path id="Callao" class="st3" d="M62.8,166.91c0.41,0.1,0.88,0.1,1.22,0.3c1.72,1.05,3.35,0.79,4.94-0.24
	c0.66-0.43,1.14-0.41,1.93-0.05c2.2,1,4.35,1.28,6.61-0.42c1.12-0.84,2.58-1.38,4.11-1.76c4.91-1.21,8.6-0.45,13.52-0.77
	c1.17-0.08,2.06,0.27,2.58,1.23c1.11,2.08,3.48,2.66,5.15,4.1c1.1,0.95,1.55,1.57,0.48,2.72c-1.16,1.24-0.94,3.12,0.42,4.14
	c0.65,0.49,1.11,1.06,0.96,1.91c-0.33,1.85-0.01,2.21,0.64,3.83c0.09,0.22,0.59,1.15,0.74,1.18c1.83,0.41,2.74,2.83,4.65,3.02
	c1.26,0.12,1.11,0.7,1.1,1.56c-0.03,1.89,0.15,3.88,1.11,5.61c0.71,1.2,1.4,2.55,2.55,3.32c0.79,0.53,0.4,2.09,0.42,3.14
	c0.02,1.15,0.93,2.23-0.03,3.46c-0.36,0.46-0.4,1.33,0.1,1.7c1.63,1.22,1.56,3.21,2.38,4.79c0.63,1.23-0.62,2.05-0.94,3.07
	c-0.43,1.36-0.81,2.64-0.58,4.06c0.25,1.5-0.68,2.61-1.36,3.8c-0.27,0.47-0.72,0.88-0.84,1.37c-0.44,1.88,0.01,3.61-2.3,3.91
	c-0.19,0.02-0.39,0.3-0.5,0.5c-1.18,2.27-0.56,6.08,1.6,7.67c0.49,0.36,1.14,0.93,1.16,1.48c0.04,1.55,0.01,3.11,0.01,4.8
	c-3.2-1.52-6.5-2.22-9.84-2.9c-2.04-0.42-2.79-2.01-4.12-3.7c-0.38-0.48-1.27-1.55-1.87-1.79c-1.5-0.58-3.21,1.22-3.04,2.81
	c0.17,1.58,1.06,2.44,2.05,3.47c0.82,0.85,1.55,1.68,1.79,2.87c0.05,0.23,0.14,0.5,0.31,0.65c1.37,0.8,2.53,4.96,2.4,7.75
	c-0.1,2.06,0.12,3.65,2.58,4.24c1.36,0.32,1.9,2.45,1.18,4.08c-0.98,2.24-2.1,4.41-3.15,6.61c-0.65,1.36-0.25,3.73,1.16,4.89
	c0.92,0.76,2.18,0.74,3.74-0.51c1.16,1.45,1.92,2.52,4.23,2.3c0.74-0.07,0.74,0.84,1,1.35c0.62,1.2,1.29,2.27,2.91,1.78
	c0.46-0.14,0.75,0.04,0.86,0.4c0.56,1.83,1.92,2.93,3.11,4.25c0.25,0.27,0.64,0.55,0.29,0.89c-1.32,1.26-1.18,3.02-1.78,4.57
	c-0.67,1.75-1.49,3.39-2.48,4.98c-0.95,1.52,0.09,4.31,1.85,4.22c3.09-0.02,4.71,0.35,5.47,3.81c0.17,0.8,0.81,1,1.53,1.43
	c-1.02,1.06-1.89,1.57-3.35,1.48c-1.68-0.11-2.58,0.8-2.69,2.49c-0.01,0.18,0.01,0.37-0.01,0.55c-0.31,2.76,0.11,2.13-2.67,2.36
	c-1.86,0.15-3.16,1.36-5.11,1.28c-0.48-0.02-1.26,1.04-1.22,1.53c0.22,3.54-2.33,5.45-4.42,7.63c-1.63,0.82-2.57,0.28-4.11-0.11
	c-0.99-0.25-1.93-0.69-2.98-0.74c-0.43-0.02-0.9-0.1-1.18-0.42c-2.28-2.59-5.58-2.13-8.45-2.52c-1.97-0.27-4.09-0.32-6.14-0.3
	c-1.26,0.01-2.11,0.38-2.73,1.63c-1.17,2.33-3.58,2.92-5.86,1.65c-0.21-0.12-0.43-0.23-0.63-0.36c-0.61-0.41-1.91-0.24-1.8-1.18
	c0.15-1.2,1.17-2.08,2.09-2.87c0.31-0.26,0.73-0.05,1.01,0.16c1.17,0.87,2.14,0.41,3.11-0.38c1.35-1.1,2.52-2.41,4.12-3.25
	c0.99-0.52,1.39-1.66,1.2-2.85c-0.13-0.78,0.03-1.38,0.9-1.45c1.47-0.12,1.86-1.1,2.07-2.33c0.14-0.84,0.18-1.69,0.3-2.53
	c0.1-0.75,0.45-1.25,1.29-1.24c0.64,0.01,1.56,0.57,1.54-0.75c-0.02-1.15,0.11-2.37-1.22-2.97c-0.17-0.07-0.35-0.1-0.53-0.14
	c-2.7-0.59-3.74-2.5-2.82-5.14c0.17-0.49,0.46-0.93,0.94-1.05c2.46-0.61,3.53-2.7,4.14-4.67c1.64-5.24,3.66-10.44,3.52-16.09
	c-0.01-0.42-0.04-0.88,0.12-1.26c1.56-3.55,0.78-7.3,0.95-10.97c0.02-0.42,0.08-0.92-0.14-1.25c-1.93-2.92-0.94-6.41-1.92-9.52
	c-0.79-2.55-1.03-5.22-0.85-7.91c0.1-1.54-0.99-2.73-1.26-4.13c-0.62-3.17-2.27-6.05-2.35-9.4c-0.04-1.57-1.13-3.05-1.98-4.45
	c-0.8-1.31-0.96-2.53-0.17-3.92c1.04-1.83,0.82-3.61-0.53-5.24c-0.85-1.03-1.64-2.11-2.35-3.24c-0.46-0.74-0.83-1.51-0.79-2.39
	c0.08-1.95-0.51-3.67-1.47-5.36c-1.29-2.28-2.02-4.79-2.61-7.35c-0.48-2.06-1.84-3.69-2.94-5.4c-1.11-1.73-2.3-3.42-3.33-5.2
	c-0.77-1.33-1.82-2.05-3.45-1.77c-1.27,0.21-2.54-0.11-3.8-0.28c-1.67-0.23-3.04-3.12-2.19-4.61c0.57-1,0.75-1.84,0.07-2.85
	C61.32,168.49,61.69,167.82,62.8,166.91z"/>
</svg>
