<?xml version="1.0" encoding="utf-8"?>
<!-- Generator: Adobe Illustrator 24.1.2, SVG Export Plug-In . SVG Version: 6.00 Build 0)  -->
<svg version="1.1" xmlns="http://www.w3.org/2000/svg" xmlns:xlink="http://www.w3.org/1999/xlink" x="0px" y="0px"
	 viewBox="0 0 570 740" style="enable-background:new 0 0 570 740;" xml:space="preserve">
<style type="text/css">
	.st0{fill:#222221;}
	.st1{fill:#E5A430;stroke:#272525;stroke-width:0.5;stroke-miterlimit:10;}
	.st2{fill:#7E7D7E;stroke:#272525;stroke-width:0.5;stroke-linecap:round;stroke-linejoin:round;stroke-miterlimit:10;}
	.st3{fill:#D9782D;stroke:#272525;stroke-width:0.5;stroke-linecap:round;stroke-linejoin:round;stroke-miterlimit:10;}
	.st4{fill:#E0955C;stroke:#272525;stroke-width:0.5;stroke-linecap:round;stroke-linejoin:round;stroke-miterlimit:10;}
	.st5{fill:#E5A430;stroke:#272525;stroke-width:0.5;stroke-linecap:round;stroke-linejoin:round;stroke-miterlimit:10;}
	.st6{fill:#F6EECF;stroke:#272525;stroke-width:0.5;stroke-linecap:round;stroke-linejoin:round;stroke-miterlimit:10;}
	.st7{fill:#34ACB0;stroke:#272525;stroke-width:0.5;stroke-linecap:round;stroke-linejoin:round;stroke-miterlimit:10;}
	.st8{fill:#0072AA;}
	.st9{fill:#FFFFFF;}
	.st10{fill:#222220;}
	.st11{fill-rule:evenodd;clip-rule:evenodd;fill:#0072AA;}
	.st12{fill:none;}
	.st13{fill-rule:evenodd;clip-rule:evenodd;fill:#FFFFFF;}
	.st14{fill:#848282;}
	.st15{fill:#D9782D;stroke:#272525;stroke-width:0.5;stroke-miterlimit:10;}
	.st16{fill:#E0955C;stroke:#272525;stroke-width:0.5;stroke-miterlimit:10;}
	.st17{fill:#34ACB0;stroke:#272525;stroke-width:0.5;stroke-miterlimit:10;}
	.st18{fill:#7E7D7E;stroke:#272525;stroke-width:0.5;stroke-miterlimit:10;}
</style>
<g id="Mapas">
</g>
<g id="Texto">
	<g>
		<g>
			<path class="st0" d="M65.28,39.65c0,1.9-1.43,3.08-3.71,3.08h-1.72v2.35h-1.98v-8.53h3.69C63.85,36.55,65.28,37.74,65.28,39.65z
				 M63.28,39.65c0-0.94-0.61-1.49-1.82-1.49h-1.61v2.96h1.61C62.67,41.13,63.28,40.58,63.28,39.65z"/>
			<path class="st0" d="M66.68,36.55h1.98v8.53h-1.98V36.55z"/>
			<path class="st0" d="M70.01,44.25l0.67-1.49c0.72,0.52,1.79,0.89,2.82,0.89c1.17,0,1.65-0.39,1.65-0.91c0-1.6-4.96-0.5-4.96-3.67
				c0-1.45,1.17-2.66,3.6-2.66c1.07,0,2.17,0.26,2.96,0.76l-0.61,1.5c-0.79-0.45-1.61-0.67-2.37-0.67c-1.17,0-1.62,0.44-1.62,0.98
				c0,1.57,4.96,0.49,4.96,3.62c0,1.43-1.18,2.65-3.62,2.65C72.13,45.23,70.77,44.83,70.01,44.25z"/>
			<path class="st0" d="M77.93,40.82c0-2.54,1.97-4.41,4.67-4.41c2.68,0,4.67,1.87,4.67,4.41c0,2.55-1.99,4.41-4.67,4.41
				C79.9,45.23,77.93,43.36,77.93,40.82z M85.27,40.82c0-1.62-1.15-2.73-2.67-2.73c-1.52,0-2.67,1.11-2.67,2.73
				c0,1.62,1.15,2.73,2.67,2.73C84.12,43.55,85.27,42.44,85.27,40.82z"/>
			<path class="st0" d="M98.05,43.48v1.61H91.6v-1.28l3.29-3.11c0.76-0.72,0.89-1.16,0.89-1.57c0-0.67-0.46-1.06-1.37-1.06
				c-0.73,0-1.35,0.28-1.77,0.85l-1.44-0.93c0.66-0.96,1.85-1.58,3.39-1.58c1.9,0,3.17,0.98,3.17,2.52c0,0.83-0.23,1.58-1.43,2.69
				l-1.96,1.85H98.05z"/>
		</g>
	</g>
	<g>
		<polygon class="st2" points="55.67,138.71 146.83,138.71 146.88,238.66 168.48,238.66 168.48,286.61 146.85,286.61 146.85,348.81 
			145.1,348.81 145.1,419.29 55.74,419.2 		"/>
		<polyline class="st6" points="98.41,533.92 98.41,450.46 117.04,450.46 117.04,435.37 147.44,435.37 161.67,443.08 161.67,521.7 
			147.44,533.92 98.41,533.92 		"/>
		<polyline class="st6" points="146.85,320.85 146.85,286.61 168.48,286.61 168.48,320.85 146.85,320.85 		"/>
		<polyline class="st3" points="146.85,238.66 146.85,204.43 168.48,204.43 168.48,238.66 146.85,238.66 		"/>
		<polyline class="st3" points="169.66,384.8 208,384.8 208,359.09 168.48,359.09 168.48,384.8 169.66,384.8 		"/>
		<polyline class="st6" points="208,409.55 208,384.8 168.48,384.8 168.48,409.55 208,409.55 		"/>
		<polyline class="st6" points="208,359.09 168.48,359.09 168.48,347.34 146.85,347.34 146.85,320.85 168.48,320.85 168.48,321.05 
			180.82,333.36 202.63,333.36 208,338.73 208,359.09 168.48,359.09 		"/>
		<rect x="304.66" y="540.94" class="st6" width="21.09" height="49.71"/>
		<rect x="283.73" y="540.94" class="st6" width="20.93" height="49.71"/>
		<polyline class="st7" points="199.9,590.64 199.9,540.94 241.85,540.94 241.85,590.64 199.9,590.64 		"/>
		<rect x="241.85" y="540.94" class="st7" width="41.88" height="49.71"/>
		<polyline class="st6" points="157.23,590.64 157.23,540.94 176.78,540.94 176.78,590.64 157.23,590.64 		"/>
		<polyline class="st7" points="176.78,590.64 199.9,590.64 199.9,540.94 176.78,540.94 176.78,590.64 		"/>
		<polyline class="st5" points="278.97,472.2 305.94,472.2 305.94,460.51 278.97,460.51 278.97,472.2 		"/>
		<polyline class="st6" points="325.74,436 325.74,436.07 325.74,446.67 274.95,418.43 274.95,409.97 330.99,409.97 330.99,436 
			325.74,436 		"/>
		<polyline class="st5" points="283.07,384.8 313.75,384.8 331,384.8 331,359.09 270.44,359.09 270.44,384.8 283.07,384.8 		"/>
		<rect x="270.44" y="409.97" class="st5" width="4.51" height="10.62"/>
		<rect x="270.44" y="384.8" class="st6" width="60.55" height="25.17"/>
		<polyline class="st6" points="331,359.09 270.44,359.09 270.44,338.73 275.81,333.36 297.62,333.36 309.96,321.05 309.96,291.57 
			331,291.57 331,359.09 		"/>
		<polyline class="st5" points="309.96,262.3 309.96,233.02 331,233.02 331,262.3 309.96,262.3 		"/>
		<rect x="309.96" y="262.3" class="st5" width="21.04" height="29.27"/>
		<rect x="309.96" y="203.01" class="st5" width="21.04" height="30.02"/>
		<polygon class="st2" points="325.74,642.72 421.32,640.71 421.32,611.48 431.31,611.46 430.12,77.78 331,77.78 331,436 
			325.74,436 		"/>
		<polyline class="st4" points="280.14,156.82 320.47,156.82 320.47,128.33 331.02,128.33 331.02,77.78 268.46,77.78 268.46,156.82 
			280.14,156.82 		"/>
		<line class="st4" x1="197.12" y1="188.98" x2="197.12" y2="156.82"/>
		<polygon class="st4" points="209.98,77.78 186.03,77.78 55.67,77.78 55.67,138.71 146.83,138.71 146.83,127 159.12,127 
			159.12,133.33 159.12,156.82 159.12,188.98 197.12,188.98 197.12,156.82 209.98,156.82 		"/>
		<rect x="280.15" y="156.82" class="st4" width="40.32" height="35.66"/>
		<polygon class="st6" points="207.95,416.72 177.1,432.9 168.48,432.9 168.48,409.55 207.95,409.55 		"/>
		<g>
			<g>
				<path class="st10" d="M319.87,278.42c0,1.42-1.09,2.71-3.48,2.71c-1.18,0-2.39-0.32-3.2-0.9l0.75-1.49
					c0.64,0.48,1.52,0.76,2.4,0.76c0.97,0,1.57-0.4,1.57-1.08c0-0.64-0.47-1.03-1.57-1.03h-0.89v-1.28l1.73-1.96h-3.57v-1.56h5.88
					v1.26l-1.89,2.16C319.11,276.25,319.87,277.18,319.87,278.42z"/>
				<path class="st10" d="M327.35,272.59v1.26l-3.12,7.14h-2.11l3.01-6.81h-2.78v1.37h-1.73v-2.95H327.35z"/>
			</g>
		</g>
		<g>
			<g>
				<path class="st10" d="M319.63,249.14c0,1.42-1.09,2.71-3.48,2.71c-1.18,0-2.39-0.32-3.2-0.9l0.75-1.49
					c0.64,0.48,1.52,0.76,2.4,0.76c0.97,0,1.57-0.4,1.57-1.08c0-0.64-0.47-1.03-1.57-1.03h-0.89v-1.28l1.73-1.96h-3.57v-1.56h5.88
					v1.26l-1.89,2.16C318.87,246.97,319.63,247.91,319.63,249.14z"/>
				<path class="st10" d="M327.57,249.28c0,1.58-1.42,2.58-3.55,2.58c-2.12,0-3.53-1-3.53-2.58c0-0.9,0.47-1.57,1.27-1.98
					c-0.62-0.38-0.97-0.97-0.97-1.73c0-1.48,1.32-2.4,3.23-2.4c1.93,0,3.25,0.92,3.25,2.4c0,0.76-0.36,1.34-0.98,1.73
					C327.1,247.7,327.57,248.38,327.57,249.28z M325.6,249.21c0-0.74-0.61-1.2-1.58-1.2c-0.96,0-1.56,0.46-1.56,1.2
					c0,0.74,0.6,1.21,1.56,1.21C324.99,250.43,325.6,249.96,325.6,249.21z M322.72,245.65c0,0.64,0.5,1.03,1.3,1.03
					c0.8,0,1.32-0.4,1.32-1.03c0-0.66-0.53-1.06-1.32-1.06C323.24,244.6,322.72,244.99,322.72,245.65z"/>
			</g>
		</g>
		<g>
			<g>
				<path class="st10" d="M319.77,218.5c0,1.42-1.09,2.71-3.48,2.71c-1.18,0-2.39-0.32-3.2-0.9l0.75-1.49
					c0.64,0.48,1.52,0.76,2.4,0.76c0.97,0,1.57-0.4,1.57-1.08c0-0.64-0.47-1.03-1.57-1.03h-0.89v-1.28l1.73-1.96h-3.57v-1.56h5.88
					v1.26l-1.89,2.16C319,216.33,319.77,217.26,319.77,218.5z"/>
				<path class="st10" d="M327.38,216.69c0,2.9-1.74,4.52-4.28,4.52c-0.89,0-1.74-0.2-2.33-0.58l0.72-1.43
					c0.46,0.31,1,0.42,1.57,0.42c1.39,0,2.3-0.83,2.36-2.45c-0.49,0.49-1.21,0.76-2.09,0.76c-1.62,0-2.89-1.03-2.89-2.62
					c0-1.71,1.4-2.79,3.18-2.79C325.95,212.53,327.38,213.98,327.38,216.69z M325.21,215.22c0-0.72-0.54-1.25-1.46-1.25
					c-0.83,0-1.4,0.48-1.4,1.25s0.56,1.26,1.43,1.26C324.62,216.48,325.21,215.96,325.21,215.22z"/>
			</g>
		</g>
		<g>
			<g>
				<path class="st10" d="M300.26,173.93h-1.37v1.76H297v-1.76h-4.52v-1.31l3.96-5.33h2.04l-3.67,5.05h2.25v-1.57h1.83v1.57h1.37
					V173.93z"/>
				<path class="st10" d="M300.84,171.5c0-2.77,1.54-4.34,3.6-4.34c2.08,0,3.6,1.57,3.6,4.34s-1.52,4.34-3.6,4.34
					C302.38,175.84,300.84,174.27,300.84,171.5z M306.08,171.5c0-1.91-0.67-2.7-1.64-2.7c-0.96,0-1.63,0.79-1.63,2.7
					c0,1.91,0.67,2.7,1.63,2.7C305.41,174.2,306.08,173.41,306.08,171.5z"/>
			</g>
		</g>
		<g>
			<g>
				<path class="st10" d="M301.98,115.07h-1.37v1.76h-1.89v-1.76h-4.52v-1.31l3.96-5.33h2.04l-3.67,5.05h2.25v-1.57h1.83v1.57h1.37
					V115.07z"/>
				<path class="st10" d="M305.8,108.44v8.4h-1.94V110h-1.68v-1.56H305.8z"/>
			</g>
		</g>
		<g>
			<g>
				<path class="st10" d="M132.07,111.36v1.58h-6.34v-1.26l3.24-3.06c0.74-0.71,0.88-1.14,0.88-1.55c0-0.66-0.46-1.04-1.34-1.04
					c-0.72,0-1.33,0.28-1.74,0.84l-1.42-0.91c0.65-0.95,1.82-1.56,3.33-1.56c1.87,0,3.12,0.96,3.12,2.48c0,0.82-0.23,1.56-1.4,2.65
					l-1.93,1.82H132.07z"/>
				<path class="st10" d="M139.9,110.51c0,1.58-1.42,2.58-3.55,2.58c-2.12,0-3.53-1-3.53-2.58c0-0.9,0.47-1.57,1.27-1.98
					c-0.62-0.38-0.97-0.97-0.97-1.73c0-1.48,1.32-2.4,3.23-2.4c1.93,0,3.25,0.92,3.25,2.4c0,0.76-0.36,1.34-0.98,1.73
					C139.43,108.94,139.9,109.61,139.9,110.51z M137.94,110.45c0-0.74-0.61-1.2-1.58-1.2c-0.96,0-1.56,0.46-1.56,1.2
					c0,0.74,0.6,1.21,1.56,1.21C137.32,111.66,137.94,111.19,137.94,110.45z M135.06,106.89c0,0.64,0.5,1.03,1.3,1.03
					c0.8,0,1.32-0.4,1.32-1.03c0-0.66-0.53-1.06-1.32-1.06C135.57,105.83,135.06,106.23,135.06,106.89z"/>
			</g>
		</g>
		<g>
			<g>
				<path class="st10" d="M157.05,223.01v1.58h-6.34v-1.26l3.24-3.06c0.74-0.71,0.88-1.14,0.88-1.55c0-0.66-0.46-1.04-1.34-1.04
					c-0.72,0-1.33,0.28-1.74,0.84l-1.42-0.91c0.65-0.95,1.82-1.56,3.33-1.56c1.87,0,3.12,0.96,3.12,2.48c0,0.82-0.23,1.56-1.4,2.65
					l-1.93,1.82H157.05z"/>
				<path class="st10" d="M164.56,220.22c0,2.9-1.74,4.52-4.28,4.52c-0.89,0-1.74-0.2-2.33-0.58l0.72-1.43
					c0.46,0.31,1,0.42,1.57,0.42c1.39,0,2.3-0.83,2.36-2.45c-0.49,0.49-1.21,0.76-2.09,0.76c-1.62,0-2.89-1.03-2.89-2.62
					c0-1.71,1.4-2.79,3.18-2.79C163.13,216.06,164.56,217.51,164.56,220.22z M162.39,218.75c0-0.72-0.54-1.25-1.46-1.25
					c-0.83,0-1.4,0.48-1.4,1.25s0.56,1.26,1.43,1.26C161.8,220.01,162.39,219.49,162.39,218.75z"/>
			</g>
		</g>
		<g>
			<g>
				<path class="st10" d="M259.38,416.4c0,1.42-1.09,2.71-3.48,2.71c-1.18,0-2.39-0.32-3.2-0.9l0.75-1.49
					c0.64,0.48,1.52,0.76,2.4,0.76c0.97,0,1.57-0.4,1.57-1.08c0-0.64-0.47-1.03-1.57-1.03h-0.89v-1.28l1.73-1.96h-3.57v-1.56h5.88
					v1.26l-1.89,2.16C258.61,414.23,259.38,415.17,259.38,416.4z"/>
				<path class="st10" d="M266.63,416.33c0,1.49-1.09,2.78-3.49,2.78c-1.16,0-2.39-0.32-3.2-0.9l0.77-1.49
					c0.64,0.48,1.51,0.76,2.39,0.76c0.97,0,1.57-0.41,1.57-1.09c0-0.66-0.43-1.09-1.96-1.09h-2.15l0.43-4.73h5.12v1.56h-3.5
					l-0.13,1.59h0.68C265.64,413.73,266.63,414.84,266.63,416.33z"/>
			</g>
		</g>
		<g>
			<g>
				<path class="st10" d="M290.94,454.56c0,1.42-1.09,2.71-3.48,2.71c-1.18,0-2.39-0.32-3.2-0.9l0.75-1.49
					c0.64,0.48,1.52,0.76,2.4,0.76c0.97,0,1.57-0.4,1.57-1.08c0-0.64-0.47-1.03-1.57-1.03h-0.89v-1.28l1.73-1.96h-3.57v-1.56h5.88
					v1.26l-1.89,2.16C290.17,452.39,290.94,453.33,290.94,454.56z"/>
				<path class="st10" d="M299.53,455.37h-1.37v1.76h-1.89v-1.76h-4.52v-1.31l3.96-5.33h2.04l-3.67,5.05h2.25v-1.57h1.83v1.57h1.37
					V455.37z"/>
			</g>
		</g>
		<g>
			<g>
				<path class="st10" d="M261.81,564.28c0,1.42-1.09,2.71-3.48,2.71c-1.18,0-2.39-0.32-3.2-0.9l0.75-1.49
					c0.64,0.48,1.52,0.76,2.4,0.76c0.97,0,1.57-0.4,1.57-1.08c0-0.64-0.47-1.03-1.57-1.03h-0.89v-1.28l1.73-1.96h-3.57v-1.56h5.88
					v1.26l-1.89,2.16C261.04,562.11,261.81,563.05,261.81,564.28z"/>
				<path class="st10" d="M268.91,564.28c0,1.42-1.09,2.71-3.48,2.71c-1.18,0-2.39-0.32-3.2-0.9l0.75-1.49
					c0.64,0.48,1.52,0.76,2.4,0.76c0.97,0,1.57-0.4,1.57-1.08c0-0.64-0.47-1.03-1.57-1.03h-0.89v-1.28l1.73-1.96h-3.57v-1.56h5.88
					v1.26l-1.89,2.16C268.14,562.11,268.91,563.05,268.91,564.28z"/>
			</g>
		</g>
		<g>
			<g>
				<path class="st10" d="M219.71,564.28c0,1.42-1.09,2.71-3.48,2.71c-1.18,0-2.39-0.32-3.2-0.9l0.75-1.49
					c0.64,0.48,1.52,0.76,2.4,0.76c0.97,0,1.57-0.4,1.57-1.08c0-0.64-0.47-1.03-1.57-1.03h-0.89v-1.28l1.73-1.96h-3.57v-1.56h5.88
					v1.26l-1.89,2.16C218.95,562.11,219.71,563.05,219.71,564.28z"/>
				<path class="st10" d="M226.89,565.27v1.58h-6.34v-1.26l3.24-3.06c0.74-0.71,0.88-1.14,0.88-1.55c0-0.66-0.46-1.04-1.34-1.04
					c-0.72,0-1.33,0.28-1.74,0.84l-1.42-0.91c0.65-0.95,1.82-1.56,3.33-1.56c1.87,0,3.12,0.96,3.12,2.48c0,0.82-0.23,1.56-1.4,2.65
					l-1.93,1.82H226.89z"/>
			</g>
		</g>
		<g>
			<g>
				<path class="st10" d="M189.11,564.28c0,1.42-1.09,2.71-3.48,2.71c-1.18,0-2.39-0.32-3.2-0.9l0.75-1.49
					c0.64,0.48,1.52,0.76,2.4,0.76c0.97,0,1.57-0.4,1.57-1.08c0-0.64-0.47-1.03-1.57-1.03h-0.89v-1.28l1.73-1.96h-3.57v-1.56h5.88
					v1.26l-1.89,2.16C188.34,562.11,189.11,563.05,189.11,564.28z"/>
				<path class="st10" d="M193.25,558.45v8.4h-1.94v-6.84h-1.68v-1.56H193.25z"/>
			</g>
		</g>
		<g>
			<g>
				<path class="st10" d="M187.26,373.43c0,1.42-1.09,2.71-3.48,2.71c-1.18,0-2.39-0.32-3.2-0.9l0.75-1.49
					c0.64,0.48,1.52,0.76,2.4,0.76c0.97,0,1.57-0.4,1.57-1.08c0-0.64-0.47-1.03-1.57-1.03h-0.89v-1.28l1.73-1.96H181v-1.56h5.88
					v1.26l-1.89,2.16C186.49,371.26,187.26,372.2,187.26,373.43z"/>
				<path class="st10" d="M188.16,371.8c0-2.77,1.54-4.34,3.6-4.34c2.08,0,3.6,1.57,3.6,4.34s-1.52,4.34-3.6,4.34
					C189.7,376.14,188.16,374.57,188.16,371.8z M193.4,371.8c0-1.91-0.67-2.7-1.64-2.7c-0.96,0-1.63,0.79-1.63,2.7
					c0,1.91,0.67,2.7,1.63,2.7C192.73,374.5,193.4,373.71,193.4,371.8z"/>
			</g>
		</g>
		<g>
			<g>
				<path class="st10" d="M301.02,373.43c0,1.42-1.09,2.71-3.48,2.71c-1.18,0-2.39-0.32-3.2-0.9l0.75-1.49
					c0.64,0.48,1.52,0.76,2.4,0.76c0.97,0,1.57-0.4,1.57-1.08c0-0.64-0.47-1.03-1.57-1.03h-0.89v-1.28l1.73-1.96h-3.57v-1.56h5.88
					v1.26l-1.89,2.16C300.25,371.26,301.02,372.2,301.02,373.43z"/>
				<path class="st10" d="M308.85,373.35c0,1.71-1.4,2.79-3.18,2.79c-2.31,0-3.75-1.45-3.75-4.16c0-2.9,1.75-4.52,4.28-4.52
					c0.89,0,1.75,0.2,2.34,0.58l-0.72,1.43c-0.47-0.31-1.01-0.42-1.57-0.42c-1.4,0-2.3,0.83-2.36,2.43c0.49-0.49,1.2-0.74,2.08-0.74
					C307.58,370.73,308.85,371.77,308.85,373.35z M306.97,373.44c0-0.77-0.56-1.26-1.43-1.26c-0.85,0-1.45,0.53-1.45,1.26
					c0,0.72,0.54,1.25,1.47,1.25C306.39,374.69,306.97,374.21,306.97,373.44z"/>
			</g>
		</g>
		<g>
			<path class="st8" d="M122.39,579.41c-0.1,0-0.2-0.03-0.29-0.09c-0.53-0.4-12.93-9.55-12.93-18.02c0-7.3,5.92-13.22,13.22-13.22
				c7.3,0,13.22,5.92,13.22,13.22c0,8.48-12.4,17.63-12.93,18.02C122.59,579.38,122.49,579.41,122.39,579.41z"/>
			<path class="st9" d="M122.39,549.06c-6.76,0-12.24,5.48-12.24,12.24c0,7.29,10.36,15.58,12.24,17.02
				c1.88-1.44,12.24-9.72,12.24-17.02C134.63,554.54,129.15,549.06,122.39,549.06z"/>
			<circle class="st8" cx="122.63" cy="561.05" r="8.57"/>
			<g>
				<path class="st9" d="M118.49,557.9c-0.69,0-1.25-0.56-1.25-1.25c0-0.69,0.56-1.25,1.25-1.25c0.69,0,1.25,0.56,1.25,1.25
					C119.74,557.34,119.18,557.9,118.49,557.9z M118.49,556.02c-0.35,0-0.63,0.28-0.63,0.63c0,0.35,0.28,0.64,0.63,0.64
					c0.35,0,0.64-0.28,0.64-0.64C119.12,556.3,118.84,556.02,118.49,556.02z"/>
				<path class="st9" d="M116.43,563.43c-0.17,0-0.31-0.14-0.31-0.31v-2.6c0-1.39,0.77-2.06,2.37-2.06c0.17,0,0.31,0.14,0.31,0.31
					s-0.14,0.31-0.31,0.31c-1.45,0-1.75,0.58-1.75,1.44v2.6C116.74,563.29,116.6,563.43,116.43,563.43z"/>
				<path class="st9" d="M120.54,563.43c-0.17,0-0.31-0.14-0.31-0.31v-2.6c0-0.87-0.3-1.44-1.75-1.44c-0.17,0-0.31-0.14-0.31-0.31
					s0.14-0.31,0.31-0.31c1.59,0,2.37,0.67,2.37,2.06v2.6C120.85,563.29,120.71,563.43,120.54,563.43z"/>
				<path class="st9" d="M124.13,563.51c-0.01,0-0.03,0-0.04,0c-0.17-0.02-0.29-0.18-0.27-0.34c0.01-0.07,0.22-1.75,0.36-2.55
					c0.19-1.09,0.54-2.15,2.44-2.15c0.17,0,0.31,0.14,0.31,0.31s-0.14,0.31-0.31,0.31c-1.43,0-1.66,0.65-1.83,1.64
					c-0.14,0.79-0.35,2.5-0.36,2.52C124.41,563.39,124.28,563.51,124.13,563.51z"/>
				<path class="st9" d="M129.11,563.51c-0.15,0-0.29-0.11-0.31-0.27c0-0.02-0.22-1.73-0.36-2.52c-0.18-0.99-0.4-1.64-1.83-1.64
					c-0.17,0-0.31-0.14-0.31-0.31s0.14-0.31,0.31-0.31c1.9,0,2.25,1.06,2.44,2.15c0.14,0.8,0.35,2.48,0.36,2.55
					c0.02,0.17-0.1,0.32-0.27,0.34C129.14,563.51,129.13,563.51,129.11,563.51z"/>
				<path class="st9" d="M119.64,566.87h-2.3v-6.2c0-0.17,0.14-0.31,0.31-0.31s0.31,0.14,0.31,0.31v5.58h1.07v-5.58
					c0-0.17,0.14-0.31,0.31-0.31s0.31,0.14,0.31,0.31V566.87z"/>
				<path class="st9" d="M126.62,557.9c-0.69,0-1.25-0.56-1.25-1.25c0-0.69,0.56-1.25,1.25-1.25c0.69,0,1.25,0.56,1.25,1.25
					C127.87,557.34,127.31,557.9,126.62,557.9z M126.62,556.02c-0.35,0-0.63,0.28-0.63,0.63c0,0.35,0.28,0.64,0.63,0.64
					c0.35,0,0.64-0.28,0.64-0.64C127.26,556.3,126.97,556.02,126.62,556.02z"/>
				<path class="st9" d="M126.62,566.87h-1.02v-2.05h-0.91l0.68-4.34c0.03-0.17,0.18-0.28,0.35-0.26c0.17,0.03,0.28,0.18,0.26,0.35
					l-0.57,3.63h0.8v2.05h0.4c0.17,0,0.31,0.14,0.31,0.31C126.93,566.73,126.79,566.87,126.62,566.87z"/>
				<path class="st9" d="M127.64,566.87h-1.02c-0.17,0-0.31-0.14-0.31-0.31c0-0.17,0.14-0.31,0.31-0.31h0.4v-2.05h0.8l-0.57-3.63
					c-0.03-0.17,0.09-0.33,0.26-0.35c0.17-0.03,0.33,0.09,0.35,0.26l0.68,4.34h-0.91V566.87z"/>
				<path class="st9" d="M122.49,568.18c-0.17,0-0.31-0.14-0.31-0.31v-13.61c0-0.17,0.14-0.31,0.31-0.31s0.31,0.14,0.31,0.31v13.61
					C122.8,568.04,122.66,568.18,122.49,568.18z"/>
			</g>
		</g>
		<g>
			<path class="st8" d="M124.55,641.54c-0.1,0-0.2-0.03-0.29-0.09c-0.53-0.4-12.93-9.55-12.93-18.02c0-7.3,5.92-13.22,13.22-13.22
				c7.3,0,13.22,5.92,13.22,13.22c0,8.48-12.4,17.63-12.93,18.02C124.75,641.5,124.65,641.54,124.55,641.54z"/>
			<path class="st9" d="M124.55,611.18c-6.76,0-12.24,5.48-12.24,12.24c0,7.29,10.36,15.58,12.24,17.02
				c1.88-1.44,12.24-9.72,12.24-17.02C136.79,616.66,131.31,611.18,124.55,611.18z"/>
			<circle class="st8" cx="124.79" cy="623.17" r="8.57"/>
			<g>
				<path class="st9" d="M120.65,620.03c-0.69,0-1.25-0.56-1.25-1.25c0-0.69,0.56-1.25,1.25-1.25c0.69,0,1.25,0.56,1.25,1.25
					C121.9,619.46,121.34,620.03,120.65,620.03z M120.65,618.14c-0.35,0-0.63,0.28-0.63,0.63c0,0.35,0.28,0.64,0.63,0.64
					c0.35,0,0.64-0.28,0.64-0.64C121.28,618.42,121,618.14,120.65,618.14z"/>
				<path class="st9" d="M118.59,625.55c-0.17,0-0.31-0.14-0.31-0.31v-2.6c0-1.39,0.77-2.06,2.37-2.06c0.17,0,0.31,0.14,0.31,0.31
					s-0.14,0.31-0.31,0.31c-1.45,0-1.75,0.58-1.75,1.44v2.6C118.9,625.41,118.76,625.55,118.59,625.55z"/>
				<path class="st9" d="M122.7,625.55c-0.17,0-0.31-0.14-0.31-0.31v-2.6c0-0.87-0.3-1.44-1.75-1.44c-0.17,0-0.31-0.14-0.31-0.31
					s0.14-0.31,0.31-0.31c1.59,0,2.37,0.67,2.37,2.06v2.6C123.01,625.41,122.88,625.55,122.7,625.55z"/>
				<path class="st9" d="M126.29,625.63c-0.01,0-0.03,0-0.04,0c-0.17-0.02-0.29-0.18-0.27-0.34c0.01-0.07,0.22-1.75,0.36-2.55
					c0.19-1.09,0.54-2.15,2.44-2.15c0.17,0,0.31,0.14,0.31,0.31s-0.14,0.31-0.31,0.31c-1.43,0-1.66,0.65-1.83,1.64
					c-0.14,0.79-0.35,2.5-0.36,2.52C126.57,625.52,126.44,625.63,126.29,625.63z"/>
				<path class="st9" d="M131.27,625.63c-0.15,0-0.29-0.11-0.31-0.27c0-0.02-0.22-1.73-0.36-2.52c-0.18-0.99-0.4-1.64-1.83-1.64
					c-0.17,0-0.31-0.14-0.31-0.31s0.14-0.31,0.31-0.31c1.9,0,2.25,1.06,2.44,2.15c0.14,0.8,0.35,2.48,0.36,2.55
					c0.02,0.17-0.1,0.32-0.27,0.34C131.3,625.63,131.29,625.63,131.27,625.63z"/>
				<path class="st9" d="M121.8,628.99h-2.3v-6.2c0-0.17,0.14-0.31,0.31-0.31s0.31,0.14,0.31,0.31v5.58h1.07v-5.58
					c0-0.17,0.14-0.31,0.31-0.31s0.31,0.14,0.31,0.31V628.99z"/>
				<path class="st9" d="M128.78,620.03c-0.69,0-1.25-0.56-1.25-1.25c0-0.69,0.56-1.25,1.25-1.25c0.69,0,1.25,0.56,1.25,1.25
					C130.03,619.46,129.47,620.03,128.78,620.03z M128.78,618.14c-0.35,0-0.63,0.28-0.63,0.63c0,0.35,0.28,0.64,0.63,0.64
					c0.35,0,0.64-0.28,0.64-0.64C129.42,618.42,129.13,618.14,128.78,618.14z"/>
				<path class="st9" d="M128.78,628.99h-1.02v-2.05h-0.91l0.68-4.34c0.03-0.17,0.18-0.28,0.35-0.26c0.17,0.03,0.28,0.18,0.26,0.35
					l-0.57,3.63h0.8v2.05h0.4c0.17,0,0.31,0.14,0.31,0.31C129.09,628.85,128.95,628.99,128.78,628.99z"/>
				<path class="st9" d="M129.8,628.99h-1.02c-0.17,0-0.31-0.14-0.31-0.31c0-0.17,0.14-0.31,0.31-0.31h0.4v-2.05h0.8l-0.57-3.63
					c-0.03-0.17,0.09-0.33,0.26-0.35c0.17-0.03,0.33,0.09,0.35,0.26l0.68,4.34h-0.91V628.99z"/>
				<path class="st9" d="M124.65,630.3c-0.17,0-0.31-0.14-0.31-0.31v-13.61c0-0.17,0.14-0.31,0.31-0.31s0.31,0.14,0.31,0.31v13.61
					C124.96,630.17,124.82,630.3,124.65,630.3z"/>
			</g>
		</g>
		<g>
			<path class="st8" d="M211.47,232.84c-0.1,0-0.21-0.03-0.29-0.09c-0.53-0.4-12.93-9.55-12.93-18.02c0-7.3,5.92-13.22,13.22-13.22
				c7.3,0,13.22,5.92,13.22,13.22c0,8.48-12.4,17.63-12.93,18.02C211.67,232.81,211.57,232.84,211.47,232.84"/>
			<path class="st9" d="M211.47,202.48c-6.76,0-12.24,5.48-12.24,12.24c0,7.29,10.36,15.58,12.24,17.02
				c1.88-1.44,12.24-9.72,12.24-17.02C223.71,207.96,218.23,202.48,211.47,202.48"/>
			<path class="st11" d="M219.95,214.74c0,4.73-3.84,8.57-8.57,8.57c-4.73,0-8.57-3.84-8.57-8.57c0-4.73,3.84-8.57,8.57-8.57
				C216.12,206.17,219.95,210.01,219.95,214.74"/>
			<path class="st8" d="M211.38,206.6c4.49,0,8.14,3.65,8.14,8.14c0,4.49-3.65,8.14-8.14,8.14c-4.49,0-8.14-3.65-8.14-8.14
				C203.24,210.25,206.89,206.6,211.38,206.6 M211.38,206.17c-4.73,0-8.57,3.84-8.57,8.57c0,4.73,3.84,8.57,8.57,8.57
				c4.73,0,8.57-3.84,8.57-8.57C219.95,210.01,216.12,206.17,211.38,206.17"/>
			<path class="st9" d="M216.98,217.53c0-0.93-0.75-1.68-1.68-1.68h-0.86l-1.2-1.2v-2.72c0-0.31-0.25-0.56-0.56-0.56h-1.12
				c-0.31,0-0.56,0.25-0.56,0.56v0.48l-1.55-1.55c-0.03-0.04-0.08-0.05-0.13-0.05h-2.24c-0.93,0-1.68,0.75-1.68,1.68
				c0,0.93,0.75,1.68,1.68,1.68h0.86l4.66,4.66h-7.11v0.37h11.47v-0.37h-0.63C216.74,218.53,216.98,218.06,216.98,217.53
				 M211.39,211.93c0-0.1,0.08-0.19,0.19-0.19h1.12c0.1,0,0.19,0.08,0.19,0.19v2.35l-0.37-0.37v-1.79h-0.37v1.42l-0.75-0.75V211.93z
				 M213.14,218.84l-4.98-4.98c-0.03-0.04-0.08-0.05-0.13-0.05h-0.93c-0.72,0-1.31-0.59-1.31-1.31c0-0.72,0.59-1.31,1.31-1.31h2.16
				l4.98,4.98c0.04,0.04,0.08,0.06,0.13,0.06h0.93c0.72,0,1.31,0.59,1.31,1.31c0,0.72-0.59,1.31-1.31,1.31H213.14z"/>
			<path class="st9" d="M215.3,216.6h-1.23l-4.98-4.98c-0.04-0.04-0.08-0.06-0.13-0.06h-1.87c-0.51,0-0.93,0.42-0.93,0.93
				c0,0.51,0.42,0.93,0.93,0.93h1.23l4.98,4.98c0.03,0.04,0.08,0.05,0.13,0.05h1.87c0.51,0,0.93-0.42,0.93-0.93
				C216.24,217.02,215.82,216.6,215.3,216.6 M215.3,218.09h-1.79l-4.98-4.98c-0.04-0.04-0.08-0.05-0.13-0.05h-1.31
				c-0.31,0-0.56-0.25-0.56-0.56c0-0.31,0.25-0.56,0.56-0.56h1.79l4.98,4.98c0.03,0.04,0.08,0.05,0.13,0.05h1.31
				c0.31,0,0.56,0.25,0.56,0.56C215.86,217.84,215.61,218.09,215.3,218.09"/>
			<path class="st9" d="M212.13,211c0.41,0,0.75-0.33,0.75-0.75c0-0.41-0.33-0.75-0.75-0.75c-0.41,0-0.75,0.33-0.75,0.75
				C211.39,210.66,211.72,211,212.13,211 M212.13,209.88c0.21,0,0.37,0.17,0.37,0.37s-0.17,0.37-0.37,0.37
				c-0.21,0-0.37-0.17-0.37-0.37S211.93,209.88,212.13,209.88"/>
		</g>
		<g>
			<path class="st8" d="M266.97,232.84c-0.1,0-0.21-0.03-0.29-0.09c-0.53-0.4-12.93-9.55-12.93-18.02c0-7.3,5.92-13.22,13.22-13.22
				c7.3,0,13.22,5.92,13.22,13.22c0,8.48-12.4,17.63-12.93,18.02C267.18,232.81,267.07,232.84,266.97,232.84"/>
			<path class="st9" d="M266.97,202.48c-6.76,0-12.24,5.48-12.24,12.24c0,7.29,10.36,15.58,12.24,17.02
				c1.88-1.44,12.24-9.72,12.24-17.02C279.21,207.96,273.73,202.48,266.97,202.48"/>
			<path class="st11" d="M275.46,214.74c0,4.73-3.84,8.57-8.57,8.57c-4.73,0-8.57-3.84-8.57-8.57c0-4.73,3.84-8.57,8.57-8.57
				C271.62,206.17,275.46,210.01,275.46,214.74"/>
			<path class="st8" d="M266.89,206.6c4.49,0,8.14,3.65,8.14,8.14c0,4.49-3.65,8.14-8.14,8.14c-4.49,0-8.14-3.65-8.14-8.14
				C258.74,210.25,262.4,206.6,266.89,206.6 M266.89,206.17c-4.73,0-8.57,3.84-8.57,8.57c0,4.73,3.84,8.57,8.57,8.57
				s8.57-3.84,8.57-8.57C275.46,210.01,271.62,206.17,266.89,206.17"/>
			<path class="st9" d="M272.49,217.53c0-0.93-0.75-1.68-1.68-1.68h-0.86l-1.2-1.2v-2.72c0-0.31-0.25-0.56-0.56-0.56h-1.12
				c-0.31,0-0.56,0.25-0.56,0.56v0.48l-1.55-1.55c-0.03-0.04-0.08-0.05-0.13-0.05h-2.24c-0.93,0-1.68,0.75-1.68,1.68
				c0,0.93,0.75,1.68,1.68,1.68h0.86l4.66,4.66h-7.11v0.37h11.47v-0.37h-0.63C272.24,218.53,272.49,218.06,272.49,217.53
				 M266.89,211.93c0-0.1,0.08-0.19,0.19-0.19h1.12c0.1,0,0.19,0.08,0.19,0.19v2.35l-0.37-0.37v-1.79h-0.37v1.42l-0.75-0.75V211.93z
				 M268.65,218.84l-4.98-4.98c-0.03-0.04-0.08-0.05-0.13-0.05h-0.93c-0.72,0-1.31-0.59-1.31-1.31c0-0.72,0.59-1.31,1.31-1.31h2.16
				l4.98,4.98c0.04,0.04,0.08,0.06,0.13,0.06h0.93c0.72,0,1.31,0.59,1.31,1.31c0,0.72-0.59,1.31-1.31,1.31H268.65z"/>
			<path class="st9" d="M270.81,216.6h-1.23l-4.98-4.98c-0.04-0.04-0.08-0.06-0.13-0.06h-1.87c-0.51,0-0.93,0.42-0.93,0.93
				c0,0.51,0.42,0.93,0.93,0.93h1.23l4.98,4.98c0.03,0.04,0.08,0.05,0.13,0.05h1.87c0.51,0,0.93-0.42,0.93-0.93
				C271.74,217.02,271.32,216.6,270.81,216.6 M270.81,218.09h-1.79l-4.98-4.98c-0.04-0.04-0.08-0.05-0.13-0.05h-1.31
				c-0.31,0-0.56-0.25-0.56-0.56c0-0.31,0.25-0.56,0.56-0.56h1.79l4.98,4.98c0.03,0.04,0.08,0.05,0.13,0.05h1.31
				c0.31,0,0.56,0.25,0.56,0.56C271.37,217.84,271.12,218.09,270.81,218.09"/>
			<path class="st9" d="M267.64,211c0.41,0,0.75-0.33,0.75-0.75c0-0.41-0.33-0.75-0.75-0.75c-0.41,0-0.75,0.33-0.75,0.75
				C266.89,210.66,267.22,211,267.64,211 M267.64,209.88c0.21,0,0.37,0.17,0.37,0.37s-0.17,0.37-0.37,0.37
				c-0.21,0-0.37-0.17-0.37-0.37S267.43,209.88,267.64,209.88"/>
		</g>
		<g>
			<path class="st8" d="M241.06,57.77c-0.1,0-0.2-0.03-0.29-0.09c-0.53-0.4-12.93-9.55-12.93-18.02c0-7.3,5.92-13.22,13.22-13.22
				c7.3,0,13.22,5.92,13.22,13.22c0,8.48-12.4,17.63-12.93,18.02C241.26,57.74,241.16,57.77,241.06,57.77"/>
			<path class="st9" d="M241.06,27.42c-6.76,0-12.24,5.48-12.24,12.24c0,7.29,10.36,15.58,12.24,17.01
				c1.88-1.44,12.24-9.72,12.24-17.01C253.3,32.9,247.82,27.42,241.06,27.42"/>
			<path class="st11" d="M249.63,39.67c0,4.73-3.84,8.57-8.57,8.57c-4.73,0-8.57-3.84-8.57-8.57c0-4.73,3.84-8.57,8.57-8.57
				C245.79,31.1,249.63,34.94,249.63,39.67"/>
			<path class="st8" d="M241.06,31.55c2.17,0,4.21,0.85,5.74,2.38c1.53,1.53,2.38,3.57,2.38,5.74c0,2.17-0.85,4.21-2.38,5.74
				c-1.53,1.53-3.57,2.38-5.74,2.38c-2.17,0-4.21-0.85-5.74-2.38c-1.53-1.53-2.38-3.57-2.38-5.74c0-2.17,0.85-4.21,2.38-5.74
				C236.85,32.39,238.89,31.55,241.06,31.55 M241.06,31.1c-4.73,0-8.57,3.84-8.57,8.57c0,4.73,3.84,8.57,8.57,8.57
				c4.73,0,8.57-3.84,8.57-8.57C249.63,34.94,245.79,31.1,241.06,31.1"/>
			<path class="st9" d="M244.78,41.14c-0.08,0-0.17-0.04-0.22-0.11c-0.1-0.12-0.07-0.3,0.05-0.39l1.61-1.26l-1.61-1.26
				c-0.12-0.1-0.14-0.27-0.05-0.39c0.1-0.12,0.27-0.14,0.39-0.05l1.89,1.48c0.07,0.05,0.11,0.13,0.11,0.22
				c0,0.09-0.04,0.17-0.11,0.22l-1.89,1.48C244.9,41.12,244.84,41.14,244.78,41.14"/>
			<path class="st9" d="M246.67,39.66h-4.36c-0.15,0-0.28-0.13-0.28-0.28c0-0.16,0.13-0.28,0.28-0.28h4.36
				c0.16,0,0.28,0.13,0.28,0.28C246.95,39.53,246.82,39.66,246.67,39.66"/>
			<path class="st9" d="M241.58,39.66h-0.63c-0.16,0-0.28-0.13-0.28-0.28c0-0.16,0.13-0.28,0.28-0.28h0.63
				c0.16,0,0.28,0.13,0.28,0.28C241.86,39.53,241.73,39.66,241.58,39.66"/>
			<path class="st9" d="M236.03,42.58c0,0.01,0.07,0.27,0.26,1.07c0.01,0.11,0.08,0.2,0.18,0.25c0.39,0.2,0.72-0.42,0.77-0.87
				c0.04-0.01,0.08-0.03,0.12-0.05l0.96-0.63v0.87l-0.03,0.58c-0.01,0.17,0.08,0.31,0.24,0.32c0.01,0-0.08,0,1.34,0.01
				c0.24,0.03,0.43-0.19,0.35-0.41c-0.09-0.27-0.35-0.49-0.66-0.6l0.03-0.42c0.01-0.08-0.05-0.14-0.13-0.15
				c-0.08-0.01-0.14,0.05-0.15,0.13l-0.03,0.4h-0.68v-1.44c0-0.13-0.05-0.25-0.15-0.34c-0.16-0.14-0.27-0.32-0.34-0.49
				c0.21,0.2,0.25,0.2,0.3,0.27l0.18,0.29c0.2,0.31,0.63,0.3,0.8,0.05c0,0.06,0,0.03-0.04,0.6c-0.01,0.08,0.06,0.15,0.14,0.15
				c0.07,0,0.14-0.06,0.14-0.13c0-0.39,0.13-0.79-0.1-1.3l-0.29-0.65c0.16-0.78-0.03-1.77-0.23-2.17c-0.04-0.09-0.1-0.16-0.18-0.23
				c0.02-0.11,0.08-0.3,0.25-0.32c0.25-0.04,0.42-0.24,0.48-0.57c0.01-0.04,0.18,0,0.26-0.16c0.03-0.06,0.03-0.13,0-0.19l-0.11-0.26
				c0-0.08-0.01-0.28-0.06-0.47c0.27-0.26,0.25-0.57-0.03-0.84c-0.41-0.41-0.85-0.42-1.14-0.35c-0.28,0.06-0.48,0.2-0.53,0.23
				c-0.08,0.04-0.51,0.3-0.6,0.79c-0.07,0.41,0.11,0.86,0.54,1.33c0.02,0.09,0.07,0.41-0.11,0.68c-0.19,0.09-0.32,0.27-0.34,0.49
				l-0.03,0.37c-0.01,0.07,0.02,0.14,0.07,0.19c-0.03,0.1-0.06,0.22-0.07,0.35c-0.01,0.08,0.05,0.15,0.13,0.15
				c0.08,0.01,0.15-0.05,0.15-0.13c0.01-0.11,0.03-0.21,0.05-0.29l0.47,0.04c-0.03,0.68-0.2,0.72-0.12,0.85
				c0.73,1.08,0.63,1.02,0.74,1.08c0.29,0.16,0.29,0.16,0.28,0.17c-0.04,0.08-0.04,0.18,0.02,0.26c0,0,0.04,0.04,0.02,0.1
				c-0.03,0.12-0.26,0.16-0.36,0c-0.17-0.25-0.19-0.33-0.3-0.41c-0.13-0.1-0.58-0.47-0.75-0.97c-0.05-0.15-0.07-0.16-0.08-0.22
				c-0.02-0.08-0.09-0.12-0.17-0.1c-0.08,0.02-0.12,0.09-0.1,0.17c0.01,0.04,0.02,0.07,0.04,0.11c0.06,0.13,0.07,0.25,0.22,0.5
				c0,0.03,0.01,0.1,0.02,0.13c-0.11,0.2-0.19,0.55-0.14,0.9c0.01,0.06-0.02,0.11-0.07,0.14l-0.97,0.61l-0.3,0.14
				C236.08,42.28,236,42.43,236.03,42.58 M239,40.45c-0.03-0.05-0.07-0.11-0.11-0.19h0.13l0.12,0.26L239,40.45z M237.74,38.09
				c0.01-0.08,0.05-0.16,0.11-0.22c0.21-0.18,0.53-0.02,0.51,0.25l-0.03,0.36c-0.19-0.02-0.34-0.03-0.62-0.05L237.74,38.09z
				 M239.57,35.39c-0.07,0.25-0.63,0.47-0.98,0.56c-0.09,0.01-0.27-0.04-0.41,0.11c-0.14,0.15-0.07,0.32-0.08,0.4l-0.08,0.13
				c-0.29-0.36-0.42-0.68-0.37-0.97c0.07-0.4,0.46-0.6,0.46-0.6c0.01,0,0.01-0.01,0.02-0.01c0.03-0.02,0.71-0.52,1.31,0.09
				C239.61,35.26,239.58,35.36,239.57,35.39 M238.59,37.57c-0.14-0.05-0.3-0.06-0.45-0.05c0.1-0.28,0.07-0.54,0.04-0.66l0.18-0.29
				c0.04-0.06,0.01-0.11,0-0.27c0-0.03,0.02-0.06,0.06-0.06c0.02,0,0.1,0,0.18,0c0.06,0,0.52-0.13,0.82-0.31
				c0.04,0.24,0.02,0.32,0.04,0.37l0.1,0.23c-0.01,0-0.22,0.03-0.26,0.24c-0.02,0.12-0.08,0.32-0.25,0.34
				C238.81,37.14,238.66,37.33,238.59,37.57 M238.99,39.98c-0.32,0-0.27,0-0.28,0c-0.12-0.19-0.25-0.37-0.31-0.47
				c0.1-0.3,0.12-0.62,0.13-0.78c0.05-0.04,0.08-0.1,0.09-0.16c0.02-0.34,0.08-0.49-0.01-0.69c0.07,0.04,0.13,0.1,0.17,0.18
				C238.95,38.42,239.1,39.3,238.99,39.98 M238.6,43.37h0.81c0.23,0.06,0.48,0.22,0.56,0.45c0.01,0.02-0.03,0.04-0.06,0.04
				c-0.02,0,0.06,0-1.33-0.01C238.57,43.81,238.58,43.81,238.6,43.37 M237.2,42.74c-0.03,0.02-0.08,0.01-0.1-0.02l-0.32-0.48
				l0.85-0.54c0.14-0.09,0.22-0.25,0.2-0.42c-0.02-0.14-0.01-0.27,0.01-0.38c0.09,0.21,0.22,0.43,0.42,0.62
				c0.09,0.08,0.04,0.18,0.05,0.49L237.2,42.74z M236.34,42.47l0.2-0.09c0.32,0.47,0.32,0.52,0.42,0.59
				c-0.02,0.26-0.14,0.57-0.31,0.68c-0.03,0.02-0.07,0-0.07-0.04c0-0.02,0.01,0.04-0.26-1.08C236.3,42.51,236.32,42.48,236.34,42.47
				"/>
			<path class="st9" d="M239.92,44.17c-0.01,0-0.03,0-0.04,0l-1.08-0.01c-0.26,0-0.26,0-0.26,0c-0.17-0.01-0.28-0.16-0.27-0.36
				l0.03-0.58v-0.81l-0.91,0.6c-0.03,0.02-0.07,0.04-0.11,0.05c-0.04,0.32-0.21,0.73-0.47,0.87c-0.11,0.06-0.23,0.06-0.34,0.01
				c-0.11-0.05-0.18-0.16-0.2-0.28l-0.15-0.62c-0.1-0.39-0.11-0.45-0.11-0.45c-0.03-0.17,0.06-0.33,0.22-0.4l0.3-0.13l0.97-0.61
				c0.04-0.02,0.06-0.07,0.05-0.11c-0.05-0.38,0.05-0.72,0.14-0.91c-0.01-0.03-0.01-0.08-0.02-0.11c-0.1-0.17-0.14-0.28-0.17-0.37
				c-0.02-0.04-0.03-0.08-0.05-0.12c-0.02-0.04-0.03-0.07-0.04-0.11c-0.01-0.04,0-0.09,0.02-0.13c0.02-0.04,0.06-0.07,0.11-0.08
				c0.05-0.01,0.09,0,0.13,0.02c0.04,0.02,0.07,0.06,0.08,0.11c0.01,0.03,0.01,0.04,0.02,0.06c0.01,0.03,0.03,0.07,0.06,0.15
				c0.16,0.5,0.6,0.86,0.73,0.96c0.08,0.06,0.12,0.12,0.19,0.23c0.03,0.05,0.07,0.11,0.12,0.19c0.05,0.08,0.14,0.1,0.2,0.09
				c0.05-0.01,0.09-0.04,0.1-0.08c0.01-0.03,0-0.05-0.02-0.07l0,0c-0.06-0.08-0.07-0.18-0.03-0.27c-0.01,0-0.02-0.01-0.03-0.02
				c-0.04-0.02-0.11-0.06-0.23-0.13c-0.07-0.04-0.07-0.04-0.16-0.19c-0.08-0.14-0.24-0.39-0.59-0.9c-0.05-0.07-0.03-0.13,0-0.22
				c0.03-0.1,0.09-0.27,0.11-0.62l-0.42-0.04c-0.02,0.07-0.04,0.16-0.05,0.26c0,0.05-0.03,0.09-0.06,0.12
				c-0.04,0.03-0.08,0.04-0.13,0.04c-0.05,0-0.09-0.03-0.12-0.06c-0.03-0.04-0.04-0.08-0.04-0.13c0.01-0.13,0.03-0.24,0.06-0.34
				c-0.05-0.06-0.07-0.13-0.06-0.2l0.03-0.37c0.02-0.22,0.15-0.41,0.35-0.51c0.16-0.25,0.12-0.54,0.1-0.64
				c-0.43-0.48-0.61-0.93-0.54-1.35c0.09-0.51,0.52-0.77,0.61-0.82c0.06-0.04,0.26-0.17,0.54-0.24c0.3-0.07,0.75-0.06,1.17,0.36
				c0.15,0.15,0.23,0.31,0.23,0.47c0,0.14-0.06,0.28-0.19,0.4c0.05,0.19,0.06,0.38,0.06,0.46l0.11,0.25c0.03,0.07,0.03,0.15,0,0.21
				c-0.06,0.12-0.16,0.14-0.23,0.15c-0.01,0-0.02,0-0.03,0.01c-0.06,0.33-0.25,0.55-0.51,0.58c-0.14,0.02-0.19,0.17-0.22,0.28
				c0.07,0.06,0.13,0.14,0.17,0.22c0.19,0.4,0.39,1.4,0.23,2.18l0.29,0.64c0.18,0.39,0.15,0.72,0.12,1.02
				c-0.01,0.1-0.02,0.2-0.02,0.3c-0.01,0.09-0.08,0.16-0.17,0.16c-0.05,0-0.09-0.02-0.13-0.06c-0.03-0.03-0.05-0.08-0.05-0.13
				c0.02-0.23,0.02-0.36,0.03-0.44c0-0.03,0-0.05,0-0.07c-0.09,0.08-0.22,0.13-0.35,0.12c-0.18,0-0.34-0.09-0.44-0.25l-0.18-0.29
				c-0.02-0.03-0.04-0.04-0.07-0.07c-0.02-0.02-0.05-0.04-0.09-0.07c0.07,0.13,0.16,0.24,0.26,0.32c0.1,0.09,0.16,0.22,0.16,0.36
				v1.41h0.62l0.03-0.37c0.01-0.1,0.09-0.17,0.19-0.16c0.05,0,0.09,0.02,0.12,0.06c0.03,0.04,0.05,0.08,0.04,0.13l-0.03,0.39
				c0.32,0.11,0.57,0.35,0.66,0.61c0.04,0.11,0.02,0.23-0.06,0.32C240.13,44.12,240.03,44.17,239.92,44.17 M238.54,44.1
				c0.01,0,0.05,0,0.25,0l1.09,0.01c0.11,0.01,0.21-0.03,0.27-0.11c0.06-0.08,0.08-0.17,0.05-0.26c-0.09-0.25-0.33-0.48-0.64-0.58
				l-0.02-0.01l0.03-0.44c0-0.03-0.01-0.06-0.03-0.08c-0.02-0.02-0.04-0.04-0.07-0.04c-0.06,0-0.11,0.04-0.12,0.1l-0.03,0.43h-0.75
				v-1.47c0-0.12-0.05-0.23-0.14-0.31c-0.14-0.13-0.26-0.29-0.35-0.5l-0.06-0.15l0.12,0.11c0.11,0.1,0.17,0.15,0.22,0.19
				c0.04,0.03,0.06,0.05,0.09,0.09l0.18,0.29c0.09,0.13,0.23,0.21,0.39,0.22c0.15,0.01,0.28-0.06,0.36-0.17l0.06-0.09l0,0.11
				c0,0.04,0,0.04-0.01,0.16c-0.01,0.08-0.02,0.21-0.03,0.44c0,0.03,0.01,0.06,0.03,0.08c0.02,0.02,0.05,0.03,0.08,0.03
				c0.06,0,0.1-0.04,0.11-0.1c0-0.1,0.01-0.2,0.02-0.3c0.03-0.3,0.06-0.61-0.11-0.98l-0.3-0.66l0-0.01
				c0.16-0.77-0.04-1.76-0.23-2.15c-0.04-0.08-0.1-0.16-0.17-0.22l-0.01-0.01l0-0.02c0.02-0.12,0.09-0.32,0.28-0.35
				c0.23-0.03,0.4-0.23,0.46-0.54c0.01-0.03,0.04-0.04,0.08-0.05c0.06-0.01,0.14-0.03,0.18-0.12c0.02-0.05,0.02-0.11,0-0.16
				l-0.11-0.26v-0.01c0-0.08-0.01-0.27-0.06-0.47l-0.01-0.02l0.01-0.01c0.12-0.12,0.18-0.24,0.18-0.37c0-0.14-0.07-0.29-0.21-0.43
				c-0.4-0.4-0.82-0.41-1.11-0.34c-0.28,0.06-0.48,0.2-0.52,0.23l0,0c-0.08,0.04-0.5,0.29-0.58,0.77c-0.07,0.4,0.11,0.84,0.53,1.3
				l0.01,0.01l0,0.01c0.02,0.09,0.08,0.42-0.11,0.7l-0.01,0.01l-0.01,0c-0.18,0.09-0.3,0.26-0.32,0.47l-0.03,0.37
				c0,0.06,0.02,0.12,0.06,0.17l0.01,0.01l-0.01,0.02c-0.03,0.1-0.06,0.22-0.07,0.35c0,0.03,0.01,0.06,0.02,0.08
				c0.02,0.02,0.04,0.04,0.07,0.04c0.03,0,0.06-0.01,0.08-0.02c0.02-0.02,0.04-0.04,0.04-0.07c0.01-0.11,0.03-0.21,0.06-0.3
				l0.01-0.03l0.53,0.05l0,0.03c-0.02,0.38-0.08,0.56-0.11,0.67c-0.03,0.09-0.04,0.12-0.01,0.16c0.35,0.51,0.5,0.76,0.59,0.9
				c0.09,0.14,0.09,0.14,0.14,0.17c0.12,0.07,0.19,0.11,0.23,0.13c0.06,0.04,0.09,0.05,0.07,0.08c-0.04,0.07-0.03,0.16,0.02,0.22
				l0,0c0.03,0.04,0.04,0.08,0.03,0.12c-0.01,0.07-0.07,0.12-0.15,0.13c-0.1,0.02-0.21-0.03-0.26-0.12
				c-0.05-0.08-0.09-0.14-0.12-0.19c-0.07-0.11-0.1-0.16-0.17-0.21c-0.13-0.1-0.59-0.47-0.76-0.99c-0.03-0.08-0.04-0.12-0.05-0.14
				c-0.01-0.03-0.02-0.04-0.03-0.07c-0.01-0.03-0.02-0.05-0.05-0.07c-0.02-0.02-0.05-0.02-0.08-0.01c-0.03,0.01-0.05,0.02-0.07,0.05
				c-0.02,0.02-0.02,0.05-0.01,0.08c0.01,0.03,0.02,0.07,0.03,0.1c0.02,0.04,0.03,0.08,0.05,0.13c0.03,0.09,0.07,0.2,0.17,0.36
				l0,0.01l0,0.01c0,0.03,0.01,0.09,0.02,0.12l0,0.01l-0.01,0.01c-0.1,0.19-0.18,0.53-0.14,0.88c0.01,0.07-0.02,0.14-0.08,0.18
				l-0.97,0.62l-0.3,0.14c-0.13,0.06-0.2,0.19-0.18,0.33c0,0.01,0.04,0.15,0.11,0.45l0.15,0.62c0.01,0.1,0.07,0.18,0.16,0.23
				c0.09,0.05,0.19,0.04,0.28-0.01c0.23-0.13,0.41-0.53,0.44-0.84l0-0.02l0.02,0c0.04-0.01,0.08-0.02,0.11-0.05l1.02-0.66v0.94
				l-0.03,0.58C238.32,43.94,238.37,44.08,238.54,44.1L238.54,44.1L238.54,44.1z M239.92,43.89c0,0-0.01,0-0.01,0l0,0
				c-0.01,0-0.05,0-0.25,0c-0.19,0-0.51,0-1.07-0.01h-0.03l0-0.03c0-0.02,0-0.04,0-0.12c0-0.07,0.01-0.17,0.02-0.36l0-0.03l0.84,0
				c0.22,0.05,0.5,0.21,0.59,0.47c0.01,0.02,0,0.04-0.01,0.05C239.97,43.88,239.94,43.89,239.92,43.89 M238.61,43.82
				c0.54,0,0.86,0,1.04,0.01c0.26,0,0.26,0,0.26,0c0.01,0,0.02,0,0.02,0c-0.08-0.21-0.32-0.36-0.53-0.42h-0.77
				c-0.01,0.17-0.01,0.27-0.02,0.33C238.61,43.78,238.61,43.8,238.61,43.82 M236.62,43.69c-0.01,0-0.02,0-0.04-0.01
				c-0.03-0.01-0.04-0.04-0.04-0.07c0-0.01-0.01-0.03-0.05-0.22c-0.04-0.15-0.1-0.41-0.21-0.86l0-0.01c0-0.04,0.02-0.08,0.06-0.09
				l0.22-0.1l0.02,0.02c0.12,0.17,0.19,0.28,0.24,0.37c0.09,0.14,0.11,0.18,0.17,0.21l0.02,0.01l0,0.02
				c-0.02,0.25-0.13,0.58-0.33,0.7C236.65,43.69,236.63,43.69,236.62,43.69 M236.34,42.53c0.11,0.45,0.17,0.71,0.21,0.86
				c0.05,0.21,0.05,0.21,0.05,0.22c0,0.01,0.01,0.01,0.01,0.01c0,0,0.01,0,0.02,0c0.17-0.1,0.27-0.39,0.3-0.63
				c-0.05-0.04-0.08-0.09-0.17-0.22c-0.05-0.08-0.12-0.19-0.23-0.34l-0.17,0.08C236.34,42.51,236.34,42.52,236.34,42.53
				 M237.16,42.79c-0.03,0-0.07-0.02-0.09-0.05l-0.33-0.51l0.88-0.56c0.13-0.08,0.2-0.23,0.18-0.39c-0.02-0.13-0.01-0.26,0.01-0.38
				l0.02-0.12l0.05,0.11c0.1,0.25,0.24,0.45,0.42,0.6c0.07,0.06,0.07,0.14,0.06,0.27c0,0.06,0,0.14,0,0.24l0,0.02l-1.13,0.74
				C237.2,42.78,237.18,42.79,237.16,42.79 M236.83,42.26l0.3,0.45c0.01,0.02,0.04,0.02,0.06,0.01l1.1-0.72c0-0.1,0-0.17,0-0.23
				c0-0.13,0-0.18-0.04-0.22c-0.15-0.14-0.28-0.31-0.38-0.52c0,0.08,0,0.17,0.01,0.25c0.02,0.18-0.06,0.35-0.21,0.45L236.83,42.26z
				 M239.2,40.6l-0.22-0.13l0-0.01c-0.02-0.04-0.06-0.1-0.11-0.18l-0.03-0.05h0.21L239.2,40.6z M239.02,40.42l0.03,0.02l-0.07-0.15
				h-0.04C238.98,40.35,239.01,40.39,239.02,40.42 M238.69,40.02L238.68,40c-0.12-0.19-0.25-0.37-0.31-0.47l-0.01-0.01l0-0.02
				c0.1-0.29,0.12-0.61,0.12-0.77l0-0.02l0.01-0.01c0.04-0.03,0.07-0.08,0.08-0.14c0.01-0.11,0.01-0.19,0.02-0.27
				c0.02-0.17,0.03-0.27-0.03-0.41l-0.04-0.09l0.09,0.05c0.08,0.05,0.14,0.11,0.18,0.19c0.17,0.34,0.34,1.23,0.22,1.94l0,0.03h-0.03
				c-0.14,0-0.21,0-0.25,0c-0.02,0-0.03,0-0.03,0L238.69,40.02z M238.73,39.95h0.08c0.04,0,0.08,0,0.15,0
				c0.11-0.69-0.06-1.54-0.22-1.87c-0.02-0.04-0.04-0.07-0.07-0.1c0.02,0.11,0.01,0.21,0,0.34c-0.01,0.08-0.02,0.16-0.02,0.27
				c-0.01,0.07-0.04,0.13-0.09,0.17c-0.01,0.17-0.03,0.48-0.12,0.76C238.49,39.6,238.61,39.77,238.73,39.95L238.73,39.95z
				 M238.36,38.52l-0.69-0.06l0.03-0.37c0.01-0.09,0.05-0.18,0.13-0.24c0.11-0.09,0.26-0.11,0.38-0.04
				c0.12,0.06,0.19,0.19,0.18,0.32L238.36,38.52z M237.75,38.4l0.56,0.05l0.03-0.33c0.01-0.11-0.04-0.21-0.14-0.26
				c-0.1-0.05-0.22-0.04-0.31,0.04c-0.06,0.05-0.1,0.12-0.1,0.2L237.75,38.4z M238.61,37.61l-0.03-0.01
				c-0.13-0.04-0.28-0.06-0.43-0.05l-0.05,0l0.02-0.05c0.1-0.26,0.07-0.52,0.04-0.64l0-0.01l0.18-0.3c0.02-0.03,0.02-0.06,0.01-0.13
				c0-0.03-0.01-0.07-0.01-0.12c0-0.02,0.01-0.05,0.02-0.07c0.02-0.02,0.04-0.03,0.07-0.03l0.18,0h0c0.05,0,0.5-0.13,0.8-0.3
				l0.04-0.02l0.01,0.05c0.03,0.14,0.03,0.22,0.03,0.28c0,0.04,0,0.07,0.01,0.09l0.11,0.25l-0.03,0.01c0,0-0.01,0-0.01,0
				c-0.07,0.02-0.2,0.07-0.22,0.22c-0.02,0.12-0.09,0.34-0.27,0.37c-0.27,0.04-0.38,0.26-0.44,0.43L238.61,37.61z M238.24,37.48
				c0.12,0,0.23,0.02,0.33,0.05c0.08-0.26,0.25-0.41,0.48-0.45c0.14-0.02,0.2-0.2,0.22-0.31c0.02-0.13,0.11-0.22,0.24-0.26
				l-0.08-0.19c-0.01-0.03-0.01-0.06-0.01-0.11c0-0.05,0-0.12-0.02-0.22c-0.3,0.16-0.72,0.29-0.79,0.29h0l-0.18,0
				c-0.01,0-0.01,0-0.02,0.01c0,0.01-0.01,0.01-0.01,0.02c0,0.05,0.01,0.09,0.01,0.12c0.01,0.07,0.01,0.12-0.02,0.17l-0.17,0.28
				c0.03,0.13,0.05,0.36-0.03,0.62C238.21,37.48,238.22,37.48,238.24,37.48 M238.02,36.65l-0.03-0.04c-0.3-0.36-0.43-0.7-0.37-1
				c0.07-0.41,0.47-0.62,0.48-0.62c0.01,0,0.01-0.01,0.02-0.01c0.03-0.02,0.73-0.53,1.35,0.09c0.18,0.18,0.15,0.29,0.14,0.33
				c-0.08,0.26-0.64,0.49-1.01,0.58l0,0c-0.02,0-0.05,0-0.08,0c-0.1,0-0.21-0.01-0.31,0.1c-0.1,0.11-0.08,0.22-0.07,0.31
				c0,0.03,0.01,0.05,0.01,0.07l0,0.01L238.02,36.65z M238.77,34.83c-0.34,0-0.6,0.19-0.62,0.2c-0.01,0.01-0.02,0.01-0.03,0.02
				c0,0-0.37,0.2-0.44,0.58c-0.05,0.27,0.06,0.57,0.33,0.91l0.05-0.09c0-0.01,0-0.03,0-0.05c-0.01-0.09-0.03-0.23,0.09-0.36
				c0.12-0.13,0.27-0.12,0.36-0.12c0.03,0,0.05,0,0.07,0c0.34-0.08,0.89-0.3,0.96-0.54c0.01-0.03,0.03-0.11-0.12-0.26
				C239.2,34.9,238.97,34.83,238.77,34.83"/>
		</g>
		<g>
			<g>
				<g>
					<path class="st10" d="M417.66,671.98h0.96v3.38h2.09v0.79h-3.05V671.98z"/>
					<path class="st10" d="M424.47,675.37v0.77h-3.23v-4.17h3.15v0.77h-2.19v0.9h1.93v0.75h-1.93v0.96H424.47z"/>
					<path class="st10" d="M427.24,674.67v1.48h-0.96v-1.49l-1.61-2.68h1.02l1.11,1.85l1.11-1.85h0.95L427.24,674.67z"/>
					<path class="st10" d="M432.48,675.37v0.77h-3.23v-4.17h3.15v0.77h-2.19v0.9h1.93v0.75h-1.93v0.96H432.48z"/>
					<path class="st10" d="M437.06,671.98v4.17h-0.79l-2.08-2.53v2.53h-0.95v-4.17h0.8l2.07,2.53v-2.53H437.06z"/>
					<path class="st10" d="M438.04,671.98h1.89c1.36,0,2.3,0.82,2.3,2.08s-0.93,2.08-2.3,2.08h-1.89V671.98z M439.89,675.35
						c0.83,0,1.37-0.49,1.37-1.29c0-0.8-0.54-1.29-1.37-1.29h-0.88v2.58H439.89z"/>
					<path class="st10" d="M445.7,675.25h-1.93l-0.37,0.89h-0.99l1.86-4.17h0.95l1.86,4.17h-1.01L445.7,675.25z M445.39,674.52
						l-0.66-1.59l-0.66,1.59H445.39z"/>
					<path class="st10" d="M449.19,671.98h1.89c1.36,0,2.3,0.82,2.3,2.08s-0.93,2.08-2.3,2.08h-1.89V671.98z M451.03,675.35
						c0.83,0,1.37-0.49,1.37-1.29c0-0.8-0.54-1.29-1.37-1.29h-0.88v2.58H451.03z"/>
					<path class="st10" d="M457.32,675.37v0.77h-3.23v-4.17h3.15v0.77h-2.19v0.9h1.93v0.75h-1.93v0.96H457.32z"/>
					<path class="st10" d="M459.44,675.74l0.33-0.73c0.35,0.26,0.88,0.43,1.37,0.43c0.57,0,0.8-0.19,0.8-0.45
						c0-0.78-2.42-0.24-2.42-1.79c0-0.71,0.57-1.3,1.76-1.3c0.52,0,1.06,0.13,1.45,0.37l-0.3,0.73c-0.39-0.22-0.79-0.33-1.16-0.33
						c-0.57,0-0.79,0.21-0.79,0.48c0,0.77,2.42,0.24,2.42,1.77c0,0.7-0.58,1.29-1.77,1.29
						C460.47,676.22,459.81,676.02,459.44,675.74z"/>
					<path class="st10" d="M466.78,675.37v0.77h-3.23v-4.17h3.15v0.77h-2.19v0.9h1.93v0.75h-1.93v0.96H466.78z"/>
					<path class="st10" d="M470.2,676.15l-0.8-1.16h-0.05h-0.84v1.16h-0.96v-4.17h1.8c1.11,0,1.81,0.58,1.81,1.51
						c0,0.63-0.32,1.08-0.86,1.32l0.93,1.34H470.2z M469.3,672.77h-0.79v1.45h0.79c0.59,0,0.89-0.27,0.89-0.73
						C470.18,673.03,469.89,672.77,469.3,672.77z"/>
					<path class="st10" d="M475.92,671.98l-1.8,4.17h-0.95l-1.8-4.17h1.04l1.27,2.98l1.29-2.98H475.92z"/>
					<path class="st10" d="M476.35,671.98h0.96v4.17h-0.96V671.98z"/>
					<path class="st10" d="M478.04,674.06c0-1.26,0.96-2.15,2.26-2.15c0.72,0,1.32,0.26,1.71,0.74l-0.62,0.57
						c-0.28-0.32-0.63-0.49-1.05-0.49c-0.78,0-1.33,0.55-1.33,1.33c0,0.79,0.55,1.33,1.33,1.33c0.42,0,0.77-0.17,1.05-0.49
						l0.62,0.57c-0.39,0.48-0.99,0.74-1.72,0.74C479,676.22,478.04,675.32,478.04,674.06z"/>
					<path class="st10" d="M482.65,671.98h0.96v4.17h-0.96V671.98z"/>
					<path class="st10" d="M484.34,674.06c0-1.24,0.96-2.15,2.28-2.15c1.31,0,2.28,0.91,2.28,2.15c0,1.24-0.97,2.15-2.28,2.15
						C485.31,676.22,484.34,675.3,484.34,674.06z M487.92,674.06c0-0.79-0.56-1.33-1.3-1.33c-0.74,0-1.3,0.54-1.3,1.33
						c0,0.79,0.56,1.33,1.3,1.33C487.36,675.4,487.92,674.85,487.92,674.06z"/>
					<path class="st10" d="M489.29,675.74l0.33-0.73c0.35,0.26,0.88,0.43,1.37,0.43c0.57,0,0.8-0.19,0.8-0.45
						c0-0.78-2.42-0.24-2.42-1.79c0-0.71,0.57-1.3,1.76-1.3c0.52,0,1.06,0.13,1.45,0.37l-0.3,0.73c-0.39-0.22-0.79-0.33-1.15-0.33
						c-0.57,0-0.79,0.21-0.79,0.48c0,0.77,2.42,0.24,2.42,1.77c0,0.7-0.58,1.29-1.77,1.29
						C490.33,676.22,489.66,676.02,489.29,675.74z"/>
				</g>
			</g>
			<g>
				<g>
					<g>
						<path class="st10" d="M435.34,691.89c0,0.71-0.52,1.11-1.57,1.11h-1.92v-4.17h1.8c0.93,0,1.46,0.39,1.46,1.07
							c0,0.48-0.26,0.79-0.64,0.95C435.02,690.97,435.34,691.33,435.34,691.89z M432.3,689.2v1.51h1.33c0.67,0,1.05-0.26,1.05-0.76
							s-0.39-0.76-1.05-0.76H432.3z M434.9,691.85c0-0.54-0.4-0.78-1.13-0.78h-1.47v1.56h1.47
							C434.5,692.64,434.9,692.4,434.9,691.85z"/>
						<path class="st10" d="M438.61,691.06V693h-0.41v-0.49c-0.19,0.32-0.56,0.52-1.08,0.52c-0.71,0-1.14-0.37-1.14-0.91
							c0-0.48,0.31-0.89,1.21-0.89h0.99v-0.19c0-0.54-0.3-0.83-0.89-0.83c-0.41,0-0.79,0.14-1.04,0.37l-0.19-0.32
							c0.32-0.27,0.78-0.42,1.27-0.42C438.16,689.85,438.61,690.25,438.61,691.06z M438.19,692.06v-0.51h-0.98
							c-0.61,0-0.8,0.24-0.8,0.56c0,0.36,0.29,0.59,0.79,0.59C437.67,692.7,438.03,692.47,438.19,692.06z"/>
						<path class="st10" d="M442.64,691.19V693h-0.42v-1.77c0-0.66-0.34-1-0.94-1c-0.67,0-1.09,0.42-1.09,1.13V693h-0.42v-3.13h0.41
							v0.58c0.23-0.38,0.65-0.6,1.19-0.6C442.11,689.85,442.64,690.29,442.64,691.19z M440.51,689.33h-0.26
							c0.01-0.4,0.22-0.65,0.54-0.65c0.37,0,0.55,0.4,0.78,0.4c0.18,0,0.3-0.14,0.31-0.37h0.26c-0.01,0.39-0.22,0.64-0.54,0.64
							c-0.37,0-0.54-0.41-0.78-0.41C440.64,688.95,440.52,689.09,440.51,689.33z"/>
						<path class="st10" d="M443.47,691.44c0-0.93,0.68-1.59,1.59-1.59c0.92,0,1.59,0.66,1.59,1.59c0,0.93-0.67,1.59-1.59,1.59
							C444.15,693.03,443.47,692.37,443.47,691.44z M446.22,691.44c0-0.73-0.49-1.22-1.16-1.22c-0.67,0-1.17,0.49-1.17,1.22
							c0,0.73,0.5,1.22,1.17,1.22C445.73,692.66,446.22,692.17,446.22,691.44z"/>
						<path class="st10" d="M447.07,692.65l0.19-0.33c0.25,0.2,0.67,0.35,1.11,0.35c0.59,0,0.84-0.2,0.84-0.51
							c0-0.82-2.03-0.17-2.03-1.41c0-0.51,0.44-0.89,1.24-0.89c0.4,0,0.84,0.11,1.11,0.29l-0.18,0.34c-0.27-0.19-0.6-0.27-0.92-0.27
							c-0.57,0-0.82,0.22-0.82,0.52c0,0.84,2.03,0.21,2.03,1.41c0,0.54-0.48,0.89-1.29,0.89
							C447.83,693.03,447.33,692.87,447.07,692.65z"/>
					</g>
				</g>
				<g>
					<path class="st8" d="M421.27,698.59c-0.04,0-0.09-0.01-0.12-0.04c-0.22-0.17-5.41-4-5.41-7.54c0-3.06,2.48-5.53,5.53-5.53
						s5.53,2.48,5.53,5.53c0,3.55-5.19,7.38-5.41,7.54C421.36,698.58,421.32,698.59,421.27,698.59z"/>
					<path class="st9" d="M421.27,685.88c-2.83,0-5.12,2.29-5.12,5.12c0,3.05,4.34,6.52,5.12,7.12c0.79-0.6,5.12-4.07,5.12-7.12
						C426.4,688.18,424.1,685.88,421.27,685.88z"/>
					<circle class="st8" cx="421.37" cy="690.91" r="3.59"/>
					<g>
						<path class="st9" d="M419.64,689.59c-0.29,0-0.52-0.24-0.52-0.52c0-0.29,0.24-0.52,0.52-0.52c0.29,0,0.52,0.24,0.52,0.52
							C420.16,689.35,419.93,689.59,419.64,689.59z M419.64,688.8c-0.15,0-0.27,0.12-0.27,0.27c0,0.15,0.12,0.27,0.27,0.27
							c0.15,0,0.27-0.12,0.27-0.27C419.91,688.92,419.79,688.8,419.64,688.8z"/>
						<path class="st9" d="M418.78,691.9c-0.07,0-0.13-0.06-0.13-0.13v-1.09c0-0.58,0.32-0.86,0.99-0.86c0.07,0,0.13,0.06,0.13,0.13
							c0,0.07-0.06,0.13-0.13,0.13c-0.61,0-0.73,0.24-0.73,0.6v1.09C418.91,691.84,418.85,691.9,418.78,691.9z"/>
						<path class="st9" d="M420.5,691.9c-0.07,0-0.13-0.06-0.13-0.13v-1.09c0-0.36-0.12-0.6-0.73-0.6c-0.07,0-0.13-0.06-0.13-0.13
							c0-0.07,0.06-0.13,0.13-0.13c0.67,0,0.99,0.28,0.99,0.86v1.09C420.63,691.84,420.57,691.9,420.5,691.9z"/>
						<path class="st9" d="M422,691.93c-0.01,0-0.01,0-0.02,0c-0.07-0.01-0.12-0.07-0.11-0.14c0-0.03,0.09-0.73,0.15-1.07
							c0.08-0.46,0.23-0.9,1.02-0.9c0.07,0,0.13,0.06,0.13,0.13c0,0.07-0.06,0.13-0.13,0.13c-0.6,0-0.69,0.27-0.77,0.69
							c-0.06,0.33-0.15,1.05-0.15,1.05C422.12,691.89,422.07,691.93,422,691.93z"/>
						<path class="st9" d="M424.09,691.93c-0.06,0-0.12-0.05-0.13-0.11c0-0.01-0.09-0.73-0.15-1.05c-0.07-0.42-0.17-0.69-0.77-0.69
							c-0.07,0-0.13-0.06-0.13-0.13c0-0.07,0.06-0.13,0.13-0.13c0.8,0,0.94,0.45,1.02,0.9c0.06,0.34,0.15,1.04,0.15,1.07
							c0.01,0.07-0.04,0.14-0.11,0.14C424.1,691.93,424.09,691.93,424.09,691.93z"/>
						<path class="st9" d="M420.12,693.34h-0.96v-2.6c0-0.07,0.06-0.13,0.13-0.13c0.07,0,0.13,0.06,0.13,0.13v2.34h0.45v-2.34
							c0-0.07,0.06-0.13,0.13-0.13s0.13,0.06,0.13,0.13V693.34z"/>
						<path class="st9" d="M423.04,689.59c-0.29,0-0.52-0.24-0.52-0.52c0-0.29,0.24-0.52,0.52-0.52c0.29,0,0.52,0.24,0.52,0.52
							C423.57,689.35,423.33,689.59,423.04,689.59z M423.04,688.8c-0.15,0-0.27,0.12-0.27,0.27c0,0.15,0.12,0.27,0.27,0.27
							c0.15,0,0.27-0.12,0.27-0.27C423.31,688.92,423.19,688.8,423.04,688.8z"/>
						<path class="st9" d="M423.04,693.34h-0.43v-0.86h-0.38l0.28-1.82c0.01-0.07,0.08-0.12,0.15-0.11
							c0.07,0.01,0.12,0.08,0.11,0.15l-0.24,1.52h0.34v0.86h0.17c0.07,0,0.13,0.06,0.13,0.13
							C423.17,693.28,423.12,693.34,423.04,693.34z"/>
						<path class="st9" d="M423.47,693.34h-0.43c-0.07,0-0.13-0.06-0.13-0.13c0-0.07,0.06-0.13,0.13-0.13h0.17v-0.86h0.34
							l-0.24-1.52c-0.01-0.07,0.04-0.14,0.11-0.15c0.07-0.01,0.14,0.04,0.15,0.11l0.28,1.82h-0.38V693.34z"/>
						<path class="st9" d="M421.32,693.89c-0.07,0-0.13-0.06-0.13-0.13v-5.7c0-0.07,0.06-0.13,0.13-0.13c0.07,0,0.13,0.06,0.13,0.13
							v5.7C421.45,693.83,421.39,693.89,421.32,693.89z"/>
					</g>
				</g>
			</g>
			<g>
				<g>
					<g>
						<path class="st10" d="M435.12,708.62V709h-2.95v-4.17h2.86v0.38h-2.42v1.48h2.15v0.38h-2.15v1.55H435.12z"/>
						<path class="st10" d="M435.62,708.64l0.19-0.33c0.25,0.2,0.67,0.35,1.11,0.35c0.59,0,0.84-0.2,0.84-0.51
							c0-0.82-2.03-0.17-2.03-1.41c0-0.51,0.44-0.89,1.24-0.89c0.4,0,0.84,0.11,1.11,0.29l-0.18,0.34c-0.27-0.19-0.6-0.27-0.92-0.27
							c-0.57,0-0.82,0.22-0.82,0.52c0,0.84,2.03,0.21,2.03,1.41c0,0.54-0.48,0.89-1.29,0.89
							C436.38,709.03,435.88,708.86,435.62,708.64z"/>
						<path class="st10" d="M438.65,707.43c0-0.93,0.68-1.59,1.61-1.59c0.53,0,0.98,0.21,1.23,0.62l-0.32,0.21
							c-0.21-0.32-0.55-0.46-0.91-0.46c-0.68,0-1.18,0.49-1.18,1.22c0,0.74,0.5,1.22,1.18,1.22c0.36,0,0.7-0.14,0.91-0.46l0.32,0.21
							c-0.25,0.4-0.7,0.62-1.23,0.62C439.33,709.03,438.65,708.37,438.65,707.43z"/>
						<path class="st10" d="M444.67,707.06V709h-0.41v-0.49c-0.19,0.32-0.56,0.52-1.08,0.52c-0.71,0-1.14-0.37-1.14-0.91
							c0-0.48,0.31-0.89,1.21-0.89h0.99v-0.19c0-0.54-0.3-0.83-0.89-0.83c-0.41,0-0.79,0.14-1.04,0.37l-0.19-0.32
							c0.32-0.27,0.78-0.42,1.27-0.42C444.21,705.84,444.67,706.25,444.67,707.06z M444.25,708.06v-0.51h-0.98
							c-0.61,0-0.8,0.24-0.8,0.56c0,0.36,0.29,0.59,0.79,0.59C443.73,708.7,444.08,708.47,444.25,708.06z"/>
						<path class="st10" d="M445.82,704.58h0.42V709h-0.42V704.58z"/>
						<path class="st10" d="M450.14,707.56h-2.62c0.05,0.66,0.55,1.09,1.23,1.09c0.38,0,0.72-0.14,0.96-0.41l0.24,0.27
							c-0.28,0.33-0.71,0.51-1.21,0.51c-0.98,0-1.64-0.67-1.64-1.59c0-0.93,0.65-1.59,1.53-1.59c0.88,0,1.52,0.65,1.52,1.59
							C450.15,707.47,450.14,707.52,450.14,707.56z M447.52,707.25h2.22c-0.05-0.61-0.5-1.04-1.11-1.04
							C448.02,706.21,447.58,706.64,447.52,707.25z"/>
						<path class="st10" d="M452.58,705.84v0.41c-0.04,0-0.07-0.01-0.1-0.01c-0.66,0-1.05,0.42-1.05,1.15V709h-0.42v-3.13h0.41v0.61
							C451.61,706.07,452.01,705.84,452.58,705.84z"/>
						<path class="st10" d="M455.75,707.06V709h-0.41v-0.49c-0.19,0.32-0.56,0.52-1.08,0.52c-0.71,0-1.14-0.37-1.14-0.91
							c0-0.48,0.31-0.89,1.21-0.89h0.99v-0.19c0-0.54-0.3-0.83-0.89-0.83c-0.41,0-0.79,0.14-1.04,0.37l-0.19-0.32
							c0.32-0.27,0.78-0.42,1.27-0.42C455.29,705.84,455.75,706.25,455.75,707.06z M455.33,708.06v-0.51h-0.98
							c-0.61,0-0.8,0.24-0.8,0.56c0,0.36,0.29,0.59,0.79,0.59C454.81,708.7,455.16,708.47,455.33,708.06z"/>
						<path class="st10" d="M456.46,708.64l0.19-0.33c0.25,0.2,0.67,0.35,1.11,0.35c0.59,0,0.84-0.2,0.84-0.51
							c0-0.82-2.03-0.17-2.03-1.41c0-0.51,0.44-0.89,1.24-0.89c0.4,0,0.84,0.11,1.11,0.29l-0.18,0.34c-0.27-0.19-0.6-0.27-0.92-0.27
							c-0.57,0-0.82,0.22-0.82,0.52c0,0.84,2.03,0.21,2.03,1.41c0,0.54-0.48,0.89-1.29,0.89
							C457.22,709.03,456.72,708.86,456.46,708.64z"/>
					</g>
				</g>
				<g>
					<path class="st8" d="M421.27,714.52c-0.04,0-0.09-0.01-0.12-0.04c-0.22-0.17-5.41-4-5.41-7.54c0-3.06,2.48-5.53,5.53-5.53
						s5.53,2.48,5.53,5.53c0,3.55-5.19,7.38-5.41,7.54C421.36,714.51,421.32,714.52,421.27,714.52"/>
					<path class="st9" d="M421.27,701.81c-2.83,0-5.12,2.29-5.12,5.12c0,3.05,4.34,6.52,5.12,7.12c0.79-0.6,5.12-4.07,5.12-7.12
						C426.4,704.11,424.1,701.81,421.27,701.81"/>
					<path class="st11" d="M424.82,706.94c0,1.98-1.61,3.59-3.59,3.59c-1.98,0-3.59-1.61-3.59-3.59s1.61-3.59,3.59-3.59
						C423.22,703.35,424.82,704.96,424.82,706.94"/>
					<path class="st8" d="M421.24,703.53c1.88,0,3.41,1.53,3.41,3.41c0,1.88-1.53,3.41-3.41,3.41s-3.41-1.53-3.41-3.41
						C417.83,705.06,419.36,703.53,421.24,703.53 M421.24,703.35c-1.98,0-3.59,1.61-3.59,3.59c0,1.98,1.61,3.59,3.59,3.59
						s3.59-1.61,3.59-3.59C424.82,704.96,423.22,703.35,421.24,703.35"/>
					<path class="st9" d="M423.58,708.11c0-0.39-0.32-0.7-0.7-0.7h-0.36l-0.5-0.5v-1.14c0-0.13-0.11-0.23-0.23-0.23h-0.47
						c-0.13,0-0.23,0.11-0.23,0.23v0.2l-0.65-0.65c-0.01-0.01-0.03-0.02-0.06-0.02h-0.94c-0.39,0-0.7,0.32-0.7,0.7s0.32,0.7,0.7,0.7
						h0.36l1.95,1.95h-2.97v0.16h4.8v-0.16h-0.26C423.48,708.53,423.58,708.33,423.58,708.11 M421.24,705.77
						c0-0.04,0.03-0.08,0.08-0.08h0.47c0.04,0,0.08,0.03,0.08,0.08v0.98l-0.16-0.16v-0.75h-0.16v0.59l-0.31-0.31V705.77z
						 M421.97,708.66l-2.09-2.09c-0.01-0.01-0.03-0.02-0.06-0.02h-0.39c-0.3,0-0.55-0.25-0.55-0.55c0-0.3,0.25-0.55,0.55-0.55h0.9
						l2.09,2.09c0.01,0.01,0.03,0.02,0.06,0.02h0.39c0.3,0,0.55,0.25,0.55,0.55c0,0.3-0.25,0.55-0.55,0.55H421.97z"/>
					<path class="st9" d="M422.88,707.72h-0.51l-2.09-2.09c-0.01-0.01-0.03-0.02-0.06-0.02h-0.78c-0.22,0-0.39,0.18-0.39,0.39
						c0,0.22,0.18,0.39,0.39,0.39h0.51l2.09,2.09c0.01,0.01,0.03,0.02,0.06,0.02h0.78c0.22,0,0.39-0.18,0.39-0.39
						C423.27,707.89,423.09,707.72,422.88,707.72 M422.88,708.34h-0.75l-2.09-2.09c-0.01-0.01-0.03-0.02-0.06-0.02h-0.55
						c-0.13,0-0.23-0.11-0.23-0.23s0.1-0.23,0.23-0.23h0.75l2.09,2.09c0.01,0.01,0.03,0.02,0.06,0.02h0.55
						c0.13,0,0.23,0.11,0.23,0.23S423.01,708.34,422.88,708.34"/>
					<path class="st9" d="M421.55,705.38c0.17,0,0.31-0.14,0.31-0.31c0-0.17-0.14-0.31-0.31-0.31c-0.17,0-0.31,0.14-0.31,0.31
						C421.24,705.24,421.38,705.38,421.55,705.38 M421.55,704.91c0.09,0,0.16,0.07,0.16,0.16c0,0.09-0.07,0.16-0.16,0.16
						c-0.09,0-0.16-0.07-0.16-0.16C421.39,704.98,421.46,704.91,421.55,704.91"/>
				</g>
			</g>
			<g>
				<g>
					<g>
						<path class="st10" d="M495.63,689.63h0.44v4.17h-0.44V689.63z"/>
						<path class="st10" d="M500.21,691.98v1.82h-0.42v-1.77c0-0.66-0.34-1-0.94-1c-0.67,0-1.09,0.42-1.09,1.13v1.64h-0.42v-3.13
							h0.41v0.58c0.23-0.38,0.65-0.6,1.19-0.6C499.69,690.64,500.21,691.08,500.21,691.98z"/>
						<path class="st10" d="M504.25,690.67v2.75c0,1.08-0.53,1.57-1.57,1.57c-0.57,0-1.13-0.17-1.46-0.48l0.21-0.32
							c0.3,0.27,0.75,0.43,1.23,0.43c0.79,0,1.15-0.36,1.15-1.14v-0.4c-0.26,0.4-0.71,0.61-1.22,0.61c-0.89,0-1.57-0.63-1.57-1.52
							s0.68-1.51,1.57-1.51c0.52,0,0.98,0.21,1.24,0.63v-0.6H504.25z M503.84,692.15c0-0.68-0.5-1.14-1.19-1.14
							s-1.18,0.46-1.18,1.14s0.49,1.15,1.18,1.15S503.84,692.83,503.84,692.15z"/>
						<path class="st10" d="M507.01,690.64v0.41c-0.04,0-0.07-0.01-0.1-0.01c-0.66,0-1.05,0.42-1.05,1.15v1.59h-0.42v-3.13h0.41
							v0.61C506.03,690.86,506.43,690.64,507.01,690.64z"/>
						<path class="st10" d="M510.54,692.36h-2.62c0.05,0.66,0.55,1.09,1.23,1.09c0.38,0,0.72-0.14,0.96-0.41l0.24,0.27
							c-0.28,0.33-0.71,0.51-1.21,0.51c-0.98,0-1.64-0.67-1.64-1.59c0-0.93,0.65-1.59,1.53-1.59c0.88,0,1.52,0.65,1.52,1.59
							C510.55,692.27,510.54,692.31,510.54,692.36z M507.92,692.05h2.22c-0.05-0.61-0.5-1.04-1.11-1.04
							C508.42,691,507.98,691.43,507.92,692.05z"/>
						<path class="st10" d="M510.97,693.44l0.19-0.33c0.25,0.2,0.67,0.35,1.11,0.35c0.59,0,0.84-0.2,0.84-0.51
							c0-0.82-2.03-0.17-2.03-1.41c0-0.51,0.44-0.89,1.24-0.89c0.4,0,0.84,0.11,1.11,0.29l-0.18,0.34c-0.27-0.19-0.6-0.27-0.92-0.27
							c-0.57,0-0.82,0.22-0.82,0.52c0,0.84,2.03,0.21,2.03,1.41c0,0.54-0.48,0.89-1.29,0.89
							C511.73,693.83,511.23,693.66,510.97,693.44z"/>
						<path class="st10" d="M514,692.23c0-0.93,0.68-1.59,1.59-1.59c0.92,0,1.59,0.66,1.59,1.59c0,0.93-0.67,1.59-1.59,1.59
							C514.68,693.83,514,693.16,514,692.23z M516.75,692.23c0-0.73-0.49-1.22-1.16-1.22c-0.67,0-1.17,0.49-1.17,1.22
							c0,0.73,0.5,1.22,1.17,1.22C516.26,693.45,516.75,692.96,516.75,692.23z"/>
						<path class="st10" d="M522.77,692.23c0,0.95-0.67,1.59-1.56,1.59c-0.5,0-0.93-0.21-1.19-0.62v1.74h-0.42v-4.28H520v0.62
							c0.26-0.42,0.69-0.64,1.21-0.64C522.1,690.64,522.77,691.28,522.77,692.23z M522.35,692.23c0-0.73-0.51-1.22-1.17-1.22
							c-0.67,0-1.17,0.49-1.17,1.22c0,0.73,0.5,1.22,1.17,1.22C521.84,693.45,522.35,692.96,522.35,692.23z"/>
						<path class="st10" d="M526.35,692.36h-2.62c0.05,0.66,0.55,1.09,1.23,1.09c0.38,0,0.72-0.14,0.96-0.41l0.24,0.27
							c-0.28,0.33-0.71,0.51-1.21,0.51c-0.98,0-1.64-0.67-1.64-1.59c0-0.93,0.65-1.59,1.53-1.59c0.88,0,1.52,0.65,1.52,1.59
							C526.36,692.27,526.35,692.31,526.35,692.36z M523.73,692.05h2.22c-0.05-0.61-0.5-1.04-1.11-1.04
							C524.23,691,523.79,691.43,523.73,692.05z"/>
						<path class="st10" d="M529.58,691.86v1.94h-0.41v-0.49c-0.19,0.32-0.56,0.52-1.08,0.52c-0.71,0-1.14-0.37-1.14-0.91
							c0-0.48,0.31-0.89,1.21-0.89h0.99v-0.19c0-0.54-0.3-0.83-0.89-0.83c-0.41,0-0.79,0.14-1.04,0.37l-0.19-0.32
							c0.32-0.27,0.78-0.42,1.27-0.42C529.12,690.64,529.58,691.05,529.58,691.86z M529.15,692.86v-0.51h-0.98
							c-0.61,0-0.8,0.24-0.8,0.56c0,0.36,0.29,0.59,0.79,0.59C528.64,693.49,528.99,693.27,529.15,692.86z"/>
						<path class="st10" d="M532.37,693.61c-0.17,0.15-0.42,0.22-0.66,0.22c-0.59,0-0.92-0.33-0.92-0.91v-1.89h-0.56v-0.36h0.56
							v-0.68h0.42v0.68h0.95v0.36h-0.95v1.87c0,0.37,0.19,0.57,0.54,0.57c0.17,0,0.34-0.05,0.46-0.16L532.37,693.61z"/>
						<path class="st10" d="M532.82,692.23c0-0.93,0.68-1.59,1.59-1.59c0.92,0,1.59,0.66,1.59,1.59c0,0.93-0.67,1.59-1.59,1.59
							C533.5,693.83,532.82,693.16,532.82,692.23z M535.57,692.23c0-0.73-0.49-1.22-1.16-1.22c-0.67,0-1.17,0.49-1.17,1.22
							c0,0.73,0.5,1.22,1.17,1.22C535.08,693.45,535.57,692.96,535.57,692.23z"/>
						<path class="st10" d="M539.74,691.98v1.82h-0.42v-1.77c0-0.66-0.34-1-0.94-1c-0.67,0-1.09,0.42-1.09,1.13v1.64h-0.42v-3.13
							h0.41v0.58c0.23-0.38,0.65-0.6,1.19-0.6C539.22,690.64,539.74,691.08,539.74,691.98z"/>
						<path class="st10" d="M543.25,691.86v1.94h-0.41v-0.49c-0.19,0.32-0.56,0.52-1.08,0.52c-0.71,0-1.14-0.37-1.14-0.91
							c0-0.48,0.31-0.89,1.21-0.89h0.99v-0.19c0-0.54-0.3-0.83-0.89-0.83c-0.41,0-0.79,0.14-1.04,0.37l-0.19-0.32
							c0.32-0.27,0.78-0.42,1.27-0.42C542.79,690.64,543.25,691.05,543.25,691.86z M542.82,692.86v-0.51h-0.98
							c-0.61,0-0.8,0.24-0.8,0.56c0,0.36,0.29,0.59,0.79,0.59C542.31,693.49,542.66,693.27,542.82,692.86z"/>
						<path class="st10" d="M544.39,689.38h0.42v4.42h-0.42V689.38z"/>
					</g>
				</g>
				<g>
					<path class="st8" d="M484.79,698.59c-0.04,0-0.09-0.01-0.12-0.04c-0.22-0.17-5.41-4-5.41-7.54c0-3.06,2.48-5.53,5.53-5.53
						c3.06,0,5.53,2.48,5.53,5.53c0,3.55-5.19,7.38-5.41,7.54C484.87,698.58,484.83,698.59,484.79,698.59"/>
					<path class="st9" d="M484.79,685.88c-2.83,0-5.12,2.29-5.12,5.12c0,3.05,4.34,6.52,5.12,7.12c0.79-0.6,5.12-4.07,5.12-7.12
						C489.91,688.18,487.62,685.88,484.79,685.88"/>
					<path class="st11" d="M488.37,691.01c0,1.98-1.61,3.59-3.59,3.59c-1.98,0-3.59-1.61-3.59-3.59c0-1.98,1.61-3.59,3.59-3.59
						C486.77,687.43,488.37,689.03,488.37,691.01"/>
					<path class="st8" d="M484.79,687.61c0.91,0,1.76,0.35,2.4,1c0.64,0.64,1,1.5,1,2.4c0,0.91-0.35,1.76-1,2.4
						c-0.64,0.64-1.5,1-2.4,1c-0.91,0-1.76-0.35-2.4-1c-0.64-0.64-1-1.5-1-2.4c0-0.91,0.35-1.76,1-2.4
						C483.03,687.97,483.88,687.61,484.79,687.61 M484.79,687.43c-1.98,0-3.59,1.61-3.59,3.59c0,1.98,1.61,3.59,3.59,3.59
						s3.59-1.61,3.59-3.59C488.37,689.03,486.77,687.43,484.79,687.43"/>
					<path class="st9" d="M486.34,691.63c-0.03,0-0.07-0.02-0.09-0.04c-0.04-0.05-0.03-0.12,0.02-0.16l0.67-0.53l-0.67-0.53
						c-0.05-0.04-0.06-0.11-0.02-0.16c0.04-0.05,0.11-0.06,0.16-0.02l0.79,0.62c0.03,0.02,0.04,0.06,0.04,0.09
						c0,0.04-0.02,0.07-0.04,0.09l-0.79,0.62C486.4,691.62,486.37,691.63,486.34,691.63"/>
					<path class="st9" d="M487.14,691.01h-1.83c-0.06,0-0.12-0.05-0.12-0.12c0-0.06,0.05-0.12,0.12-0.12h1.83
						c0.06,0,0.12,0.05,0.12,0.12C487.25,690.96,487.2,691.01,487.14,691.01"/>
					<path class="st9" d="M485.01,691.01h-0.26c-0.06,0-0.12-0.05-0.12-0.12c0-0.06,0.05-0.12,0.12-0.12h0.26
						c0.06,0,0.12,0.05,0.12,0.12C485.12,690.96,485.07,691.01,485.01,691.01"/>
					<path class="st9" d="M482.68,692.23c0,0,0.03,0.11,0.11,0.45c0.01,0.05,0.03,0.09,0.08,0.11c0.16,0.08,0.3-0.18,0.32-0.37
						c0.02,0,0.04-0.01,0.05-0.02l0.4-0.26v0.37l-0.01,0.24c0,0.07,0.03,0.13,0.1,0.13c0,0-0.03,0,0.56,0
						c0.1,0.01,0.18-0.08,0.15-0.17c-0.04-0.11-0.14-0.21-0.28-0.25l0.01-0.17c0-0.03-0.02-0.06-0.05-0.06
						c-0.03,0-0.06,0.02-0.06,0.05l-0.01,0.17h-0.29v-0.6c0-0.05-0.02-0.11-0.06-0.14c-0.07-0.06-0.11-0.13-0.14-0.2
						c0.09,0.09,0.11,0.08,0.12,0.11l0.08,0.12c0.08,0.13,0.26,0.12,0.34,0.02c0,0.02,0,0.01-0.02,0.25c0,0.03,0.02,0.06,0.06,0.06
						c0.03,0,0.06-0.02,0.06-0.05c0-0.16,0.06-0.33-0.04-0.54l-0.12-0.27c0.07-0.33-0.01-0.74-0.1-0.91
						c-0.02-0.04-0.04-0.07-0.07-0.09c0.01-0.04,0.03-0.12,0.1-0.13c0.1-0.01,0.18-0.1,0.2-0.24c0-0.02,0.08,0,0.11-0.07
						c0.01-0.02,0.01-0.05,0-0.08l-0.05-0.11c0-0.03,0-0.12-0.03-0.2c0.11-0.11,0.1-0.24-0.01-0.35c-0.17-0.17-0.35-0.17-0.48-0.15
						c-0.12,0.03-0.2,0.08-0.22,0.1c-0.03,0.02-0.21,0.12-0.25,0.33c-0.03,0.17,0.05,0.36,0.22,0.55c0.01,0.04,0.03,0.17-0.05,0.28
						c-0.08,0.04-0.13,0.11-0.14,0.21l-0.01,0.16c0,0.03,0.01,0.06,0.03,0.08c-0.01,0.04-0.02,0.09-0.03,0.15
						c0,0.03,0.02,0.06,0.05,0.06c0.03,0,0.06-0.02,0.06-0.05c0-0.05,0.01-0.09,0.02-0.12l0.2,0.02c-0.01,0.29-0.08,0.3-0.05,0.36
						c0.31,0.45,0.26,0.43,0.31,0.45c0.12,0.07,0.12,0.07,0.12,0.07c-0.02,0.03-0.02,0.08,0.01,0.11c0,0,0.02,0.02,0.01,0.04
						c-0.01,0.05-0.11,0.07-0.15,0c-0.07-0.1-0.08-0.14-0.13-0.17c-0.06-0.04-0.24-0.2-0.31-0.41c-0.02-0.06-0.03-0.07-0.03-0.09
						c-0.01-0.03-0.04-0.05-0.07-0.04c-0.03,0.01-0.05,0.04-0.04,0.07c0,0.02,0.01,0.03,0.02,0.04c0.02,0.05,0.03,0.11,0.09,0.21
						c0,0.01,0,0.04,0.01,0.05c-0.05,0.08-0.08,0.23-0.06,0.38c0,0.02-0.01,0.05-0.03,0.06l-0.4,0.26l-0.13,0.06
						C482.7,692.11,482.67,692.17,482.68,692.23 M483.93,691.34c-0.01-0.02-0.03-0.05-0.05-0.08h0.05l0.05,0.11L483.93,691.34z
						 M483.4,690.35c0-0.04,0.02-0.07,0.05-0.09c0.09-0.08,0.22-0.01,0.21,0.11l-0.01,0.15c-0.08-0.01-0.14-0.01-0.26-0.02
						L483.4,690.35z M484.16,689.22c-0.03,0.11-0.27,0.2-0.41,0.23c-0.04,0-0.11-0.02-0.17,0.05c-0.06,0.06-0.03,0.13-0.03,0.17
						l-0.03,0.06c-0.12-0.15-0.17-0.29-0.15-0.41c0.03-0.17,0.19-0.25,0.19-0.25c0,0,0.01,0,0.01-0.01c0.01-0.01,0.3-0.22,0.55,0.04
						C484.18,689.17,484.17,689.21,484.16,689.22 M483.76,690.13c-0.06-0.02-0.12-0.03-0.19-0.02c0.04-0.12,0.03-0.23,0.02-0.28
						l0.07-0.12c0.02-0.03,0-0.05,0-0.11c0-0.01,0.01-0.03,0.02-0.03c0.01,0,0.04,0,0.07,0c0.02,0,0.22-0.06,0.34-0.13
						c0.02,0.1,0.01,0.13,0.02,0.16l0.04,0.09c0,0-0.09,0.01-0.11,0.1c-0.01,0.05-0.03,0.13-0.1,0.14
						C483.85,689.96,483.78,690.03,483.76,690.13 M483.92,691.14c-0.14,0-0.11,0-0.12,0c-0.05-0.08-0.1-0.16-0.13-0.2
						c0.04-0.12,0.05-0.26,0.05-0.33c0.02-0.02,0.04-0.04,0.04-0.07c0.01-0.14,0.03-0.2,0-0.29c0.03,0.02,0.05,0.04,0.07,0.08
						C483.9,690.49,483.97,690.86,483.92,691.14 M483.76,692.56h0.34c0.09,0.02,0.2,0.09,0.24,0.19c0,0.01-0.01,0.02-0.02,0.02
						c-0.01,0,0.03,0-0.56,0C483.75,692.75,483.75,692.74,483.76,692.56 M483.17,692.3c-0.01,0.01-0.03,0.01-0.04-0.01l-0.13-0.2
						l0.36-0.23c0.06-0.04,0.09-0.11,0.08-0.17c-0.01-0.06,0-0.11,0-0.16c0.04,0.09,0.09,0.18,0.18,0.26
						c0.04,0.03,0.02,0.07,0.02,0.2L483.17,692.3z M482.81,692.19l0.08-0.04c0.13,0.2,0.14,0.22,0.17,0.25
						c-0.01,0.11-0.06,0.24-0.13,0.28c-0.01,0.01-0.03,0-0.03-0.02c0-0.01,0,0.02-0.11-0.45C482.8,692.2,482.8,692.19,482.81,692.19
						"/>
					<path class="st9" d="M484.31,692.9c-0.01,0-0.01,0-0.02,0l-0.45,0c-0.11,0-0.11,0-0.11,0c-0.07-0.01-0.12-0.07-0.11-0.15
						l0.01-0.24v-0.34l-0.38,0.25c-0.01,0.01-0.03,0.02-0.05,0.02c-0.02,0.13-0.09,0.3-0.2,0.36c-0.05,0.03-0.1,0.03-0.14,0
						c-0.05-0.02-0.08-0.07-0.08-0.12l-0.06-0.26c-0.04-0.16-0.05-0.19-0.05-0.19c-0.01-0.07,0.03-0.14,0.09-0.17l0.12-0.06
						l0.4-0.26c0.02-0.01,0.02-0.03,0.02-0.05c-0.02-0.16,0.02-0.3,0.06-0.38c0-0.01-0.01-0.03-0.01-0.05
						c-0.04-0.07-0.06-0.12-0.07-0.15c-0.01-0.02-0.01-0.04-0.02-0.05c-0.01-0.01-0.01-0.03-0.02-0.05c0-0.02,0-0.04,0.01-0.05
						c0.01-0.02,0.03-0.03,0.05-0.03c0.02,0,0.04,0,0.06,0.01c0.02,0.01,0.03,0.03,0.03,0.04c0,0.01,0,0.02,0.01,0.03
						c0.01,0.01,0.01,0.03,0.02,0.06c0.07,0.21,0.25,0.36,0.31,0.4c0.03,0.03,0.05,0.05,0.08,0.1c0.01,0.02,0.03,0.05,0.05,0.08
						c0.02,0.03,0.06,0.04,0.08,0.04c0.02,0,0.04-0.02,0.04-0.03c0-0.01,0-0.02-0.01-0.03l0,0c-0.02-0.03-0.03-0.08-0.01-0.11
						c0,0-0.01,0-0.01-0.01c-0.02-0.01-0.05-0.03-0.1-0.05c-0.03-0.02-0.03-0.02-0.07-0.08c-0.04-0.06-0.1-0.16-0.25-0.38
						c-0.02-0.03-0.01-0.05,0-0.09c0.01-0.04,0.04-0.11,0.05-0.26l-0.17-0.02c-0.01,0.03-0.02,0.07-0.02,0.11
						c0,0.02-0.01,0.04-0.03,0.05c-0.02,0.01-0.03,0.02-0.05,0.02c-0.02,0-0.04-0.01-0.05-0.03c-0.01-0.01-0.02-0.03-0.02-0.05
						c0-0.05,0.01-0.1,0.03-0.14c-0.02-0.02-0.03-0.05-0.03-0.08l0.01-0.16c0.01-0.09,0.06-0.17,0.15-0.22
						c0.07-0.1,0.05-0.23,0.04-0.27c-0.18-0.2-0.26-0.39-0.23-0.56c0.04-0.21,0.22-0.32,0.26-0.34c0.02-0.02,0.11-0.07,0.23-0.1
						c0.13-0.03,0.32-0.02,0.49,0.15c0.06,0.06,0.1,0.13,0.1,0.2c0,0.06-0.03,0.12-0.08,0.17c0.02,0.08,0.02,0.16,0.02,0.19
						l0.04,0.11c0.01,0.03,0.01,0.06,0,0.09c-0.02,0.05-0.07,0.06-0.09,0.06c0,0-0.01,0-0.01,0c-0.03,0.14-0.1,0.23-0.21,0.24
						c-0.06,0.01-0.08,0.07-0.09,0.12c0.03,0.03,0.05,0.06,0.07,0.09c0.08,0.17,0.16,0.59,0.1,0.91l0.12,0.27
						c0.07,0.16,0.06,0.3,0.05,0.43c0,0.04-0.01,0.08-0.01,0.12c0,0.04-0.03,0.07-0.07,0.07c-0.02,0-0.04-0.01-0.05-0.02
						c-0.01-0.01-0.02-0.03-0.02-0.05c0.01-0.1,0.01-0.15,0.01-0.18c0-0.01,0-0.02,0-0.03c-0.04,0.03-0.09,0.05-0.15,0.05
						c-0.08,0-0.14-0.04-0.18-0.1l-0.08-0.12c-0.01-0.01-0.01-0.02-0.03-0.03c-0.01-0.01-0.02-0.02-0.04-0.03
						c0.03,0.05,0.07,0.1,0.11,0.14c0.04,0.04,0.07,0.09,0.07,0.15v0.59h0.26l0.01-0.15c0-0.04,0.04-0.07,0.08-0.07
						c0.02,0,0.04,0.01,0.05,0.02c0.01,0.01,0.02,0.03,0.02,0.05l-0.01,0.16c0.13,0.05,0.24,0.15,0.28,0.26
						c0.02,0.05,0.01,0.1-0.02,0.13C484.4,692.88,484.36,692.9,484.31,692.9 M483.73,692.87c0,0,0.02,0,0.11,0l0.46,0
						c0.04,0.01,0.09-0.01,0.11-0.05c0.03-0.03,0.03-0.07,0.02-0.11c-0.04-0.11-0.14-0.2-0.27-0.24l-0.01,0l0.01-0.18
						c0-0.01,0-0.02-0.01-0.03c-0.01-0.01-0.02-0.01-0.03-0.02c-0.02,0-0.05,0.02-0.05,0.04l-0.01,0.18h-0.31v-0.62
						c0-0.05-0.02-0.1-0.06-0.13c-0.06-0.05-0.11-0.12-0.15-0.21l-0.03-0.06l0.05,0.05c0.05,0.04,0.07,0.06,0.09,0.08
						c0.02,0.01,0.03,0.02,0.04,0.04l0.08,0.12c0.04,0.06,0.1,0.09,0.16,0.09c0.06,0,0.12-0.02,0.15-0.07l0.03-0.04l0,0.04
						c0,0.02,0,0.02,0,0.07c0,0.03-0.01,0.09-0.01,0.18c0,0.01,0,0.02,0.01,0.03c0.01,0.01,0.02,0.01,0.03,0.01
						c0.02,0,0.04-0.02,0.05-0.04c0-0.04,0-0.08,0.01-0.13c0.01-0.13,0.02-0.25-0.05-0.41l-0.12-0.28l0,0
						c0.07-0.32-0.01-0.74-0.09-0.9c-0.02-0.04-0.04-0.07-0.07-0.09l-0.01,0l0-0.01c0.01-0.05,0.04-0.13,0.12-0.14
						c0.1-0.01,0.17-0.1,0.19-0.23c0-0.01,0.02-0.02,0.03-0.02c0.02,0,0.06-0.01,0.08-0.05c0.01-0.02,0.01-0.04,0-0.07l-0.05-0.11v0
						c0-0.03,0-0.11-0.03-0.2l0-0.01l0.01-0.01c0.05-0.05,0.08-0.1,0.08-0.16c0-0.06-0.03-0.12-0.09-0.18
						c-0.17-0.17-0.34-0.17-0.46-0.14c-0.12,0.03-0.2,0.08-0.22,0.09l0,0c-0.03,0.02-0.21,0.12-0.24,0.32
						c-0.03,0.17,0.05,0.35,0.22,0.54l0,0l0,0c0.01,0.04,0.03,0.18-0.05,0.29l0,0l0,0c-0.08,0.04-0.13,0.11-0.13,0.19l-0.01,0.16
						c0,0.03,0.01,0.05,0.02,0.07l0.01,0.01l0,0.01c-0.01,0.04-0.02,0.09-0.03,0.15c0,0.01,0,0.02,0.01,0.03
						c0.01,0.01,0.02,0.01,0.03,0.02c0.01,0,0.02,0,0.03-0.01s0.01-0.02,0.02-0.03c0-0.05,0.01-0.09,0.02-0.12l0-0.01l0.22,0.02
						l0,0.01c-0.01,0.16-0.03,0.24-0.05,0.28c-0.01,0.04-0.02,0.05,0,0.07c0.14,0.21,0.21,0.32,0.25,0.38
						c0.04,0.06,0.04,0.06,0.06,0.07c0.05,0.03,0.08,0.05,0.1,0.05c0.03,0.01,0.04,0.02,0.03,0.03c-0.02,0.03-0.01,0.07,0.01,0.09
						l0,0c0.01,0.02,0.02,0.03,0.01,0.05c-0.01,0.03-0.03,0.05-0.06,0.05c-0.04,0.01-0.09-0.01-0.11-0.05
						c-0.02-0.03-0.04-0.06-0.05-0.08c-0.03-0.04-0.04-0.07-0.07-0.09c-0.06-0.04-0.25-0.2-0.32-0.41
						c-0.01-0.03-0.02-0.05-0.02-0.06c0-0.01-0.01-0.02-0.01-0.03c0-0.01-0.01-0.02-0.02-0.03c-0.01-0.01-0.02-0.01-0.03-0.01
						c-0.01,0-0.02,0.01-0.03,0.02s-0.01,0.02-0.01,0.03c0,0.01,0.01,0.03,0.01,0.04c0.01,0.02,0.01,0.04,0.02,0.05
						c0.01,0.04,0.03,0.08,0.07,0.15l0,0l0,0c0,0.01,0,0.04,0.01,0.05l0,0l0,0c-0.04,0.08-0.08,0.22-0.06,0.37
						c0,0.03-0.01,0.06-0.04,0.07l-0.41,0.26l-0.13,0.06c-0.05,0.02-0.08,0.08-0.07,0.14c0,0.01,0.02,0.06,0.05,0.19l0.06,0.26
						c0.01,0.04,0.03,0.08,0.07,0.1c0.04,0.02,0.08,0.02,0.12,0c0.1-0.05,0.17-0.22,0.18-0.35l0-0.01l0.01,0
						c0.02,0,0.03-0.01,0.05-0.02l0.42-0.28v0.39l-0.01,0.24C483.64,692.8,483.66,692.86,483.73,692.87L483.73,692.87L483.73,692.87
						z M484.31,692.78C484.31,692.78,484.31,692.78,484.31,692.78L484.31,692.78c-0.01,0-0.03,0-0.11,0c-0.08,0-0.21,0-0.45,0h-0.01
						l0-0.01c0-0.01,0-0.01,0-0.05c0-0.03,0-0.07,0.01-0.15l0-0.01l0.35,0c0.09,0.02,0.21,0.09,0.25,0.2c0,0.01,0,0.02,0,0.02
						C484.33,692.78,484.32,692.78,484.31,692.78 M483.76,692.75c0.23,0,0.36,0,0.43,0c0.11,0,0.11,0,0.11,0c0,0,0.01,0,0.01,0
						c-0.03-0.09-0.13-0.15-0.22-0.17h-0.32c0,0.07-0.01,0.11-0.01,0.14C483.76,692.73,483.76,692.74,483.76,692.75 M482.93,692.7
						c-0.01,0-0.01,0-0.02,0c-0.01-0.01-0.02-0.02-0.02-0.03c0,0,0-0.01-0.02-0.09c-0.02-0.06-0.04-0.17-0.09-0.36l0,0
						c0-0.02,0.01-0.03,0.02-0.04l0.09-0.04l0.01,0.01c0.05,0.07,0.08,0.12,0.1,0.15c0.04,0.06,0.05,0.07,0.07,0.09l0.01,0l0,0.01
						c-0.01,0.11-0.06,0.24-0.14,0.29C482.94,692.7,482.93,692.7,482.93,692.7 M482.81,692.21c0.05,0.19,0.07,0.3,0.09,0.36
						c0.02,0.09,0.02,0.09,0.02,0.09c0,0,0,0.01,0,0.01c0,0,0,0,0.01,0c0.07-0.04,0.11-0.16,0.12-0.27
						c-0.02-0.02-0.03-0.04-0.07-0.09c-0.02-0.03-0.05-0.08-0.09-0.14l-0.07,0.03C482.81,692.2,482.81,692.21,482.81,692.21
						 M483.16,692.32c-0.01,0-0.03-0.01-0.04-0.02l-0.14-0.21l0.37-0.23c0.05-0.03,0.08-0.1,0.08-0.16c-0.01-0.05-0.01-0.11,0-0.16
						l0.01-0.05l0.02,0.05c0.04,0.1,0.1,0.19,0.17,0.25c0.03,0.03,0.03,0.06,0.03,0.11c0,0.03,0,0.06,0,0.1l0,0.01l-0.47,0.31
						C483.17,692.32,483.17,692.32,483.16,692.32 M483.02,692.1l0.12,0.19c0,0.01,0.02,0.01,0.02,0l0.46-0.3c0-0.04,0-0.07,0-0.1
						c0-0.06,0-0.07-0.02-0.09c-0.06-0.06-0.12-0.13-0.16-0.22c0,0.03,0,0.07,0,0.1c0.01,0.07-0.03,0.15-0.09,0.19L483.02,692.1z
						 M484.01,691.4l-0.09-0.05l0,0c-0.01-0.02-0.03-0.04-0.05-0.08l-0.01-0.02h0.09L484.01,691.4z M483.94,691.33l0.01,0.01
						l-0.03-0.06h-0.02C483.92,691.3,483.93,691.32,483.94,691.33 M483.8,691.16L483.8,691.16c-0.06-0.09-0.11-0.16-0.13-0.2l0-0.01
						l0-0.01c0.04-0.12,0.05-0.26,0.05-0.32l0-0.01l0.01,0c0.02-0.01,0.03-0.03,0.03-0.06c0-0.04,0.01-0.08,0.01-0.11
						c0.01-0.07,0.01-0.11-0.01-0.17l-0.02-0.04l0.04,0.02c0.03,0.02,0.06,0.05,0.08,0.08c0.07,0.14,0.14,0.51,0.09,0.81l0,0.01
						h-0.01c-0.06,0-0.09,0-0.1,0C483.81,691.16,483.81,691.16,483.8,691.16L483.8,691.16z M483.81,691.13h0.03
						c0.01,0,0.03,0,0.06,0c0.05-0.29-0.02-0.65-0.09-0.78c-0.01-0.02-0.02-0.03-0.03-0.04c0.01,0.05,0,0.09,0,0.14
						c0,0.03-0.01,0.07-0.01,0.11c0,0.03-0.02,0.05-0.04,0.07c0,0.07-0.01,0.2-0.05,0.32C483.71,690.99,483.76,691.06,483.81,691.13
						L483.81,691.13z M483.66,690.53l-0.29-0.02l0.01-0.16c0-0.04,0.02-0.08,0.05-0.1c0.05-0.04,0.11-0.05,0.16-0.02
						c0.05,0.03,0.08,0.08,0.07,0.14L483.66,690.53z M483.4,690.48l0.23,0.02l0.01-0.14c0-0.05-0.02-0.09-0.06-0.11
						c-0.04-0.02-0.09-0.02-0.13,0.02c-0.02,0.02-0.04,0.05-0.04,0.08L483.4,690.48z M483.76,690.15l-0.01,0
						c-0.05-0.02-0.12-0.03-0.18-0.02l-0.02,0l0.01-0.02c0.04-0.11,0.03-0.22,0.02-0.27l0-0.01l0.08-0.13
						c0.01-0.01,0.01-0.02,0-0.05c0-0.01,0-0.03,0-0.05c0-0.01,0-0.02,0.01-0.03c0.01-0.01,0.02-0.01,0.03-0.01l0.07,0h0
						c0.02,0,0.21-0.05,0.34-0.13l0.02-0.01l0,0.02c0.01,0.06,0.01,0.09,0.01,0.12c0,0.02,0,0.03,0,0.04l0.04,0.11l-0.01,0.01
						c0,0,0,0-0.01,0c-0.03,0.01-0.08,0.03-0.09,0.09c-0.01,0.05-0.04,0.14-0.11,0.15c-0.11,0.02-0.16,0.11-0.18,0.18L483.76,690.15
						z M483.61,690.1c0.05,0,0.1,0.01,0.14,0.02c0.04-0.11,0.11-0.17,0.2-0.19c0.06-0.01,0.08-0.09,0.09-0.13
						c0.01-0.05,0.05-0.09,0.1-0.11l-0.03-0.08c-0.01-0.01-0.01-0.03-0.01-0.05c0-0.02,0-0.05-0.01-0.09
						c-0.12,0.07-0.3,0.12-0.33,0.12h0l-0.07,0c0,0-0.01,0-0.01,0c0,0,0,0,0,0.01c0,0.02,0,0.04,0,0.05c0,0.03,0.01,0.05-0.01,0.07
						l-0.07,0.12c0.01,0.05,0.02,0.15-0.01,0.26C483.59,690.1,483.6,690.1,483.61,690.1 M483.52,689.75l-0.01-0.01
						c-0.13-0.15-0.18-0.29-0.16-0.42c0.03-0.17,0.2-0.26,0.2-0.26c0,0,0,0,0.01,0c0.01-0.01,0.31-0.22,0.57,0.04
						c0.08,0.07,0.06,0.12,0.06,0.14c-0.03,0.11-0.27,0.21-0.42,0.24l0,0c-0.01,0-0.02,0-0.03,0c-0.04,0-0.09,0-0.13,0.04
						c-0.04,0.04-0.03,0.09-0.03,0.13c0,0.01,0,0.02,0,0.03l0,0L483.52,689.75z M483.83,688.99c-0.14,0-0.25,0.08-0.26,0.09
						c0,0-0.01,0-0.01,0.01c0,0-0.16,0.08-0.19,0.24c-0.02,0.11,0.03,0.24,0.14,0.38l0.02-0.04c0-0.01,0-0.01,0-0.02
						c0-0.04-0.01-0.1,0.04-0.15c0.05-0.05,0.11-0.05,0.15-0.05c0.01,0,0.02,0,0.03,0c0.14-0.03,0.37-0.13,0.4-0.22
						c0-0.01,0.01-0.05-0.05-0.11C484.01,689.02,483.91,688.99,483.83,688.99"/>
				</g>
			</g>
		</g>
		<g>
			<polygon class="st9" points="411.82,367.68 345.24,367.67 345.25,352.96 411.82,352.95 			"/>
			<path class="st13" d="M345.25,352.95h49.09v-4.78h-49.09V352.95z M347.6,351.87h-1.56v-2.61h1.56V351.87z M350.4,351.87h-1.56
				v-2.61h1.56V351.87z M353.37,351.87h-1.56v-2.61h1.56V351.87z M356.41,351.87h-1.56v-2.61h1.56V351.87z M358.97,351.87h-1.56
				v-2.61h1.56V351.87z M362.08,351.87h-1.56v-2.61h1.56V351.87z M364.9,351.87h-1.56v-2.61h1.56V351.87z M367.76,351.87h-1.56
				v-2.61h1.56V351.87z M370.52,351.87h-1.56v-2.61h1.56V351.87z M373.5,351.87h-1.56v-2.61h1.56V351.87z M376.29,351.87h-1.56
				v-2.61h1.56V351.87z M379.15,351.87h-1.56v-2.61h1.56V351.87z M382.18,351.87h-1.56v-2.61h1.56V351.87z M384.94,351.87h-1.56
				v-2.61h1.56V351.87z M387.92,351.87h-1.56v-2.61h1.56V351.87z M390.71,351.87h-1.56v-2.61h1.56V351.87z M393.57,351.87h-1.56
				v-2.61h1.56V351.87z"/>
			<path class="st13" d="M399.05,348.17h-0.8h-1.21h-1.3h-1.39v4.78h1.39h1.3h1.21h0.8h12.77v-4.78H399.05z M396.7,351.87h-1.56
				v-2.61h1.56V351.87z M399.51,351.87h-1.56v-2.61h1.56V351.87z M402.47,351.87h-1.56v-2.61h1.56V351.87z M405.52,351.87h-1.56
				v-2.61h1.56V351.87z M408.32,351.87h-1.56v-2.61h1.56V351.87z M411.18,351.87h-1.56v-2.61h1.56V351.87z"/>
			<path class="st13" d="M381.57,367.55h-0.8h-1.21h-1.3h-33.02v4.78h33.02h1.3h1.21h0.8h12.77v-4.78H381.57z M347.6,371.25h-1.56
				v-2.61h1.56V371.25z M350.4,371.25h-1.56v-2.61h1.56V371.25z M353.37,371.25h-1.56v-2.61h1.56V371.25z M356.41,371.25h-1.56
				v-2.61h1.56V371.25z M358.97,371.25h-1.56v-2.61h1.56V371.25z M362.08,371.25h-1.56v-2.61h1.56V371.25z M364.9,371.25h-1.56
				v-2.61h1.56V371.25z M367.76,371.25h-1.56v-2.61h1.56V371.25z M370.52,371.25h-1.56v-2.61h1.56V371.25z M373.5,371.25h-1.56
				v-2.61h1.56V371.25z M376.29,371.25h-1.56v-2.61h1.56V371.25z M379.15,371.25h-1.56v-2.61h1.56V371.25z M382.18,371.25h-1.56
				v-2.61h1.56V371.25z M384.94,371.25h-1.56v-2.61h1.56V371.25z M387.92,371.25h-1.56v-2.61h1.56V371.25z M390.71,371.25h-1.56
				v-2.61h1.56V371.25z M393.57,371.25h-1.56v-2.61h1.56V371.25z"/>
			<path class="st13" d="M399.05,367.55h-0.8h-1.21h-1.3h-1.39v4.78h1.39h1.3h1.21h0.8h12.77v-4.78H399.05z M396.7,371.25h-1.56
				v-2.61h1.56V371.25z M399.51,371.25h-1.56v-2.61h1.56V371.25z M402.47,371.25h-1.56v-2.61h1.56V371.25z M405.52,371.25h-1.56
				v-2.61h1.56V371.25z M408.32,371.25h-1.56v-2.61h1.56V371.25z M411.18,371.25h-1.56v-2.61h1.56V371.25z"/>
			<path class="st14" d="M361.1,362.24v-0.95c0.29,0,0.51-0.08,0.68-0.24c0.16-0.16,0.29-0.37,0.38-0.63
				c0.09-0.27,0.15-0.58,0.18-0.94c0.03-0.36,0.04-0.74,0.04-1.15c0-0.4-0.01-0.78-0.04-1.14c-0.03-0.36-0.09-0.67-0.18-0.94
				c-0.09-0.27-0.22-0.48-0.38-0.64c-0.17-0.16-0.39-0.24-0.68-0.24v-0.95c0.47,0,0.86,0.06,1.17,0.19c0.31,0.13,0.58,0.3,0.78,0.52
				c0.21,0.21,0.37,0.46,0.48,0.73c0.11,0.27,0.2,0.55,0.25,0.84c0.05,0.29,0.08,0.57,0.09,0.86c0.01,0.28,0.02,0.54,0.02,0.77
				c0,0.23-0.01,0.48-0.02,0.77c-0.01,0.28-0.04,0.57-0.09,0.86c-0.05,0.29-0.14,0.57-0.25,0.84c-0.11,0.27-0.28,0.52-0.48,0.73
				c-0.21,0.22-0.47,0.39-0.79,0.52C361.95,362.18,361.56,362.24,361.1,362.24 M366.02,354.54l1.23,5.72h0.03l0.07-0.47l0.57-2.56
				l0.66-2.68h1.35l-2.11,7.6h-1.14l-2.08-7.6H366.02z M372.31,362.14h-1.43v-7.6h1.43V362.14z M377.89,354.54v0.88h-2.41v2.39h2.15
				v0.88h-2.15v2.58h2.41v0.88h-3.84v-7.6H377.89z M352.16,354.54l1.53,5.49h0.03l0.04-0.31l0.43-1.82l0.93-3.35h1.25l1,7.6h-1.4
				l-0.26-2.83l-0.08-1.41l-0.03-1h-0.03l-0.24,1.09l-1.11,4.15h-0.98l-1.38-5.24h-0.03l-0.41,5.24h-1.35l0.88-7.6H352.16z
				 M361.1,354.44v0.95c-0.29,0-0.51,0.08-0.68,0.24c-0.17,0.16-0.29,0.37-0.38,0.64c-0.09,0.27-0.15,0.58-0.18,0.94
				c-0.03,0.36-0.04,0.74-0.04,1.14c0,0.4,0.02,0.79,0.04,1.15c0.03,0.36,0.09,0.67,0.18,0.94c0.09,0.27,0.22,0.48,0.38,0.63
				c0.17,0.16,0.39,0.24,0.68,0.24v0.95c-0.46,0-0.84-0.06-1.16-0.19c-0.32-0.13-0.58-0.3-0.79-0.52c-0.21-0.21-0.37-0.46-0.49-0.73
				c-0.11-0.27-0.2-0.55-0.25-0.84c-0.05-0.29-0.08-0.57-0.09-0.86c-0.01-0.28-0.01-0.54-0.01-0.77c0-0.23,0-0.48,0.01-0.77
				c0.01-0.28,0.04-0.57,0.09-0.86c0.05-0.29,0.14-0.57,0.25-0.84c0.11-0.27,0.28-0.52,0.49-0.73c0.21-0.22,0.47-0.39,0.78-0.52
				C360.25,354.5,360.64,354.44,361.1,354.44"/>
			<polygon class="st14" points="387.29,354.48 387.29,355.36 385.75,355.36 385.75,362.05 384.38,362.05 384.38,355.36 
				382.77,355.36 382.77,354.48 			"/>
			<rect x="389.25" y="354.48" class="st14" width="1.37" height="7.57"/>
			<polygon class="st14" points="394.78,354.48 396.24,359.94 396.27,359.94 396.31,359.63 396.72,357.82 397.61,354.48 
				398.81,354.48 399.76,362.05 398.43,362.05 398.18,359.23 398.1,357.83 398.07,356.83 398.04,356.83 397.81,357.92 
				396.75,362.05 395.8,362.05 394.48,356.83 394.45,356.83 394.06,362.05 392.76,362.05 393.61,354.48 			"/>
			<polygon class="st14" points="404.97,354.48 404.97,355.36 402.67,355.36 402.67,357.73 404.73,357.73 404.73,358.61 
				402.67,358.61 402.67,361.18 404.97,361.18 404.97,362.05 401.3,362.05 401.3,354.48 			"/>
			<path class="st14" d="M359.42,366.86l0.33-3.26h0.86l0.17,1.25c0.03,0.19,0.05,0.37,0.07,0.54c0.02,0.17,0.03,0.34,0.04,0.51
				c0.03-0.29,0.05-0.51,0.07-0.68c0.02-0.17,0.03-0.29,0.05-0.37l0.21-1.25h0.85l0.28,3.26h-0.67l-0.07-1.52
				c0-0.04,0-0.09-0.01-0.16c-0.02-0.4-0.03-0.72-0.03-0.97l-0.43,2.65h-0.48l-0.41-2.67c0,0.22-0.01,0.54-0.04,0.95
				c-0.01,0.09-0.01,0.16-0.01,0.21l-0.1,1.51H359.42z"/>
			<path class="st14" d="M366.63,364.66v1.14c0,0.44-0.06,0.73-0.18,0.88c-0.12,0.15-0.33,0.22-0.64,0.22
				c-0.31,0-0.53-0.07-0.65-0.22c-0.12-0.15-0.18-0.44-0.18-0.88v-1.14h0.6v1.41c0,0.11,0.02,0.19,0.05,0.23
				c0.03,0.04,0.09,0.06,0.17,0.06c0.08,0,0.14-0.02,0.17-0.06c0.03-0.04,0.05-0.12,0.05-0.23v-1.41H366.63z"/>
			<rect x="369.43" y="363.39" class="st14" width="0.62" height="3.46"/>
			<polygon class="st14" points="372.92,366.86 372.92,365.14 372.67,365.14 372.67,364.66 372.92,364.66 372.92,364.03 
				373.53,364.03 373.53,364.66 373.78,364.66 373.78,365.14 373.53,365.14 373.53,366.86 			"/>
			<path class="st14" d="M376.36,364.08c0-0.1,0.03-0.18,0.1-0.25c0.07-0.07,0.15-0.1,0.25-0.1c0.1,0,0.18,0.03,0.25,0.1
				c0.07,0.07,0.1,0.15,0.1,0.25c0,0.1-0.03,0.18-0.1,0.24c-0.07,0.07-0.15,0.1-0.25,0.1c-0.1,0-0.19-0.03-0.25-0.1
				C376.4,364.26,376.36,364.18,376.36,364.08 M376.41,364.66h0.62v2.19h-0.62V364.66z"/>
			<path class="st14" d="M381.01,365.29c-0.05-0.04-0.1-0.06-0.14-0.08c-0.05-0.02-0.09-0.02-0.14-0.02c-0.12,0-0.21,0.05-0.28,0.15
				c-0.07,0.1-0.11,0.24-0.11,0.41c0,0.18,0.04,0.32,0.11,0.42c0.07,0.1,0.17,0.15,0.3,0.15c0.05,0,0.09-0.01,0.14-0.03
				c0.04-0.02,0.08-0.05,0.12-0.09v0.58c-0.06,0.04-0.13,0.08-0.2,0.1c-0.07,0.02-0.14,0.03-0.22,0.03c-0.26,0-0.47-0.1-0.62-0.31
				c-0.15-0.2-0.23-0.48-0.23-0.83c0-0.35,0.08-0.62,0.23-0.83c0.16-0.2,0.36-0.31,0.62-0.31c0.08,0,0.15,0.01,0.22,0.02
				c0.07,0.01,0.14,0.04,0.21,0.06V365.29z"/>
			<path class="st14" d="M383.63,364.08c0-0.1,0.03-0.18,0.1-0.25c0.07-0.07,0.15-0.1,0.25-0.1c0.1,0,0.18,0.03,0.25,0.1
				c0.07,0.07,0.1,0.15,0.1,0.25c0,0.1-0.03,0.18-0.1,0.24c-0.07,0.07-0.15,0.1-0.25,0.1c-0.1,0-0.19-0.03-0.25-0.1
				C383.67,364.26,383.63,364.18,383.63,364.08 M383.68,364.66h0.62v2.19h-0.62V364.66z"/>
			<path class="st14" d="M388.14,366.86v-1.33c0-0.13-0.01-0.21-0.05-0.26c-0.03-0.05-0.08-0.07-0.16-0.07
				c-0.08,0-0.14,0.03-0.17,0.08c-0.03,0.06-0.05,0.15-0.05,0.27v1.3h-0.62v-2.19h0.57V365c0.08-0.12,0.17-0.21,0.27-0.27
				c0.1-0.06,0.22-0.09,0.34-0.09c0.18,0,0.3,0.05,0.37,0.15c0.07,0.1,0.1,0.29,0.1,0.57v1.5H388.14z"/>
			<path class="st14" d="M392.02,365.92v0.02c0,0.16,0.03,0.29,0.09,0.38c0.06,0.09,0.14,0.13,0.25,0.13c0.07,0,0.13-0.02,0.18-0.06
				c0.05-0.04,0.09-0.11,0.12-0.19h0.53c-0.05,0.22-0.15,0.39-0.3,0.51c-0.15,0.12-0.34,0.18-0.56,0.18c-0.28,0-0.5-0.1-0.66-0.31
				c-0.16-0.2-0.25-0.48-0.25-0.83c0-0.35,0.08-0.63,0.25-0.83c0.16-0.2,0.39-0.31,0.66-0.31c0.3,0,0.52,0.1,0.67,0.3
				c0.15,0.2,0.23,0.5,0.23,0.89v0.11H392.02z M392.68,365.57c0-0.16-0.03-0.28-0.09-0.35c-0.05-0.08-0.14-0.12-0.24-0.12
				c-0.11,0-0.19,0.04-0.24,0.12c-0.06,0.08-0.09,0.2-0.09,0.35L392.68,365.57z"/>
			<path class="st14" d="M395.71,366.67l0.26-0.45c0.08,0.05,0.14,0.09,0.2,0.11c0.06,0.02,0.11,0.03,0.15,0.03
				c0.05,0,0.09-0.02,0.12-0.04c0.03-0.03,0.05-0.07,0.05-0.11c0-0.08-0.08-0.16-0.23-0.26c-0.04-0.02-0.07-0.04-0.09-0.05
				c-0.15-0.1-0.25-0.19-0.31-0.28c-0.06-0.09-0.09-0.2-0.09-0.33c0-0.21,0.07-0.37,0.2-0.49c0.13-0.12,0.31-0.18,0.53-0.18
				c0.11,0,0.22,0.02,0.32,0.05c0.1,0.03,0.2,0.08,0.29,0.14l-0.26,0.43c-0.06-0.05-0.11-0.09-0.17-0.11
				c-0.05-0.02-0.1-0.04-0.14-0.04c-0.05,0-0.09,0.01-0.12,0.04c-0.03,0.03-0.05,0.06-0.05,0.11c0,0.06,0.07,0.14,0.21,0.22
				c0.04,0.03,0.08,0.05,0.1,0.07c0.16,0.11,0.27,0.21,0.33,0.31c0.06,0.1,0.09,0.21,0.09,0.34c0,0.21-0.07,0.39-0.21,0.52
				c-0.14,0.13-0.33,0.2-0.56,0.2c-0.11,0-0.22-0.02-0.32-0.06C395.91,366.8,395.81,366.75,395.71,366.67"/>
		</g>
		<g>
			<path class="st12" d="M79.08,271.89v19.31h19.35C87.76,291.22,79.09,282.57,79.08,271.89z"/>
			<path class="st12" d="M98.44,291.2h19.3v-19.12C117.63,282.65,109.04,291.18,98.44,291.2z"/>
			<path class="st12" d="M79.08,252.52v19.38c-0.02-10.64,8.57-19.28,19.19-19.35l19.45-0.03l0.02,19.57l0,0v-19.57H79.08z"/>
			<path class="st9" d="M117.72,252.52l-19.45,0.03c-10.62,0.07-19.21,8.71-19.19,19.35c0.01,10.68,8.68,19.33,19.35,19.31
				c10.6-0.02,19.19-8.55,19.3-19.12l0,0L117.72,252.52z M98.12,267.32c0.48,0,0.87,0.39,0.87,0.87c0,0.48-0.39,0.87-0.87,0.87
				c-0.48,0-0.87-0.39-0.87-0.87C97.25,267.71,97.64,267.32,98.12,267.32z M87.91,275.49c-0.01,0.15-0.05,0.34-0.22,0.49
				c0,0-0.11,0.09-0.18,0.13c-0.81,0.48-1.88,0.46-1.88,0.46c-3.35-0.09-3.16-3.44-3.16-3.44s0.07-3.29,3.22-3.2
				c2.11,0.08,2.08,2,2.08,2s0.08,2.69-3.64,2.08c0,0,0.16,1.3,1.63,1.34c0.27,0.01,0.49-0.01,0.67-0.05
				c0.29-0.08,0.65-0.23,1.03-0.56c0.25-0.2,0.35,0.01,0.4,0.21l0,0C87.87,275.03,87.91,275.3,87.91,275.49z M106.5,276.57
				c-1.02-0.01-1.69-0.35-2.13-0.81c-0.01,0-0.01,0.01-0.01,0.01c-0.1,0.12-0.67,0.75-1.77,0.75c-0.9,0-1.4-0.3-1.68-0.67
				c-0.09,0.11-0.62,0.68-1.61,0.68c-0.53,0-0.91-0.11-1.18-0.28c-0.34-0.2-0.46-0.47-0.48-0.53c0,0,0-0.01-0.01-0.01v0
				c0,0-0.01,0.01-0.02,0.02c0,0,0,0,0,0c0,0,0,0.01-0.01,0.01c-0.13,0.15-0.74,0.79-1.89,0.79c-0.83,0-1.34-0.24-1.66-0.55
				c-0.02-0.02-0.03-0.04-0.05-0.06h0c-0.01-0.02-0.03-0.04-0.05-0.06l0,0c-0.02-0.02-0.03-0.04-0.04-0.05c0,0,0,0,0,0
				c-0.01-0.02-0.03-0.03-0.04-0.05c0,0,0,0,0,0c-0.01-0.02-0.02-0.04-0.04-0.05c0,0,0,0,0-0.01c-0.01-0.02-0.02-0.03-0.03-0.05
				c0,0-0.01-0.01-0.01-0.01c-0.01-0.02-0.02-0.03-0.03-0.05c0-0.01,0-0.01-0.01-0.01c-0.01-0.02-0.02-0.03-0.02-0.05
				c0,0,0-0.01-0.01-0.01c-0.01-0.02-0.01-0.03-0.02-0.05c0,0,0-0.01-0.01-0.01c-0.01-0.02-0.01-0.03-0.02-0.05c0,0,0-0.01,0-0.02
				c-0.01-0.02-0.01-0.03-0.02-0.04c0-0.01,0-0.01-0.01-0.02c0-0.01-0.01-0.03-0.01-0.04c0-0.01-0.01-0.01-0.01-0.02
				c0-0.01-0.01-0.03-0.01-0.04c0-0.01,0-0.02-0.01-0.02c0-0.01-0.01-0.03-0.01-0.04c0-0.01,0-0.02-0.01-0.02
				c0-0.01-0.01-0.02-0.01-0.03c-0.05-0.29-0.05-0.56-0.05-0.73l0-3.32c-0.27,0-0.57,0-2.71,0c-0.52,0.02-0.86,0.25-0.83,0.68
				c0.03,0.45,0.56,0.61,0.72,0.68c0.14,0.06,0.54,0.21,0.54,0.21c0.73,0.26,1.72,0.71,1.65,2.05c-0.07,1.33-1.3,1.84-2.34,1.86
				c-0.96,0.02-1.44-0.17-1.77-0.33c-0.26-0.13-0.33-0.34-0.36-0.52c-0.03-0.19-0.01-0.46-0.01-0.55c0.02-0.2,0.1-0.42,0.37-0.25
				c0.41,0.28,0.79,0.4,1.09,0.45c0.14,0.02,0.27,0.03,0.37,0.03c0.26,0,0.43-0.04,0.5-0.06c0.05-0.01,0.09-0.03,0.13-0.05
				c0.23-0.09,0.39-0.31,0.39-0.58c0-0.2-0.01-0.47-0.57-0.7c-0.62-0.25-1.17-0.48-1.36-0.6c-0.07-0.04-0.16-0.1-0.18-0.11
				c-0.47-0.31-0.79-0.85-0.79-1.46c0-0.72,0.43-1.33,1.04-1.61h0c0.01-0.01,0.02-0.01,0.03-0.02c0.26-0.12,0.59-0.22,1-0.26
				c0.13-0.01,0.25-0.02,0.36-0.02v0l2.7,0l0-2.49l0.44,0c0.68,0.01,1,0.11,1,0.87l0,1.62l1.44,0c0,0.86,0.03,1.14-0.75,1.15h-0.69
				c0,0,0,2.66,0,3.06c0,0.4,0,1.19,1.22,1.18c1.21,0,1.2-0.87,1.2-1.2c0-0.33-0.01-4.18-0.01-4.18s0.02,0,0.06,0
				c0.91,0,1.34-0.01,1.38,0.78c0,0.01,0.01,3.78,0.01,3.83c0,0.06,0,0.78,0.88,0.78c0.88,0,0.82-0.69,0.82-0.78l-0.01-7.11
				c0.96,0,1.41-0.04,1.41,0.85v0.29c0,0.04,0,0.07,0,0.11l0.01,5.84c0,0-0.04,0.78,0.79,0.78c0.52,0,0.85-0.27,1.04-0.5
				c-0.28-0.76-0.25-1.5-0.25-1.67c0-0.36,0-3.31,3.05-3.32c3.05,0,2.96,3.35,2.96,3.35l0,0
				C109.54,273.16,109.68,276.6,106.5,276.57z M114.36,274.66c-0.07,1.33-1.3,1.84-2.34,1.86c-0.96,0.02-1.44-0.17-1.77-0.33
				c-0.26-0.13-0.34-0.34-0.36-0.52c-0.03-0.19-0.01-0.46,0-0.55c0.02-0.2,0.1-0.42,0.37-0.25c0.41,0.28,0.8,0.4,1.09,0.45
				c0.14,0.02,0.27,0.02,0.37,0.02c0.25,0,0.43-0.04,0.5-0.06c0.05-0.01,0.09-0.03,0.13-0.05c0.23-0.09,0.4-0.31,0.4-0.58
				c0-0.2-0.01-0.47-0.57-0.7c-0.62-0.25-1.17-0.48-1.37-0.6c-0.07-0.04-0.15-0.1-0.18-0.11c-0.47-0.31-0.79-0.85-0.79-1.46
				c0-0.72,0.43-1.33,1.04-1.61l0,0c0.01,0,0.02-0.01,0.04-0.01c0.26-0.12,0.59-0.22,1-0.26c0.65-0.05,1.06,0.03,1.34,0.1
				c0.31,0.08,0.63,0.21,0.7,0.47c0.01,0.03,0.02,0.07,0.02,0.11l0,0.11l0,0.48v0.01h0c0,0,0,0,0,0c0,0.04-0.01,0.06-0.01,0.08
				c-0.03,0.09-0.11,0.15-0.21,0.15c0,0-0.01,0-0.01,0c-0.01,0-0.02,0-0.03,0c-0.05-0.01-0.13-0.04-0.16-0.05
				c-0.6-0.26-0.83-0.34-1.21-0.34c-0.56,0-0.93,0.23-0.9,0.68c0.03,0.45,0.56,0.61,0.72,0.68c0.14,0.06,0.54,0.21,0.54,0.21l0,0
				C113.44,272.86,114.43,273.32,114.36,274.66z"/>
			<path class="st9" d="M84.98,272.92c1.39-0.1,1.38-1.04,1.38-1.04s0.08-0.8-0.88-0.79v0c-1.43,0.01-1.51,1.76-1.51,1.76
				S84.44,272.96,84.98,272.92z"/>
			<path class="st9" d="M106.56,271.08c-1.57,0-1.57,1.82-1.57,2.04c0,0.22-0.08,2.1,1.52,2.12v0c1.64,0.02,1.56-2.1,1.56-2.1
				S108.13,271.08,106.56,271.08z"/>
		</g>
	</g>
</g>
</svg>
